<svg width="278" height="84" viewBox="0 0 278 84" fill="none" xmlns="http://www.w3.org/2000/svg">
<rect width="277.454" height="83.1595" rx="8.66244" fill="black"/>
<path d="M58.4625 43.3426C58.4899 41.2176 59.0543 39.1341 60.1033 37.2859C61.1522 35.4377 62.6517 33.8848 64.4621 32.7718C63.312 31.1293 61.7948 29.7776 60.0309 28.824C58.267 27.8704 56.3051 27.3413 54.3009 27.2786C50.0257 26.8298 45.8811 29.8368 43.7026 29.8368C41.4818 29.8368 38.1276 27.3231 34.5156 27.3974C32.1793 27.4729 29.9024 28.1523 27.9067 29.3694C25.911 30.5865 24.2647 32.2998 23.128 34.3423C18.2042 42.8671 21.8769 55.3957 26.5935 62.2864C28.9533 65.6607 31.7112 69.4298 35.3199 69.2961C38.8513 69.1496 40.1701 67.0443 44.4328 67.0443C48.6558 67.0443 49.8932 69.2961 53.5751 69.2111C57.3644 69.1496 59.7518 65.8219 62.0288 62.4157C63.7243 60.0115 65.029 57.3542 65.8946 54.5425C63.6931 53.6114 61.8145 52.0528 60.4928 50.0612C59.1712 48.0695 58.465 45.7329 58.4625 43.3426Z" fill="white"/>
<path d="M51.508 22.7467C53.5741 20.2664 54.592 17.0785 54.3455 13.8599C51.189 14.1914 48.2733 15.7 46.1793 18.0851C45.1555 19.2503 44.3713 20.6058 43.8717 22.0742C43.3721 23.5426 43.1668 25.0951 43.2675 26.6429C44.8463 26.6591 46.4082 26.3169 47.8356 25.642C49.263 24.9671 50.5187 23.9772 51.508 22.7467Z" fill="white"/>
<path d="M104.518 55.2449H93.7989L91.2247 62.672H86.6845L96.8375 35.1936H101.555L111.708 62.672H107.09L104.518 55.2449ZM94.909 51.8177H103.406L99.2171 39.764H99.0999L94.909 51.8177Z" fill="white"/>
<path d="M133.635 52.6559C133.635 58.8816 130.224 62.8814 125.078 62.8814C123.775 62.9481 122.478 62.6546 121.337 62.0347C120.196 61.4149 119.257 60.4936 118.627 59.3764H118.53V69.2994H114.321V42.6379H118.395V45.97H118.472C119.131 44.8582 120.086 43.9417 121.236 43.318C122.386 42.6943 123.687 42.3868 125.001 42.4283C130.204 42.4283 133.635 46.4476 133.635 52.6559ZM129.309 52.6559C129.309 48.5999 127.164 45.9333 123.891 45.9333C120.675 45.9333 118.512 48.6561 118.512 52.6559C118.512 56.6925 120.675 59.3959 123.891 59.3959C127.164 59.3959 129.309 56.7487 129.309 52.6559Z" fill="white"/>
<path d="M156.201 52.6562C156.201 58.8818 152.791 62.8817 147.644 62.8817C146.341 62.9483 145.044 62.6549 143.903 62.035C142.763 61.4151 141.823 60.4938 141.193 59.3766H141.096V69.2996H136.888V42.6381H140.961V45.9702H141.039C141.697 44.8584 142.652 43.9419 143.802 43.3182C144.952 42.6946 146.253 42.3871 147.567 42.4285C152.771 42.4285 156.201 46.4478 156.201 52.6562ZM151.875 52.6562C151.875 48.6001 149.73 45.9335 146.457 45.9335C143.241 45.9335 141.078 48.6563 141.078 52.6562C141.078 56.6928 143.241 59.3961 146.457 59.3961C149.73 59.3961 151.875 56.749 151.875 52.6562H151.875Z" fill="white"/>
<path d="M171.115 55.0158C171.427 57.7407 174.136 59.5298 177.838 59.5298C181.385 59.5298 183.937 57.7406 183.937 55.2836C183.937 53.1508 182.398 51.8737 178.753 50.9985L175.109 50.1406C169.945 48.9218 167.548 46.5621 167.548 42.7329C167.548 37.9919 171.776 34.7354 177.78 34.7354C183.723 34.7354 187.796 37.9919 187.933 42.7329H183.685C183.431 39.9907 181.111 38.3355 177.721 38.3355C174.33 38.3355 172.011 40.0102 172.011 42.4477C172.011 44.3904 173.492 45.5335 177.117 46.4086L180.215 47.152C185.985 48.4853 188.382 50.75 188.382 54.7692C188.382 59.9101 184.191 63.1298 177.526 63.1298C171.29 63.1298 167.079 59.9857 166.807 55.0156L171.115 55.0158Z" fill="white"/>
<path d="M197.465 37.897V42.638H201.364V45.8946H197.465V56.9391C197.465 58.6548 198.246 59.4544 199.96 59.4544C200.422 59.4465 200.884 59.4147 201.344 59.3592V62.5963C200.573 62.737 199.79 62.8007 199.006 62.7865C194.855 62.7865 193.237 61.263 193.237 57.3776V45.8946H190.255V42.638H193.237V37.897H197.465Z" fill="white"/>
<path d="M203.622 52.656C203.622 46.3526 207.421 42.3916 213.346 42.3916C219.29 42.3916 223.072 46.3525 223.072 52.656C223.072 58.9767 219.31 62.9204 213.346 62.9204C207.384 62.9204 203.622 58.9767 203.622 52.656ZM218.784 52.656C218.784 48.332 216.756 45.7799 213.346 45.7799C209.936 45.7799 207.91 48.3514 207.91 52.656C207.91 56.9973 209.936 59.5299 213.346 59.5299C216.756 59.5299 218.784 56.9973 218.784 52.656H218.784Z" fill="white"/>
<path d="M226.542 42.6379H230.556V46.0478H230.653C230.925 44.9828 231.563 44.0417 232.461 43.3825C233.359 42.7234 234.462 42.3864 235.585 42.4283C236.07 42.4266 236.553 42.4781 237.026 42.5817V46.4282C236.414 46.2454 235.776 46.1614 235.136 46.1797C234.524 46.1554 233.915 46.2608 233.349 46.4884C232.783 46.7161 232.274 47.0607 231.858 47.4986C231.441 47.9365 231.126 48.4573 230.935 49.0252C230.744 49.5932 230.681 50.1949 230.75 50.7889V62.6719H226.542L226.542 42.6379Z" fill="white"/>
<path d="M256.43 56.7877C255.864 60.4245 252.239 62.9204 247.602 62.9204C241.637 62.9204 237.935 59.0156 237.935 52.7511C237.935 46.4671 241.657 42.3916 247.425 42.3916C253.097 42.3916 256.665 46.1991 256.665 52.2735V53.6824H242.184V53.9309C242.117 54.6682 242.211 55.411 242.461 56.1099C242.71 56.8088 243.109 57.4478 243.631 57.9845C244.152 58.5212 244.785 58.9433 245.486 59.2228C246.188 59.5023 246.942 59.6327 247.699 59.6055C248.694 59.6966 249.692 59.4715 250.545 58.9638C251.398 58.4561 252.06 57.6929 252.434 56.7877L256.43 56.7877ZM242.204 50.8084H252.454C252.492 50.1455 252.389 49.482 252.152 48.8598C251.915 48.2375 251.549 47.6699 251.076 47.1924C250.604 46.715 250.036 46.3381 249.408 46.0853C248.779 45.8326 248.104 45.7095 247.425 45.7237C246.74 45.7198 246.06 45.8484 245.426 46.1023C244.792 46.3562 244.215 46.7303 243.73 47.2031C243.245 47.6758 242.86 48.2378 242.598 48.8566C242.336 49.4754 242.202 50.1388 242.204 50.8084V50.8084Z" fill="white"/>
<path d="M94.3815 14.5106C95.2639 14.4487 96.1492 14.579 96.9738 14.8919C97.7983 15.2049 98.5415 15.6928 99.1498 16.3204C99.758 16.948 100.216 17.6996 100.491 18.5212C100.766 19.3427 100.851 20.2137 100.74 21.0711C100.74 25.2893 98.4065 27.7139 94.3815 27.7139H89.5008V14.5106H94.3815ZM91.5995 25.8467H94.1471C94.7776 25.8835 95.4085 25.7825 95.994 25.551C96.5795 25.3195 97.1048 24.9634 97.5316 24.5085C97.9585 24.0536 98.2762 23.5115 98.4615 22.9215C98.6469 22.3316 98.6953 21.7086 98.6033 21.0981C98.6887 20.4899 98.6353 19.8708 98.4471 19.2852C98.2589 18.6995 97.9404 18.1618 97.5145 17.7106C97.0887 17.2593 96.5659 16.9057 95.9837 16.675C95.4015 16.4444 94.7744 16.3424 94.1471 16.3764H91.5995V25.8467Z" fill="white"/>
<path d="M103.11 22.7275C103.046 22.0727 103.123 21.4121 103.335 20.7879C103.548 20.1637 103.892 19.5899 104.344 19.1031C104.797 18.6163 105.349 18.2274 105.965 17.9612C106.58 17.6951 107.246 17.5576 107.919 17.5576C108.592 17.5576 109.258 17.6951 109.874 17.9612C110.489 18.2274 111.041 18.6163 111.494 19.1031C111.947 19.5899 112.291 20.1637 112.503 20.7879C112.716 21.4121 112.792 22.0727 112.728 22.7275C112.793 23.383 112.718 24.0446 112.506 24.6698C112.294 25.2949 111.95 25.8698 111.497 26.3576C111.045 26.8453 110.492 27.2351 109.876 27.5018C109.26 27.7685 108.593 27.9063 107.919 27.9063C107.245 27.9063 106.579 27.7685 105.962 27.5018C105.346 27.2351 104.794 26.8453 104.341 26.3576C103.888 25.8698 103.545 25.2949 103.333 24.6698C103.121 24.0446 103.045 23.383 103.11 22.7275ZM110.658 22.7275C110.658 20.5677 109.665 19.3046 107.923 19.3046C106.173 19.3046 105.189 20.5677 105.189 22.7276C105.189 24.9047 106.173 26.158 107.923 26.158C109.665 26.158 110.658 24.896 110.658 22.7275H110.658Z" fill="white"/>
<path d="M125.513 27.7135H123.425L121.318 20.375H121.158L119.06 27.7135H116.992L114.181 17.7495H116.222L118.049 25.3527H118.199L120.296 17.7495H122.227L124.323 25.3527H124.482L126.3 17.7495H128.313L125.513 27.7135Z" fill="white"/>
<path d="M130.677 17.7495H132.614V19.3324H132.764C133.019 18.7639 133.45 18.2873 133.995 17.9691C134.541 17.6509 135.174 17.5069 135.807 17.5572C136.304 17.5207 136.802 17.5938 137.265 17.7711C137.728 17.9483 138.145 18.2251 138.484 18.581C138.823 18.9369 139.076 19.3628 139.223 19.8271C139.371 20.2914 139.41 20.7822 139.337 21.2631V27.7134H137.324V21.757C137.324 20.1557 136.612 19.3594 135.124 19.3594C134.787 19.3441 134.451 19.4001 134.138 19.5236C133.826 19.6472 133.544 19.8353 133.313 20.0751C133.081 20.315 132.906 20.6008 132.798 20.9131C132.691 21.2254 132.653 21.5568 132.689 21.8844V27.7135H130.677L130.677 17.7495Z" fill="white"/>
<path d="M142.544 13.8599H144.556V27.7136H142.544V13.8599Z" fill="white"/>
<path d="M147.354 22.7275C147.289 22.0726 147.366 21.4119 147.579 20.7877C147.791 20.1635 148.135 19.5897 148.588 19.1029C149.041 18.6161 149.593 18.2272 150.208 17.961C150.824 17.6949 151.49 17.5574 152.163 17.5574C152.836 17.5574 153.502 17.6949 154.118 17.961C154.733 18.2272 155.285 18.6161 155.738 19.1029C156.191 19.5897 156.535 20.1635 156.747 20.7877C156.96 21.4119 157.036 22.0726 156.972 22.7275C157.038 23.383 156.962 24.0446 156.75 24.6697C156.538 25.2949 156.194 25.8698 155.741 26.3575C155.288 26.8452 154.736 27.235 154.12 27.5017C153.504 27.7684 152.837 27.9062 152.163 27.9062C151.489 27.9062 150.822 27.7684 150.206 27.5017C149.59 27.235 149.038 26.8452 148.585 26.3575C148.132 25.8698 147.788 25.2949 147.576 24.6697C147.364 24.0446 147.288 23.383 147.354 22.7275ZM154.901 22.7275C154.901 20.5676 153.908 19.3046 152.166 19.3046C150.416 19.3046 149.432 20.5676 149.432 22.7275C149.432 24.9046 150.417 26.158 152.166 26.158C153.908 26.1579 154.901 24.896 154.901 22.7275H154.901Z" fill="white"/>
<path d="M159.091 24.8959C159.091 23.1023 160.458 22.0683 162.884 21.9213L165.646 21.7658V20.9057C165.646 19.8533 164.934 19.2591 163.558 19.2591C162.435 19.2591 161.656 19.6621 161.433 20.3666H159.485C159.69 18.6551 161.338 17.5574 163.651 17.5574C166.208 17.5574 167.65 18.801 167.65 20.9057V27.7137H165.712V26.3134H165.553C165.23 26.8157 164.776 27.2252 164.238 27.5001C163.7 27.7749 163.097 27.9053 162.49 27.8779C162.062 27.9214 161.629 27.8768 161.22 27.7469C160.811 27.617 160.434 27.4047 160.114 27.1238C159.793 26.8428 159.537 26.4994 159.361 26.1157C159.185 25.7319 159.093 25.3164 159.091 24.8959ZM165.646 24.0444V23.2114L163.156 23.367C161.751 23.4588 161.115 23.9256 161.115 24.804C161.115 25.7008 161.911 26.2227 163.005 26.2227C163.326 26.2544 163.65 26.2227 163.958 26.1296C164.266 26.0365 164.552 25.8837 164.798 25.6805C165.045 25.4773 165.247 25.2277 165.392 24.9466C165.538 24.6656 165.624 24.3588 165.646 24.0444Z" fill="white"/>
<path d="M170.294 22.7273C170.294 19.5788 171.951 17.5843 174.527 17.5843C175.165 17.5556 175.797 17.7047 176.351 18.0143C176.905 18.3238 177.357 18.781 177.654 19.3324H177.805V13.8599H179.817V27.7136H177.889V26.1393H177.73C177.409 26.687 176.941 27.1384 176.377 27.4449C175.812 27.7513 175.173 27.901 174.527 27.8778C171.933 27.8779 170.294 25.8833 170.294 22.7273ZM172.373 22.7273C172.373 24.8406 173.393 26.1124 175.098 26.1124C176.794 26.1124 177.842 24.8223 177.842 22.7359C177.842 20.6593 176.783 19.3508 175.098 19.3508C173.404 19.3508 172.373 20.6311 172.373 22.7273H172.373Z" fill="white"/>
<path d="M188.144 22.7275C188.079 22.0727 188.156 21.4121 188.369 20.7879C188.581 20.1637 188.925 19.5899 189.378 19.1031C189.83 18.6163 190.382 18.2274 190.998 17.9612C191.613 17.6951 192.279 17.5576 192.952 17.5576C193.626 17.5576 194.291 17.6951 194.907 17.9612C195.523 18.2274 196.074 18.6163 196.527 19.1031C196.98 19.5899 197.324 20.1637 197.536 20.7879C197.749 21.4121 197.825 22.0727 197.761 22.7275C197.827 23.383 197.751 24.0446 197.539 24.6698C197.327 25.2949 196.984 25.8698 196.531 26.3576C196.078 26.8453 195.525 27.2351 194.909 27.5018C194.293 27.7685 193.626 27.9063 192.952 27.9063C192.278 27.9063 191.612 27.7685 190.996 27.5018C190.379 27.2351 189.827 26.8453 189.374 26.3576C188.921 25.8698 188.578 25.2949 188.366 24.6698C188.154 24.0446 188.078 23.383 188.144 22.7275ZM195.691 22.7275C195.691 20.5677 194.698 19.3046 192.956 19.3046C191.206 19.3046 190.222 20.5677 190.222 22.7276C190.222 24.9047 191.206 26.158 192.956 26.158C194.698 26.158 195.691 24.896 195.691 22.7275Z" fill="white"/>
<path d="M200.462 17.7495H202.399V19.3324H202.549C202.804 18.7639 203.235 18.2873 203.78 17.9691C204.326 17.6509 204.959 17.5069 205.592 17.5572C206.088 17.5207 206.587 17.5938 207.05 17.7711C207.513 17.9483 207.93 18.2251 208.269 18.581C208.608 18.9369 208.86 19.3628 209.008 19.8271C209.156 20.2914 209.195 20.7822 209.122 21.2631V27.7134H207.109V21.757C207.109 20.1557 206.397 19.3594 204.909 19.3594C204.572 19.3441 204.236 19.4001 203.923 19.5236C203.61 19.6472 203.329 19.8353 203.098 20.0751C202.866 20.315 202.691 20.6008 202.583 20.9131C202.476 21.2254 202.438 21.5568 202.474 21.8844V27.7135H200.462V17.7495Z" fill="white"/>
<path d="M220.493 15.2688V17.7949H222.703V19.4513H220.493V24.5748C220.493 25.6186 220.933 26.0756 221.935 26.0756C222.192 26.0748 222.448 26.0596 222.703 26.0302V27.6682C222.341 27.7314 221.975 27.765 221.608 27.7687C219.37 27.7687 218.479 26.9994 218.479 25.0783V19.4512H216.86V17.7948H218.479V15.2688H220.493Z" fill="white"/>
<path d="M225.451 13.8599H227.446V19.3508H227.605C227.873 18.777 228.315 18.2977 228.871 17.9783C229.428 17.6589 230.071 17.5149 230.715 17.5659C231.208 17.5396 231.702 17.6201 232.16 17.8017C232.618 17.9832 233.029 18.2613 233.365 18.6161C233.7 18.9709 233.951 19.3937 234.1 19.8542C234.249 20.3148 234.292 20.8018 234.227 21.2805V27.7136H232.212V21.7656C232.212 20.1741 231.453 19.368 230.032 19.368C229.686 19.3403 229.338 19.3868 229.012 19.5042C228.687 19.6216 228.391 19.8071 228.147 20.0477C227.902 20.2883 227.714 20.5782 227.596 20.8972C227.478 21.2161 227.433 21.5564 227.464 21.8942V27.7135H225.452L225.451 13.8599Z" fill="white"/>
<path d="M245.961 25.0233C245.687 25.9339 245.095 26.7217 244.287 27.2486C243.48 27.7756 242.508 28.0083 241.542 27.906C240.87 27.9233 240.203 27.7975 239.586 27.5375C238.969 27.2774 238.417 26.8892 237.969 26.3999C237.521 25.9106 237.187 25.3318 236.99 24.7038C236.794 24.0757 236.74 23.4135 236.832 22.763C236.742 22.1104 236.797 21.4468 236.993 20.8168C237.189 20.1869 237.521 19.6055 237.967 19.1119C238.413 18.6182 238.962 18.224 239.577 17.9558C240.193 17.6876 240.86 17.5517 241.533 17.5573C244.371 17.5573 246.082 19.4514 246.082 22.5803V23.2665H238.882V23.3767C238.85 23.7423 238.897 24.1104 239.02 24.4572C239.143 24.8041 239.338 25.1221 239.594 25.3909C239.849 25.6596 240.16 25.8732 240.505 26.0179C240.85 26.1626 241.222 26.2353 241.598 26.2312C242.079 26.2877 242.567 26.203 242.999 25.9879C243.431 25.7728 243.787 25.437 244.024 25.0232L245.961 25.0233ZM238.882 21.8122H244.032C244.058 21.4777 244.011 21.1418 243.896 20.826C243.78 20.5102 243.599 20.2215 243.362 19.9784C243.126 19.7353 242.84 19.5432 242.523 19.4145C242.206 19.2858 241.865 19.2233 241.522 19.2309C241.174 19.2267 240.829 19.2905 240.506 19.4187C240.184 19.547 239.891 19.7369 239.645 19.9775C239.399 20.2181 239.205 20.5043 239.074 20.8194C238.943 21.1345 238.877 21.4721 238.882 21.8122H238.882Z" fill="white"/>
</svg>
