<svg width="54" height="23" viewBox="0 0 54 23" fill="none" xmlns="http://www.w3.org/2000/svg">
<path d="M0 0H54V20H0L8 10L0 0Z" fill="#C6C2C0"/>
<path d="M16.218 14V6.9541H19.05C20.3732 6.9541 21.1691 7.62793 21.1691 8.70703V8.7168C21.1691 9.44922 20.6271 10.1084 19.9338 10.2256V10.3086C20.8859 10.4111 21.5207 11.085 21.5207 12.0029V12.0127C21.5207 13.248 20.6174 14 19.1135 14H16.218ZM18.7961 7.84766H17.3117V9.95215H18.6105C19.5773 9.95215 20.0803 9.59082 20.0803 8.90723V8.89746C20.0803 8.2334 19.6066 7.84766 18.7961 7.84766ZM18.8303 10.7871H17.3117V13.1064H18.8938C19.8801 13.1064 20.4025 12.7012 20.4025 11.9443V11.9346C20.4025 11.1777 19.8605 10.7871 18.8303 10.7871ZM24.9114 14.1025C23.3587 14.1025 22.4212 13.043 22.4212 11.3633V11.3584C22.4212 9.70312 23.3782 8.59473 24.8577 8.59473C26.3372 8.59473 27.2454 9.66406 27.2454 11.2559V11.627H23.4857C23.5052 12.6426 24.0618 13.2334 24.9359 13.2334C25.6146 13.2334 26.0198 12.8965 26.1468 12.623L26.1663 12.584L27.1868 12.5791L27.1771 12.623C27.0013 13.3213 26.2689 14.1025 24.9114 14.1025ZM24.8626 9.46387C24.14 9.46387 23.5931 9.95703 23.5003 10.8701H26.1956C26.1126 9.92285 25.5804 9.46387 24.8626 9.46387ZM30.3871 14.0342C29.2202 14.0342 28.7416 13.624 28.7416 12.6035V9.53223H27.9116V8.69727H28.7416V7.35938H29.8207V8.69727H30.9584V9.53223H29.8207V12.3496C29.8207 12.9209 30.0356 13.1553 30.558 13.1553C30.7192 13.1553 30.812 13.1504 30.9584 13.1357V13.9805C30.7875 14.0098 30.5922 14.0342 30.3871 14.0342ZM34.0953 14.0342C32.9283 14.0342 32.4498 13.624 32.4498 12.6035V9.53223H31.6197V8.69727H32.4498V7.35938H33.5289V8.69727H34.6666V9.53223H33.5289V12.3496C33.5289 12.9209 33.7437 13.1553 34.2662 13.1553C34.4273 13.1553 34.5201 13.1504 34.6666 13.1357V13.9805C34.4957 14.0098 34.3004 14.0342 34.0953 14.0342ZM37.9499 14.1025C36.3971 14.1025 35.4596 13.043 35.4596 11.3633V11.3584C35.4596 9.70312 36.4167 8.59473 37.8962 8.59473C39.3757 8.59473 40.2839 9.66406 40.2839 11.2559V11.627H36.5241C36.5436 12.6426 37.1003 13.2334 37.9743 13.2334C38.653 13.2334 39.0583 12.8965 39.1852 12.623L39.2048 12.584L40.2253 12.5791L40.2155 12.623C40.0397 13.3213 39.3073 14.1025 37.9499 14.1025ZM37.9011 9.46387C37.1784 9.46387 36.6315 9.95703 36.5387 10.8701H39.2341C39.1511 9.92285 38.6188 9.46387 37.9011 9.46387ZM41.4236 14V8.69727H42.4832V9.49805H42.5613C42.7518 8.93652 43.2449 8.60449 43.9529 8.60449C44.1238 8.60449 44.3094 8.62891 44.4168 8.65332V9.62988C44.2264 9.59082 44.0457 9.56641 43.8455 9.56641C43.035 9.56641 42.4832 10.0645 42.4832 10.8311V14H41.4236Z" fill="#1E1410"/>
<path d="M51 23L54 20H51V23Z" fill="#908F8F"/>
</svg>
