<svg width="302" height="202" viewBox="0 0 302 202" fill="none" xmlns="http://www.w3.org/2000/svg">
<g filter="url(#filter0_d_4747_4088)">
<rect x="66" y="66" width="170" height="70" rx="10" fill="#D7ECFF"/>
<rect x="66.25" y="66.25" width="169.5" height="69.5" rx="9.75" stroke="#0F6FC7" stroke-width="0.5"/>
</g>
<path d="M193 66H226C231.523 66 236 70.4772 236 76V90H203C197.477 90 193 85.5228 193 80V66Z" fill="#0F6FC7"/>
<path d="M201.148 82V72.354H205.362C207.7 72.354 208.582 73.558 208.582 74.818C208.582 75.91 208.008 76.61 207.35 76.904C208.008 77.156 208.862 77.842 208.862 79.116C208.862 80.768 207.56 82 205.516 82H201.148ZM203.192 76.162H205.124C206.118 76.162 206.524 75.714 206.524 75.028C206.524 74.328 205.992 73.964 205.194 73.964H203.192V76.162ZM203.192 77.772V80.39H205.082C206.216 80.39 206.72 79.914 206.72 79.046C206.72 78.262 206.216 77.772 205.068 77.772H203.192ZM216.727 78.808H211.939C211.939 79.718 212.401 80.6 213.395 80.6C214.235 80.6 214.473 80.264 214.669 79.83H216.671C216.419 80.712 215.621 82.168 213.353 82.168C210.959 82.168 209.923 80.39 209.923 78.486C209.923 76.204 211.085 74.58 213.423 74.58C215.901 74.58 216.755 76.386 216.755 78.192C216.755 78.444 216.755 78.598 216.727 78.808ZM211.981 77.576H214.739C214.725 76.736 214.389 76.022 213.409 76.022C212.457 76.022 212.065 76.68 211.981 77.576ZM217.66 79.816H219.634C219.788 80.404 220.264 80.726 221.006 80.726C221.748 80.726 222.014 80.46 222.014 80.012C222.014 79.55 221.706 79.368 220.67 79.116C218.304 78.528 217.926 77.8 217.926 76.778C217.926 75.714 218.668 74.58 220.852 74.58C223.05 74.58 223.806 75.784 223.862 76.764H221.958C221.888 76.498 221.706 75.994 220.768 75.994C220.11 75.994 219.886 76.288 219.886 76.61C219.886 76.974 220.11 77.142 221.286 77.422C223.708 77.982 224.058 78.808 224.058 79.872C224.058 81.076 223.134 82.168 220.936 82.168C218.724 82.168 217.828 81.104 217.66 79.816ZM224.587 76.26V74.748H225.707V72.788H227.709V74.748H229.137V76.26H227.709V79.844C227.709 80.39 227.877 80.6 228.479 80.6C228.591 80.6 228.787 80.6 228.927 80.586V81.958C228.535 82.098 227.989 82.098 227.583 82.098C226.169 82.098 225.707 81.342 225.707 80.068V76.26H224.587Z" fill="white"/>
<path d="M83.392 80.344V81.45H78.548V84.894H83.868L83.7 86H77.288V76.256H83.63V77.362H78.548V80.344H83.392ZM84.8419 83.97H86.0739C86.2699 84.74 86.8439 85.202 87.8099 85.202C88.8459 85.202 89.2519 84.754 89.2519 84.11C89.2519 83.438 88.9299 83.13 87.5719 82.808C85.5419 82.318 85.1219 81.688 85.1219 80.722C85.1219 79.728 85.8639 78.734 87.6839 78.734C89.5179 78.734 90.2739 79.798 90.3579 80.778H89.1819C89.0699 80.33 88.7199 79.686 87.6419 79.686C86.6479 79.686 86.3399 80.162 86.3399 80.624C86.3399 81.156 86.6339 81.422 87.9359 81.73C90.0919 82.248 90.5259 82.962 90.5259 84.012C90.5259 85.258 89.5319 86.168 87.7679 86.168C85.9339 86.168 85.0239 85.244 84.8419 83.97ZM91.1244 79.896V78.902H92.3564V76.802H93.5744V78.902H95.1424V79.896H93.5744V84.054C93.5744 84.754 93.7424 85.104 94.3864 85.104C94.5544 85.104 94.8064 85.09 95.0024 85.048V85.972C94.7084 86.084 94.2884 86.098 93.9384 86.098C92.8324 86.098 92.3564 85.524 92.3564 84.348V79.896H91.1244ZM96.4504 86V78.902H97.6824V86H96.4504ZM97.6824 77.25H96.4504V75.724H97.6824V77.25ZM99.7727 86V80.736C99.7727 80.12 99.7727 79.476 99.7587 78.902H100.935C100.963 79.112 100.991 79.63 100.991 79.994C101.313 79.364 101.929 78.734 103.049 78.734C104.057 78.734 104.743 79.238 105.023 80.008C105.401 79.336 106.073 78.734 107.277 78.734C108.439 78.734 109.517 79.42 109.517 81.338V86H108.313V81.478C108.313 80.666 108.019 79.798 106.913 79.798C105.751 79.798 105.247 80.666 105.247 81.926V86H104.043V81.52C104.043 80.61 103.791 79.798 102.671 79.798C101.537 79.798 100.991 80.722 100.991 82.066V86H99.7727ZM116.822 81.058V84.446C116.822 85.104 116.878 85.79 116.92 86H115.744C115.688 85.846 115.646 85.51 115.632 85.076C115.38 85.538 114.806 86.168 113.434 86.168C111.754 86.168 111.04 85.076 111.04 83.998C111.04 82.416 112.286 81.688 114.4 81.688H115.604V81.086C115.604 80.456 115.408 79.7 114.078 79.7C112.902 79.7 112.692 80.288 112.566 80.834H111.376C111.474 79.854 112.076 78.734 114.12 78.734C115.856 78.734 116.822 79.448 116.822 81.058ZM115.618 82.766V82.542H114.47C113.056 82.542 112.3 82.934 112.3 83.928C112.3 84.67 112.804 85.202 113.686 85.202C115.394 85.202 115.618 84.054 115.618 82.766ZM117.935 79.896V78.902H119.167V76.802H120.385V78.902H121.953V79.896H120.385V84.054C120.385 84.754 120.553 85.104 121.197 85.104C121.365 85.104 121.617 85.09 121.813 85.048V85.972C121.519 86.084 121.099 86.098 120.749 86.098C119.643 86.098 119.167 85.524 119.167 84.348V79.896H117.935ZM128.96 82.668H123.948C123.962 84.11 124.69 85.146 125.894 85.146C127.014 85.146 127.378 84.558 127.602 84.04H128.848C128.568 84.95 127.798 86.168 125.852 86.168C123.626 86.168 122.716 84.348 122.716 82.528C122.716 80.414 123.78 78.734 125.936 78.734C128.232 78.734 128.974 80.568 128.974 82.08C128.974 82.304 128.974 82.486 128.96 82.668ZM123.99 81.814H127.728C127.714 80.638 127.126 79.7 125.922 79.7C124.662 79.7 124.116 80.568 123.99 81.814ZM136.763 86H135.503V78.258C135.055 78.58 134.117 78.958 133.599 79.056V78.062C134.313 77.866 135.209 77.348 135.839 76.746H136.763V86Z" fill="#2C2724"/>
<path d="M77.104 108V99.648H80.272C81.892 99.648 83.008 100.56 83.008 102.084C83.008 103.704 81.832 104.568 80.2 104.568H78.22V108H77.104ZM78.22 100.584V103.632H80.152C81.292 103.632 81.868 103.08 81.868 102.108C81.868 101.088 81.172 100.584 80.188 100.584H78.22ZM88.6313 103.764V106.668C88.6313 107.232 88.6793 107.82 88.7153 108H87.7073C87.6593 107.868 87.6233 107.58 87.6113 107.208C87.3953 107.604 86.9033 108.144 85.7273 108.144C84.2873 108.144 83.6753 107.208 83.6753 106.284C83.6753 104.928 84.7433 104.304 86.5553 104.304H87.5873V103.788C87.5873 103.248 87.4193 102.6 86.2793 102.6C85.2713 102.6 85.0913 103.104 84.9833 103.572H83.9633C84.0473 102.732 84.5633 101.772 86.3153 101.772C87.8033 101.772 88.6313 102.384 88.6313 103.764ZM87.5993 105.228V105.036H86.6153C85.4033 105.036 84.7553 105.372 84.7553 106.224C84.7553 106.86 85.1873 107.316 85.9433 107.316C87.4073 107.316 87.5993 106.332 87.5993 105.228ZM89.5385 101.916H90.6665C91.4825 104.4 92.0825 106.26 92.2745 107.016H92.2865C92.4305 106.344 93.0785 104.52 93.9905 101.916H95.0585L92.8265 108H91.6625L89.5385 101.916ZM100.98 105.144H96.6842C96.6962 106.38 97.3202 107.268 98.3522 107.268C99.3122 107.268 99.6242 106.764 99.8162 106.32H100.884C100.644 107.1 99.9842 108.144 98.3162 108.144C96.4082 108.144 95.6282 106.584 95.6282 105.024C95.6282 103.212 96.5402 101.772 98.3882 101.772C100.356 101.772 100.992 103.344 100.992 104.64C100.992 104.832 100.992 104.988 100.98 105.144ZM96.7202 104.412H99.9242C99.9122 103.404 99.4082 102.6 98.3762 102.6C97.2962 102.6 96.8282 103.344 96.7202 104.412ZM102.341 108V103.572C102.341 102.72 102.329 102.24 102.329 101.916H103.361C103.373 102.084 103.397 102.564 103.397 103.152C103.709 102.336 104.429 101.796 105.437 101.772V102.816C104.189 102.852 103.397 103.512 103.397 105.048V108H102.341ZM110.843 108H109.799V99.648H111.263C112.463 101.604 115.067 105.756 115.535 106.656H115.547C115.463 105.588 115.475 104.268 115.475 102.912V99.648H116.519V108H115.139C114.035 106.188 111.323 101.724 110.807 100.788H110.783C110.843 101.736 110.843 103.152 110.843 104.664V108ZM122.897 103.764V106.668C122.897 107.232 122.945 107.82 122.981 108H121.973C121.925 107.868 121.889 107.58 121.877 107.208C121.661 107.604 121.169 108.144 119.993 108.144C118.553 108.144 117.941 107.208 117.941 106.284C117.941 104.928 119.009 104.304 120.821 104.304H121.853V103.788C121.853 103.248 121.685 102.6 120.545 102.6C119.537 102.6 119.357 103.104 119.249 103.572H118.229C118.313 102.732 118.829 101.772 120.581 101.772C122.069 101.772 122.897 102.384 122.897 103.764ZM121.865 105.228V105.036H120.881C119.669 105.036 119.021 105.372 119.021 106.224C119.021 106.86 119.453 107.316 120.209 107.316C121.673 107.316 121.865 106.332 121.865 105.228ZM124.713 108V103.488C124.713 102.96 124.713 102.408 124.701 101.916H125.709C125.733 102.096 125.757 102.54 125.757 102.852C126.033 102.312 126.561 101.772 127.521 101.772C128.385 101.772 128.973 102.204 129.213 102.864C129.537 102.288 130.113 101.772 131.145 101.772C132.141 101.772 133.065 102.36 133.065 104.004V108H132.033V104.124C132.033 103.428 131.781 102.684 130.833 102.684C129.837 102.684 129.405 103.428 129.405 104.508V108H128.373V104.16C128.373 103.38 128.157 102.684 127.197 102.684C126.225 102.684 125.757 103.476 125.757 104.628V108H124.713ZM139.781 105.144H135.485C135.497 106.38 136.121 107.268 137.153 107.268C138.113 107.268 138.425 106.764 138.617 106.32H139.685C139.445 107.1 138.785 108.144 137.117 108.144C135.209 108.144 134.429 106.584 134.429 105.024C134.429 103.212 135.341 101.772 137.189 101.772C139.157 101.772 139.793 103.344 139.793 104.64C139.793 104.832 139.793 104.988 139.781 105.144ZM135.521 104.412H138.725C138.713 103.404 138.209 102.6 137.177 102.6C136.097 102.6 135.629 103.344 135.521 104.412Z" fill="#766C68"/>
<path d="M77.148 125V115.354H79.234V119.106H83.126V115.354H85.212V125H83.126V120.828H79.234V125H77.148ZM90.3429 117.58C92.4709 117.58 93.8569 119.092 93.8569 121.36C93.8569 123.558 92.5409 125.168 90.2449 125.168C88.0049 125.168 86.6889 123.558 86.6889 121.402C86.6889 119.162 88.0469 117.58 90.3429 117.58ZM90.2589 119.162C89.3349 119.162 88.7189 119.848 88.7189 121.374C88.7189 122.774 89.3209 123.6 90.2869 123.6C91.2809 123.6 91.8269 122.774 91.8269 121.388C91.8269 119.876 91.2669 119.162 90.2589 119.162ZM97.246 125H95.23V114.78H97.246V125ZM101.06 125H99.0444V114.78H101.06V125ZM108.824 120.086V123.124C108.824 123.824 108.88 124.832 108.922 125H107.004C106.948 124.86 106.906 124.468 106.906 124.286C106.64 124.692 106.15 125.168 104.862 125.168C103.112 125.168 102.384 124.02 102.384 122.9C102.384 121.248 103.7 120.478 105.828 120.478H106.864V120.044C106.864 119.526 106.682 119.022 105.744 119.022C104.904 119.022 104.708 119.372 104.624 119.904H102.72C102.818 118.616 103.616 117.58 105.828 117.58C107.76 117.594 108.824 118.35 108.824 120.086ZM106.864 121.892V121.696H106.052C104.834 121.696 104.386 122.074 104.386 122.774C104.386 123.292 104.708 123.74 105.436 123.74C106.71 123.74 106.864 122.844 106.864 121.892ZM110.639 125V119.582C110.639 118.966 110.639 118.294 110.625 117.748H112.571C112.613 117.944 112.641 118.448 112.655 118.672C112.893 118.224 113.481 117.58 114.755 117.58C116.211 117.58 117.149 118.574 117.149 120.394V125H115.147V120.618C115.147 119.792 114.881 119.204 113.985 119.204C113.131 119.204 112.655 119.68 112.655 120.968V125H110.639ZM123.571 114.78H125.573V123.012C125.573 123.67 125.573 124.342 125.587 125H123.669C123.627 124.776 123.585 124.412 123.571 124.244C123.221 124.818 122.591 125.168 121.513 125.168C119.679 125.168 118.517 123.698 118.517 121.43C118.517 119.204 119.749 117.58 121.807 117.58C122.857 117.58 123.417 117.958 123.571 118.28V114.78ZM120.575 121.388C120.575 122.802 121.121 123.558 122.115 123.558C123.487 123.558 123.655 122.41 123.655 121.374C123.655 120.128 123.473 119.19 122.157 119.19C121.107 119.19 120.575 120.016 120.575 121.388ZM126.787 122.816H128.761C128.915 123.404 129.391 123.726 130.133 123.726C130.875 123.726 131.141 123.46 131.141 123.012C131.141 122.55 130.833 122.368 129.797 122.116C127.431 121.528 127.053 120.8 127.053 119.778C127.053 118.714 127.795 117.58 129.979 117.58C132.177 117.58 132.933 118.784 132.989 119.764H131.085C131.015 119.498 130.833 118.994 129.895 118.994C129.237 118.994 129.013 119.288 129.013 119.61C129.013 119.974 129.237 120.142 130.413 120.422C132.835 120.982 133.185 121.808 133.185 122.872C133.185 124.076 132.261 125.168 130.063 125.168C127.851 125.168 126.955 124.104 126.787 122.816ZM133.714 119.26V117.748H134.834V115.788H136.836V117.748H138.264V119.26H136.836V122.844C136.836 123.39 137.004 123.6 137.606 123.6C137.718 123.6 137.914 123.6 138.054 123.586V124.958C137.662 125.098 137.116 125.098 136.71 125.098C135.296 125.098 134.834 124.342 134.834 123.068V119.26H133.714ZM142.597 117.58C144.725 117.58 146.111 119.092 146.111 121.36C146.111 123.558 144.795 125.168 142.499 125.168C140.259 125.168 138.943 123.558 138.943 121.402C138.943 119.162 140.301 117.58 142.597 117.58ZM142.513 119.162C141.589 119.162 140.973 119.848 140.973 121.374C140.973 122.774 141.575 123.6 142.541 123.6C143.535 123.6 144.081 122.774 144.081 121.388C144.081 119.876 143.521 119.162 142.513 119.162ZM147.498 125V119.582C147.498 118.966 147.498 118.294 147.484 117.748H149.43C149.472 117.944 149.5 118.448 149.514 118.672C149.752 118.224 150.34 117.58 151.614 117.58C153.07 117.58 154.008 118.574 154.008 120.394V125H152.006V120.618C152.006 119.792 151.74 119.204 150.844 119.204C149.99 119.204 149.514 119.68 149.514 120.968V125H147.498ZM162.167 121.808H157.379C157.379 122.718 157.841 123.6 158.835 123.6C159.675 123.6 159.913 123.264 160.109 122.83H162.111C161.859 123.712 161.061 125.168 158.793 125.168C156.399 125.168 155.363 123.39 155.363 121.486C155.363 119.204 156.525 117.58 158.863 117.58C161.341 117.58 162.195 119.386 162.195 121.192C162.195 121.444 162.195 121.598 162.167 121.808ZM157.421 120.576H160.179C160.165 119.736 159.829 119.022 158.849 119.022C157.897 119.022 157.505 119.68 157.421 120.576Z" fill="#1E1410"/>
<defs>
<filter id="filter0_d_4747_4088" x="0.324326" y="0.324326" width="301.351" height="201.351" filterUnits="userSpaceOnUse" color-interpolation-filters="sRGB">
<feFlood flood-opacity="0" result="BackgroundImageFix"/>
<feColorMatrix in="SourceAlpha" type="matrix" values="0 0 0 0 0 0 0 0 0 0 0 0 0 0 0 0 0 0 127 0" result="hardAlpha"/>
<feOffset/>
<feGaussianBlur stdDeviation="32.8378"/>
<feComposite in2="hardAlpha" operator="out"/>
<feColorMatrix type="matrix" values="0 0 0 0 0 0 0 0 0 0 0 0 0 0 0 0 0 0 0.18 0"/>
<feBlend mode="normal" in2="BackgroundImageFix" result="effect1_dropShadow_4747_4088"/>
<feBlend mode="normal" in="SourceGraphic" in2="effect1_dropShadow_4747_4088" result="shape"/>
</filter>
</defs>
</svg>
