<svg width="17" height="14" viewBox="0 0 17 14" fill="none" xmlns="http://www.w3.org/2000/svg">
<path d="M7.62314 11.2213H9.28981V10.388H10.1231C10.3593 10.388 10.5573 10.308 10.7173 10.148C10.8773 9.98795 10.957 9.79018 10.9565 9.55462V7.05462C10.9565 6.81851 10.8765 6.62045 10.7165 6.46045C10.5565 6.30045 10.3587 6.22073 10.1231 6.22129H7.62314V5.38795H10.9565V3.72129H9.28981V2.88795H7.62314V3.72129H6.78981C6.5537 3.72129 6.35564 3.80129 6.19564 3.96129C6.03564 4.12129 5.95592 4.31906 5.95648 4.55462V7.05462C5.95648 7.29073 6.03648 7.48879 6.19648 7.64879C6.35648 7.80879 6.55425 7.88851 6.78981 7.88795H9.28981V8.72129H5.95648V10.388H7.62314V11.2213ZM1.83334 13.6666C1.37501 13.6666 0.982506 13.5033 0.65584 13.1766C0.329173 12.8499 0.166118 12.4577 0.166673 11.9999V1.99992C0.166673 1.54159 0.330007 1.14909 0.656673 0.82242C0.98334 0.495753 1.37556 0.332698 1.83334 0.333253H15.1667C15.625 0.333253 16.0175 0.496587 16.3442 0.823253C16.6708 1.14992 16.8339 1.54214 16.8333 1.99992V11.9999C16.8333 12.4583 16.67 12.8508 16.3433 13.1774C16.0167 13.5041 15.6244 13.6671 15.1667 13.6666H1.83334Z" fill="#FB6900"/>
</svg>
