<svg xmlns="http://www.w3.org/2000/svg" width="17.781" height="17.779" viewBox="0 0 17.781 17.779">
  <g id="edit" transform="translate(0 0)">
    <path id="Path_781" data-name="Path 781" d="M16.63,1.179a3.922,3.922,0,0,0-5.55,0L.9,11.351a.509.509,0,0,0-.144.292L.005,17.227a.507.507,0,0,0,.144.428.518.518,0,0,0,.36.152.411.411,0,0,0,.068,0l3.364-.455a.512.512,0,0,0-.136-1.015l-2.7.364L1.634,12.8l4.1,4.1a.518.518,0,0,0,.36.152.5.5,0,0,0,.36-.152L16.63,6.729a3.919,3.919,0,0,0,0-5.55Zm-5.353,1.25,1.709,1.709L3.7,13.424,1.99,11.715ZM6.1,15.818,4.427,14.147l9.286-9.286,1.671,1.671ZM16.1,5.8,12.008,1.713A2.9,2.9,0,0,1,16.1,5.8Z" transform="translate(0 -0.028)" fill="#fff"/>
  </g>
</svg>
