<svg width="130" height="14" viewBox="0 0 130 14" fill="none" xmlns="http://www.w3.org/2000/svg">
<path d="M2.76378 8.81009C7.14114 9.07504 11.4904 8.82373 15.8712 8.87505C19.7978 8.76182 24.8189 8.56483 29.2324 8.45108C35.6444 8.28582 41.0587 7.08519 46.9902 6.40041C49.2409 6.14056 51.0201 6.02623 53.521 5.69085C55.5653 5.4167 57.7725 5.38667 59.8484 5.06527C62.8181 4.60548 66.0348 4.02083 68.8943 3.03535C70.2886 2.55481 69.9674 3.46014 69.2991 4.44663C68.3272 5.88135 67.3434 7.40286 66.5475 8.9447C66.4366 9.1596 64.948 11.7114 64.9795 11.7074C65.9496 11.5828 67.1946 10.3 67.9567 9.7304C68.8994 9.02588 69.9089 8.5333 70.8837 7.89043C73.1498 6.39585 76.2138 5.86578 78.7715 5.09002C85.3657 3.09004 91.847 2.60361 98.7459 3.02119C101.604 3.19417 104.428 3.6104 107.243 4.03642C111.082 4.61741 114.669 5.48773 118.358 6.47754C120.77 7.12469 123.347 8.01665 125.534 9.18119C126.016 9.43767 126.436 9.70635 127.247 10.0413" stroke="#FFB703" stroke-width="4" stroke-linecap="round"/>
</svg>
