<svg width="267" height="168" viewBox="0 0 267 168" fill="none" xmlns="http://www.w3.org/2000/svg">
<path opacity="0.5" d="M0.500017 166.995C0.497731 167.272 0.719728 167.497 0.995861 167.5C1.27199 167.502 1.4977 167.28 1.49998 167.004L0.500017 166.995ZM1.97999 139.757L1.48277 139.704L1.97999 139.757ZM11.2324 96.079L10.76 95.9152L11.2324 96.079ZM40.0489 41.0205L39.6594 40.7069L40.0489 41.0205ZM91 2.5L90.8805 2.01449L91 2.5ZM159.344 70.3705L159.807 70.1828L159.344 70.3705ZM160.889 108.224L160.433 108.019L160.889 108.224ZM131.123 131.985L131.21 132.478L131.123 131.985ZM107.645 126.5L107.23 126.779L107.645 126.5ZM123.084 73.7947L122.787 73.3922L123.084 73.7947ZM203.18 79.4765L202.809 79.8119L203.18 79.4765ZM235.745 110.783L235.752 110.283L235.745 110.783ZM258.511 103.295L258.808 103.698L258.511 103.295ZM263.004 100.069L262.719 99.6571L262.708 99.6651L263.004 100.069ZM267 97.0764L261.335 98.1929L265.135 102.54L267 97.0764ZM1.52439 163.594C1.52623 163.318 1.30388 163.092 1.02774 163.091C0.751606 163.089 0.526256 163.311 0.524408 163.587L1.52439 163.594ZM0.590448 156.765C0.586227 157.041 0.806637 157.269 1.08275 157.273C1.35886 157.277 1.58611 157.057 1.59033 156.781L0.590448 156.765ZM1.76817 149.977C1.77911 149.701 1.56429 149.469 1.28837 149.458C1.01244 149.447 0.779893 149.662 0.768957 149.938L1.76817 149.977ZM1.16757 143.111C1.14559 143.387 1.35093 143.628 1.6262 143.65C1.90147 143.672 2.14242 143.466 2.1644 143.191L1.16757 143.111ZM2.89859 136.114C2.93207 135.84 2.73701 135.591 2.4629 135.557C2.1888 135.524 1.93945 135.719 1.90597 135.993L2.89859 136.114ZM2.93013 128.591C2.88792 128.863 3.07493 129.119 3.34783 129.161C3.62073 129.203 3.87617 129.016 3.91838 128.743L2.93013 128.591ZM5.17529 121.411C5.22645 121.139 5.04794 120.878 4.77658 120.827C4.50521 120.775 4.24376 120.954 4.1926 121.225L5.17529 121.411ZM5.70496 113.906C5.64424 114.175 5.81339 114.443 6.08278 114.504C6.35216 114.564 6.61976 114.395 6.68049 114.126L5.70496 113.906ZM8.45568 106.904C8.52701 106.638 8.36857 106.364 8.1018 106.292C7.83503 106.221 7.56094 106.379 7.48962 106.646L8.45568 106.904ZM9.58248 99.4656C9.49896 99.7289 9.64463 100.01 9.90784 100.093C10.171 100.177 10.4521 100.031 10.5356 99.7681L9.58248 99.4656ZM13.0022 92.5659C13.0956 92.306 12.9607 92.0196 12.7008 91.9262C12.4409 91.8328 12.1545 91.9678 12.0611 92.2276L13.0022 92.5659ZM14.8045 84.9018C14.7039 85.159 14.8309 85.449 15.0881 85.5495C15.3453 85.6501 15.6353 85.5231 15.7358 85.2659L14.8045 84.9018ZM18.6924 78.0572C18.8016 77.8036 18.6846 77.5094 18.431 77.4002C18.1774 77.2909 17.8833 77.4079 17.774 77.6615L18.6924 78.0572ZM21.013 70.5344C20.8936 70.7834 20.9986 71.082 21.2476 71.2015C21.4965 71.3209 21.7952 71.2159 21.9146 70.9669L21.013 70.5344ZM25.4394 64.0253C25.5702 63.782 25.479 63.4789 25.2358 63.3481C24.9926 63.2174 24.6894 63.3085 24.5587 63.5518L25.4394 64.0253ZM28.4381 56.7468C28.2953 56.9831 28.3711 57.2905 28.6074 57.4333C28.8438 57.5761 29.1512 57.5003 29.294 57.264L28.4381 56.7468ZM33.4932 50.713C33.6484 50.4846 33.589 50.1736 33.3606 50.0184C33.1322 49.8632 32.8212 49.9226 32.666 50.151L33.4932 50.713ZM37.2432 43.7916C37.0758 44.0113 37.1183 44.325 37.3379 44.4923C37.5576 44.6597 37.8713 44.6172 38.0387 44.3976L37.2432 43.7916ZM43.0093 38.2152C43.1874 38.0041 43.1607 37.6887 42.9496 37.5106C42.7385 37.3325 42.4231 37.3593 42.245 37.5703L43.0093 38.2152ZM47.6326 31.4752C47.445 31.6778 47.457 31.9942 47.6596 32.1818C47.8621 32.3695 48.1785 32.3575 48.3662 32.1549L47.6326 31.4752ZM54.0078 26.36C54.2054 26.1671 54.2093 25.8505 54.0164 25.6529C53.8236 25.4553 53.507 25.4514 53.3094 25.6443L54.0078 26.36ZM59.2921 20.1233C59.0837 20.3045 59.0618 20.6203 59.243 20.8287C59.4243 21.037 59.7401 21.059 59.9484 20.8777L59.2921 20.1233ZM66.2131 15.7792C66.4332 15.6125 66.4765 15.2989 66.3098 15.0788C66.1431 14.8586 65.8294 14.8153 65.6093 14.9821L66.2131 15.7792ZM72.2999 10.324C72.0667 10.4719 71.9975 10.7808 72.1454 11.014C72.2933 11.2473 72.6022 11.3164 72.8354 11.1685L72.2999 10.324ZM79.848 7.20185C80.0955 7.07924 80.1966 6.77926 80.074 6.53183C79.9514 6.2844 79.6515 6.18321 79.404 6.30582L79.848 7.20185ZM86.9483 3.16033C86.6866 3.24825 86.5456 3.53173 86.6335 3.79351C86.7215 4.05528 87.005 4.19621 87.2667 4.10829L86.9483 3.16033ZM94.7678 2.26566C95.0409 2.2253 95.2297 1.97112 95.1893 1.69795C95.1489 1.42477 94.8948 1.23604 94.6216 1.2764L94.7678 2.26566ZM102.237 0.955463C101.961 0.937031 101.723 1.14545 101.705 1.42097C101.686 1.6965 101.895 1.9348 102.17 1.95323L102.237 0.955463ZM109.442 3.27329C109.707 3.35267 109.985 3.2026 110.065 2.93812C110.144 2.67363 109.994 2.39487 109.73 2.31549L109.442 3.27329ZM116.748 5.25732C116.506 5.12567 116.202 5.21572 116.07 5.45846C115.939 5.7012 116.029 6.00471 116.272 6.13636L116.748 5.25732ZM122.467 10.2349C122.685 10.4054 122.999 10.3674 123.169 10.1501C123.34 9.93286 123.302 9.61856 123.085 9.44813L122.467 10.2349ZM128.722 14.5278C128.529 14.3305 128.212 14.3272 128.015 14.5204C127.817 14.7136 127.814 15.0301 128.007 15.2274L128.722 14.5278ZM132.946 20.83C133.119 21.0457 133.433 21.0807 133.649 20.9082C133.865 20.7357 133.9 20.4211 133.727 20.2054L132.946 20.83ZM138.207 26.2955C138.052 26.0672 137.741 26.0079 137.512 26.1631C137.284 26.3184 137.225 26.6294 137.38 26.8577L138.207 26.2955ZM141.395 33.1851C141.536 33.4225 141.843 33.5006 142.08 33.3595C142.318 33.2184 142.396 32.9116 142.255 32.6742L141.395 33.1851ZM145.948 39.258C145.819 39.0141 145.516 38.9214 145.272 39.0509C145.028 39.1804 144.936 39.4831 145.065 39.727L145.948 39.258ZM148.453 46.4243C148.573 46.673 148.872 46.7772 149.121 46.6571C149.369 46.5369 149.474 46.238 149.353 45.9893L148.453 46.4243ZM152.526 52.8251C152.413 52.5729 152.117 52.4599 151.865 52.5726C151.613 52.6853 151.5 52.981 151.613 53.2331L152.526 52.8251ZM154.602 60.1329C154.709 60.3874 155.002 60.5069 155.257 60.3997C155.511 60.2925 155.631 59.9993 155.523 59.7448L154.602 60.1329ZM158.398 66.7085C158.294 66.4527 158.003 66.3296 157.747 66.4337C157.491 66.5377 157.368 66.8294 157.472 67.0852L158.398 66.7085ZM160.577 75.0989C160.666 75.3603 160.95 75.5001 161.212 75.411C161.473 75.322 161.613 75.0379 161.524 74.7765L160.577 75.0989ZM164.01 84.2763C163.962 84.0043 163.703 83.8226 163.431 83.8704C163.159 83.9182 162.977 84.1774 163.025 84.4494L164.01 84.2763ZM163.715 94.0513C163.704 94.3272 163.918 94.5599 164.194 94.571C164.47 94.5821 164.703 94.3674 164.714 94.0915L163.715 94.0513ZM163.083 103.808C163.163 103.544 163.014 103.265 162.75 103.184C162.486 103.104 162.207 103.253 162.126 103.517L163.083 103.808ZM158.139 112.308C157.993 112.542 158.064 112.851 158.299 112.997C158.533 113.143 158.842 113.071 158.988 112.836L158.139 112.308ZM152.773 120.623C152.968 120.427 152.968 120.111 152.772 119.916C152.577 119.72 152.26 119.721 152.065 119.916L152.773 120.623ZM144.483 126.036C144.251 126.185 144.184 126.494 144.333 126.727C144.482 126.959 144.791 127.026 145.024 126.877L144.483 126.036ZM136.058 131.233C136.319 131.145 136.46 130.861 136.372 130.6C136.284 130.338 136 130.197 135.739 130.285L136.058 131.233ZM127.931 131.927C127.657 131.956 127.458 132.203 127.487 132.477C127.516 132.752 127.762 132.951 128.036 132.922L127.931 131.927ZM121.626 133.137C121.901 133.15 122.135 132.937 122.148 132.661C122.16 132.385 121.947 132.151 121.671 132.138L121.626 133.137ZM115.527 131.202C115.262 131.126 114.985 131.28 114.909 131.545C114.833 131.811 114.987 132.087 115.252 132.163L115.527 131.202ZM109.447 129.227C109.659 129.404 109.974 129.376 110.151 129.164C110.328 128.952 110.3 128.637 110.088 128.46L109.447 129.227ZM106.201 123.022C106.079 122.774 105.779 122.673 105.532 122.795C105.284 122.917 105.183 123.217 105.305 123.465L106.201 123.022ZM102.887 116.21C102.938 116.481 103.2 116.66 103.471 116.609C103.742 116.557 103.921 116.296 103.87 116.025L102.887 116.21ZM103.421 108.644C103.437 108.368 103.227 108.132 102.951 108.116C102.675 108.1 102.439 108.31 102.423 108.586L103.421 108.644ZM103.659 101.064C103.588 101.331 103.746 101.605 104.013 101.676C104.28 101.747 104.554 101.588 104.625 101.322L103.659 101.064ZM107.156 94.3225C107.271 94.0713 107.16 93.7747 106.909 93.66C106.658 93.5453 106.361 93.656 106.246 93.9072L107.156 94.3225ZM109.906 87.2454C109.756 87.4772 109.823 87.7868 110.055 87.9367C110.287 88.0867 110.596 88.0203 110.746 87.7884L109.906 87.2454ZM115.219 81.8173C115.399 81.6082 115.376 81.2925 115.167 81.1122C114.958 80.9318 114.642 80.9552 114.461 81.1643L115.219 81.8173ZM119.819 75.7733C119.61 75.9544 119.588 76.2702 119.769 76.4787C119.951 76.6871 120.266 76.7093 120.475 76.5281L119.819 75.7733ZM126.385 72.0949C126.615 71.9422 126.677 71.6319 126.525 71.4018C126.372 71.1717 126.062 71.1089 125.832 71.2616L126.385 72.0949ZM132.22 67.4779C131.975 67.6061 131.881 67.9083 132.009 68.1529C132.137 68.3974 132.439 68.4918 132.684 68.3636L132.22 67.4779ZM139.34 65.3188C139.597 65.2179 139.723 64.9277 139.622 64.6707C139.522 64.4136 139.231 64.2871 138.974 64.388L139.34 65.3188ZM146.031 62.0692C145.764 62.1402 145.605 62.414 145.676 62.6809C145.747 62.9478 146.021 63.1066 146.288 63.0357L146.031 62.0692ZM153.455 61.5832C153.728 61.5449 153.919 61.2921 153.881 61.0186C153.842 60.7452 153.59 60.5545 153.316 60.5928L153.455 61.5832ZM160.729 60.0255C160.453 60.029 160.232 60.2557 160.236 60.5318C160.239 60.8079 160.466 61.0289 160.742 61.0254L160.729 60.0255ZM168.037 61.41C168.311 61.4427 168.56 61.247 168.593 60.9728C168.625 60.6986 168.43 60.4498 168.155 60.417L168.037 61.41ZM175.465 61.7934C175.198 61.7241 174.925 61.8845 174.856 62.1518C174.787 62.4191 174.947 62.692 175.214 62.7614L175.465 61.7934ZM182.142 65.0722C182.397 65.1772 182.689 65.0553 182.794 64.7999C182.899 64.5445 182.777 64.2523 182.522 64.1473L182.142 65.0722ZM189.193 67.433C188.954 67.2946 188.648 67.3762 188.51 67.6152C188.371 67.8542 188.453 68.1601 188.692 68.2984L189.193 67.433ZM194.763 72.3648C194.982 72.5329 195.296 72.4917 195.464 72.2726C195.632 72.0536 195.591 71.7397 195.372 71.5715L194.763 72.3648ZM200.976 76.4541C200.779 76.2604 200.462 76.263 200.269 76.4598C200.075 76.6566 200.077 76.9732 200.274 77.1669L200.976 76.4541ZM205.271 82.835C205.435 83.0569 205.748 83.1035 205.97 82.9391C206.192 82.7746 206.239 82.4615 206.074 82.2396L205.271 82.835ZM210.423 88.8906C210.281 88.6538 209.973 88.577 209.737 88.7191C209.5 88.8611 209.423 89.1683 209.565 89.4051L210.423 88.8906ZM213.628 96.1909C213.774 96.4253 214.082 96.4968 214.316 96.3508C214.551 96.2047 214.622 95.8963 214.476 95.662L213.628 96.1909ZM219.003 102.04C218.825 101.829 218.51 101.803 218.299 101.981C218.088 102.16 218.061 102.475 218.24 102.686L219.003 102.04ZM224.219 108.03C224.453 108.177 224.762 108.107 224.909 107.874C225.056 107.64 224.987 107.331 224.753 107.184L224.219 108.03ZM231.896 109.93C231.624 109.882 231.364 110.063 231.316 110.335C231.268 110.607 231.449 110.867 231.721 110.915L231.896 109.93ZM238.827 111.236C239.103 111.223 239.316 110.989 239.303 110.713C239.29 110.438 239.056 110.224 238.78 110.237L238.827 111.236ZM244.749 109.454C244.48 109.515 244.311 109.783 244.373 110.052C244.434 110.322 244.702 110.49 244.971 110.428L244.749 109.454ZM250.851 108.447C251.103 108.334 251.215 108.038 251.102 107.786C250.989 107.534 250.693 107.422 250.441 107.535L250.851 108.447ZM255.724 104.62C255.493 104.771 255.427 105.08 255.578 105.312C255.728 105.543 256.038 105.609 256.27 105.458L255.724 104.62ZM259.922 102.889C260.146 102.728 260.198 102.416 260.037 102.191C259.876 101.967 259.563 101.916 259.339 102.077L259.922 102.889ZM261.592 100.472C261.368 100.633 261.316 100.945 261.476 101.17C261.637 101.394 261.949 101.446 262.174 101.285L261.592 100.472ZM264.318 99.7758C264.545 99.6197 264.604 99.3085 264.447 99.0807C264.291 98.8529 263.98 98.7947 263.752 98.9508L264.318 99.7758ZM265.749 97.5064C265.533 97.678 265.496 97.9925 265.668 98.2088C265.84 98.4252 266.154 98.4614 266.37 98.2898L265.749 97.5064ZM1.49998 167.004C1.50939 165.867 1.51679 164.73 1.52439 163.594L0.524408 163.587C0.516806 164.724 0.509419 165.86 0.500017 166.995L1.49998 167.004ZM1.59033 156.781C1.62504 154.51 1.67839 152.242 1.76817 149.977L0.768957 149.938C0.678763 152.213 0.625236 154.49 0.590448 156.765L1.59033 156.781ZM2.1644 143.191C2.25444 142.063 2.35798 140.936 2.47721 139.809L1.48277 139.704C1.36256 140.84 1.25824 141.975 1.16757 143.111L2.1644 143.191ZM2.47721 139.809C2.60658 138.587 2.74701 137.355 2.89859 136.114L1.90597 135.993C1.75374 137.239 1.61271 138.477 1.48277 139.704L2.47721 139.809ZM3.91838 128.743C4.29514 126.308 4.7139 123.858 5.17529 121.411L4.1926 121.225C3.72911 123.684 3.30851 126.144 2.93013 128.591L3.91838 128.743ZM6.68049 114.126C7.2286 111.694 7.82012 109.282 8.45568 106.904L7.48962 106.646C6.85045 109.037 6.2558 111.462 5.70496 113.906L6.68049 114.126ZM10.5356 99.7681C10.9133 98.578 11.303 97.4021 11.7048 96.2427L10.76 95.9152C10.3551 97.0832 9.96267 98.2675 9.58248 99.4656L10.5356 99.7681ZM11.7048 96.2427C12.1326 95.0084 12.5648 93.7829 13.0022 92.5659L12.0611 92.2276C11.6223 93.4485 11.189 94.6776 10.76 95.9152L11.7048 96.2427ZM15.7358 85.2659C16.6879 82.8306 17.6706 80.4286 18.6924 78.0572L17.774 77.6615C16.7473 80.0443 15.7603 82.4569 14.8045 84.9018L15.7358 85.2659ZM21.9146 70.9669C23.0379 68.6254 24.2099 66.3124 25.4394 64.0253L24.5587 63.5518C23.3215 65.8531 22.1425 68.1798 21.013 70.5344L21.9146 70.9669ZM29.294 57.264C30.6266 55.059 32.0236 52.8762 33.4932 50.713L32.666 50.151C31.1862 52.3292 29.7797 54.527 28.4381 56.7468L29.294 57.264ZM38.0387 44.3976C38.8194 43.3726 39.619 42.3516 40.4383 41.3341L39.6594 40.7069C38.8345 41.7314 38.0294 42.7595 37.2432 43.7916L38.0387 44.3976ZM40.4383 41.3341C41.2639 40.3089 42.1216 39.2675 43.0093 38.2152L42.245 37.5703C41.3522 38.6285 40.4897 39.6759 39.6594 40.7069L40.4383 41.3341ZM48.3662 32.1549C50.1647 30.2138 52.0491 28.2714 54.0078 26.36L53.3094 25.6443C51.3379 27.5683 49.4417 29.5227 47.6326 31.4752L48.3662 32.1549ZM59.9484 20.8777C61.9814 19.1092 64.0732 17.3999 66.2131 15.7792L65.6093 14.9821C63.4498 16.6176 61.3405 18.3413 59.2921 20.1233L59.9484 20.8777ZM72.8354 11.1685C75.138 9.70843 77.4795 8.3755 79.848 7.20185L79.404 6.30582C77.0007 7.49668 74.6287 8.84726 72.2999 10.324L72.8354 11.1685ZM87.2667 4.10829C88.5477 3.67806 89.8325 3.30222 91.1195 2.98551L90.8805 2.01449C89.5653 2.33815 88.254 2.72181 86.9483 3.16033L87.2667 4.10829ZM91.1195 2.98551C92.3556 2.6813 93.5716 2.44241 94.7678 2.26566L94.6216 1.2764C93.3934 1.45788 92.1465 1.70293 90.8805 2.01449L91.1195 2.98551ZM102.17 1.95323C104.686 2.12155 107.109 2.57297 109.442 3.27329L109.73 2.31549C107.326 1.59422 104.83 1.12892 102.237 0.955463L102.17 1.95323ZM116.272 6.13636C118.418 7.30049 120.482 8.67759 122.467 10.2349L123.085 9.44813C121.06 7.85983 118.949 6.4509 116.748 5.25732L116.272 6.13636ZM128.007 15.2274C129.719 16.9759 131.365 18.8525 132.946 20.83L133.727 20.2054C132.127 18.2049 130.46 16.3029 128.722 14.5278L128.007 15.2274ZM137.38 26.8577C138.774 28.908 140.111 31.0252 141.395 33.1851L142.255 32.6742C140.962 30.4989 139.613 28.3644 138.207 26.2955L137.38 26.8577ZM145.065 39.727C146.245 41.9492 147.374 44.1897 148.453 46.4243L149.353 45.9893C148.269 43.7447 147.135 41.4928 145.948 39.258L145.065 39.727ZM151.613 53.2331C152.661 55.5782 153.656 57.8879 154.602 60.1329L155.523 59.7448C154.576 57.4946 153.578 55.1781 152.526 52.8251L151.613 53.2331ZM157.472 67.0852C157.957 68.2767 158.426 69.436 158.88 70.5582L159.807 70.1828C159.353 69.061 158.883 67.9008 158.398 66.7085L157.472 67.0852ZM158.88 70.5582C159.492 72.0666 160.06 73.5806 160.577 75.0989L161.524 74.7765C161 73.2385 160.425 71.7068 159.807 70.1828L158.88 70.5582ZM163.025 84.4494C163.587 87.6464 163.844 90.8503 163.715 94.0513L164.714 94.0915C164.846 90.8101 164.582 87.5342 164.01 84.2763L163.025 84.4494ZM162.126 103.517C161.669 105.02 161.107 106.521 160.433 108.019L161.345 108.43C162.037 106.893 162.613 105.352 163.083 103.808L162.126 103.517ZM160.433 108.019C159.777 109.477 159.008 110.911 158.139 112.308L158.988 112.836C159.879 111.404 160.67 109.93 161.345 108.43L160.433 108.019ZM152.065 119.916C149.765 122.219 147.204 124.289 144.483 126.036L145.024 126.877C147.805 125.091 150.422 122.976 152.773 120.623L152.065 119.916ZM135.739 130.285C134.18 130.81 132.608 131.217 131.037 131.493L131.21 132.478C132.834 132.192 134.455 131.772 136.058 131.233L135.739 130.285ZM131.037 131.493C130.138 131.651 129.086 131.806 127.931 131.927L128.036 132.922C129.215 132.797 130.29 132.64 131.21 132.478L131.037 131.493ZM121.671 132.138C119.601 132.045 117.495 131.765 115.527 131.202L115.252 132.163C117.313 132.753 119.5 133.041 121.626 133.137L121.671 132.138ZM110.088 128.46C109.321 127.819 108.637 127.077 108.059 126.22L107.23 126.779C107.863 127.719 108.612 128.53 109.447 129.227L110.088 128.46ZM108.059 126.22C107.355 125.176 106.738 124.108 106.201 123.022L105.305 123.465C105.861 124.591 106.501 125.697 107.23 126.779L108.059 126.22ZM103.87 116.025C103.412 113.6 103.276 111.127 103.421 108.644L102.423 108.586C102.274 111.144 102.413 113.699 102.887 116.21L103.87 116.025ZM104.625 101.322C105.258 98.9489 106.114 96.604 107.156 94.3225L106.246 93.9072C105.183 96.2355 104.308 98.633 103.659 101.064L104.625 101.322ZM110.746 87.7884C112.104 85.6877 113.608 83.6858 115.219 81.8173L114.461 81.1643C112.821 83.0671 111.29 85.1057 109.906 87.2454L110.746 87.7884ZM120.475 76.5281C121.426 75.7014 122.397 74.9227 123.381 74.1971L122.787 73.3922C121.781 74.1342 120.79 74.9297 119.819 75.7733L120.475 76.5281ZM123.381 74.1971C124.372 73.4667 125.373 72.7659 126.385 72.0949L125.832 71.2616C124.806 71.9418 123.791 72.6521 122.787 73.3922L123.381 74.1971ZM132.684 68.3636C134.873 67.2161 137.095 66.2006 139.34 65.3188L138.974 64.388C136.695 65.2833 134.44 66.3139 132.22 67.4779L132.684 68.3636ZM146.288 63.0357C148.666 62.4035 151.059 61.9187 153.455 61.5832L153.316 60.5928C150.88 60.934 148.448 61.4269 146.031 62.0692L146.288 63.0357ZM160.742 61.0254C163.187 60.9943 165.622 61.1218 168.037 61.41L168.155 60.417C165.697 60.1236 163.217 59.9939 160.729 60.0255L160.742 61.0254ZM175.214 62.7614C177.56 63.3699 179.873 64.1394 182.142 65.0722L182.522 64.1473C180.211 63.1971 177.855 62.4132 175.465 61.7934L175.214 62.7614ZM188.692 68.2984C190.77 69.5012 192.797 70.8559 194.763 72.3648L195.372 71.5715C193.372 70.0365 191.309 68.6576 189.193 67.433L188.692 68.2984ZM200.274 77.1669C201.135 78.0141 201.98 78.8957 202.809 79.8119L203.55 79.1411C202.709 78.2107 201.85 77.3151 200.976 76.4541L200.274 77.1669ZM202.809 79.8119C203.673 80.7676 204.489 81.7803 205.271 82.835L206.074 82.2396C205.277 81.1636 204.44 80.125 203.55 79.1411L202.809 79.8119ZM209.565 89.4051C210.918 91.6605 212.247 93.9758 213.628 96.1909L214.476 95.662C213.1 93.4544 211.79 91.1707 210.423 88.8906L209.565 89.4051ZM218.24 102.686C219.99 104.756 221.941 106.591 224.219 108.03L224.753 107.184C222.582 105.814 220.706 104.054 219.003 102.04L218.24 102.686ZM231.721 110.915C232.982 111.138 234.319 111.265 235.739 111.283L235.752 110.283C234.383 110.265 233.101 110.144 231.896 109.93L231.721 110.915ZM235.739 111.283C236.785 111.297 237.812 111.284 238.827 111.236L238.78 110.237C237.788 110.284 236.781 110.297 235.752 110.283L235.739 111.283ZM244.971 110.428C246.906 109.987 248.848 109.347 250.851 108.447L250.441 107.535C248.498 108.408 246.619 109.026 244.749 109.454L244.971 110.428ZM256.27 105.458C257.099 104.919 257.944 104.333 258.808 103.698L258.215 102.892C257.366 103.517 256.536 104.092 255.724 104.62L256.27 105.458ZM258.808 103.698C259.186 103.42 259.556 103.152 259.922 102.889L259.339 102.077C258.971 102.341 258.597 102.611 258.215 102.892L258.808 103.698ZM262.174 101.285C262.544 101.021 262.918 100.751 263.299 100.472L262.708 99.6651C262.331 99.9416 261.96 100.209 261.592 100.472L262.174 101.285ZM263.288 100.48C263.597 100.266 263.944 100.032 264.318 99.7758L263.752 98.9508C263.387 99.2012 263.029 99.443 262.719 99.6572L263.288 100.48Z" fill="white"/>
</svg>
