<svg width="323" height="275" viewBox="0 0 323 275" fill="none" xmlns="http://www.w3.org/2000/svg">
<circle cx="163" cy="85" r="85" fill="url(#paint0_linear_4747_4418)"/>
<path d="M183.443 119.929V67.0104H167.678L157.478 57.6438H203.588L215.488 67.0104H194.58V119.929H183.443Z" fill="#1E1410"/>
<path fill-rule="evenodd" clip-rule="evenodd" d="M110.512 90.359C110.512 110.387 121.735 123.034 139.993 123.034C143.326 123.034 146.401 122.607 149.243 121.798L142.906 113.191C141.964 113.336 140.993 113.409 139.993 113.409C128.771 113.409 121.864 104.344 121.864 90.359V90.2727C121.864 76.2012 128.943 67.2662 139.993 67.2662C151.043 67.2662 158.079 76.2012 158.079 90.2727V90.359C158.079 97.0893 156.453 102.668 153.531 106.674L160.135 115.643C166.087 109.965 169.431 101.233 169.431 90.359V90.2727C169.431 70.2014 158.122 57.6406 139.993 57.6406C121.908 57.6406 110.512 70.2014 110.512 90.2727V90.359ZM158.813 116.819L152.338 108.143L147.763 101.97H136.886L144.914 112.761L151.173 121.178L156.223 127.955H167.1L158.813 116.819Z" fill="#1E1410"/>
<path d="M83.6694 210.515C77.9653 210.515 74.3086 206.794 74.3086 200.716V200.691C74.3086 194.639 77.9911 190.905 83.6694 190.905C89.3476 190.905 93.0173 194.639 93.0173 200.691V200.716C93.0173 203.974 91.9614 206.549 90.1202 208.249L92.6954 211.584H88.06L86.8883 210.064C85.9098 210.361 84.8282 210.515 83.6694 210.515ZM83.6694 206.06C83.708 206.06 83.7466 206.06 83.7981 206.06L81.5062 203.099H86.1415L86.7982 203.948C87.2231 203.086 87.4549 201.991 87.4549 200.716V200.691C87.4549 197.446 85.9098 195.36 83.6694 195.36C81.4161 195.36 79.871 197.446 79.871 200.691V200.716C79.871 203.974 81.4161 206.06 83.6694 206.06ZM104.554 210.515C99.6484 210.515 96.3779 207.798 96.3779 203.575V191.42H101.837V203.034C101.837 204.978 102.79 206.06 104.567 206.06C106.344 206.06 107.297 204.978 107.297 203.034V191.42H112.756V203.575C112.756 207.772 109.524 210.515 104.554 210.515ZM125.465 210.515C119.761 210.515 116.104 206.794 116.104 200.716V200.691C116.104 194.639 119.786 190.905 125.465 190.905C131.143 190.905 134.812 194.639 134.812 200.691V200.716C134.812 206.794 131.143 210.515 125.465 210.515ZM125.465 206.06C127.705 206.06 129.25 203.974 129.25 200.716V200.691C129.25 197.446 127.705 195.36 125.465 195.36C123.211 195.36 121.666 197.446 121.666 200.691V200.716C121.666 203.974 123.211 206.06 125.465 206.06ZM141.843 210V195.746H136.679V191.42H152.465V195.746H147.302V210H141.843ZM155.762 210V191.42H168.869V195.746H161.221V198.759H168.393V202.674H161.221V205.674H168.869V210H155.762ZM183.226 210V195.746H178.063V191.42H193.849V195.746H188.685V210H183.226ZM197.145 210V191.42H202.604V198.476H209.145V191.42H214.604V210H209.145V202.802H202.604V210H197.145ZM217.695 210L223.759 191.42H230.609L236.674 210H230.931L229.991 206.305H224.377L223.437 210H217.695ZM227.055 195.849L225.369 202.455H229L227.313 195.849H227.055ZM242.12 210V195.746H236.957V191.42H252.743V195.746H247.58V210H242.12ZM122.761 241V224.506H116.773V222.42H131.066V224.506H125.078V241H122.761ZM141.675 241.438C136.345 241.438 133.151 237.652 133.151 231.716V231.691C133.151 225.729 136.422 221.982 141.675 221.982C146.954 221.982 150.199 225.742 150.199 231.691V231.716C150.199 237.639 146.98 241.438 141.675 241.438ZM141.675 239.3C145.487 239.3 147.83 236.313 147.83 231.716V231.691C147.83 227.055 145.474 224.12 141.675 224.12C137.89 224.12 135.521 227.055 135.521 231.691V231.716C135.521 236.313 137.813 239.3 141.675 239.3ZM154.216 241V222.42H160.59C166.101 222.42 169.359 225.858 169.359 231.691V231.716C169.359 237.562 166.114 241 160.59 241H154.216ZM156.534 238.914H160.436C164.582 238.914 166.989 236.262 166.989 231.742V231.716C166.989 227.184 164.556 224.506 160.436 224.506H156.534V238.914ZM170.994 241L177.844 222.42H180.136L186.986 241H184.552L182.685 235.682H175.294L173.427 241H170.994ZM178.887 225.42L175.977 233.712H182.003L179.093 225.42H178.887ZM193.424 241V233.004L186.831 222.42H189.471L194.479 230.674H194.685L199.694 222.42H202.334L195.741 233.004V241H193.424ZM206.248 234.82L206.029 222.407H208.604L208.385 234.82H206.248ZM207.33 241.232C206.287 241.232 205.54 240.485 205.54 239.442C205.54 238.386 206.287 237.639 207.33 237.639C208.373 237.639 209.106 238.386 209.106 239.442C209.106 240.485 208.373 241.232 207.33 241.232Z" fill="#FB6900"/>
<path d="M4.91822 257.226H6.06015L3.97104 262.263H2.28027L4.91822 257.226ZM8.30861 257.226H9.45054L7.53847 262.263H5.8477L8.30861 257.226ZM20.5689 261.219V261.201C20.4361 259.492 19.1437 258.404 17.2405 258.404C14.452 258.404 12.2832 261.245 12.2832 264.928C12.2832 267.327 13.6288 268.823 15.7622 268.823C17.4883 268.823 18.9224 267.955 19.3827 266.636H21.0646C20.4273 268.911 18.3558 270.301 15.5851 270.301C12.6108 270.301 10.6279 268.23 10.6279 265.096C10.6279 260.387 13.496 256.925 17.3644 256.925C20.1351 256.925 22.1888 258.731 22.1888 261.166V261.219H20.5689ZM28.2437 260.289C30.5542 260.289 32.1298 261.883 32.1298 264.22C32.1298 267.654 29.9965 270.168 27.0841 270.168C24.7737 270.168 23.1803 268.557 23.1803 266.22C23.1803 262.75 25.2783 260.289 28.2437 260.289ZM27.2788 268.796C29.0581 268.796 30.501 266.902 30.501 264.582C30.501 262.768 29.5981 261.661 28.1021 261.661C26.1369 261.661 24.8002 263.423 24.8002 266.034C24.8002 267.69 25.7917 268.796 27.2788 268.796ZM33.4223 270L35.4494 260.457H36.9277L36.6268 261.883H36.7684C37.3615 261.033 38.2379 260.289 39.6631 260.289C41.4955 260.289 42.602 261.644 42.602 263.157C42.602 263.494 42.5577 263.865 42.4781 264.255L41.2565 270H39.7073L40.8758 264.52C40.9466 264.175 40.9909 263.865 40.9909 263.591C40.9909 262.44 40.2916 261.661 39.0168 261.661C37.5474 261.661 36.5205 262.732 36.2107 264.175L34.9714 270H33.4223ZM44.0272 270L46.0543 260.457H47.5327L47.2317 261.883H47.3733C47.9664 261.033 48.8428 260.289 50.268 260.289C52.1004 260.289 53.2069 261.644 53.2069 263.157C53.2069 263.494 53.1626 263.865 53.083 264.255L51.8614 270H50.3122L51.4807 264.52C51.5516 264.175 51.5958 263.865 51.5958 263.591C51.5958 262.44 50.8965 261.661 49.6218 261.661C48.1523 261.661 47.1255 262.732 46.8156 264.175L45.5763 270H44.0272ZM59.0139 270.168C56.8806 270.168 55.1367 268.752 55.1367 266.176C55.1367 262.653 57.1904 260.289 60.1028 260.289C62.068 260.289 63.7233 261.67 63.7322 264.149C63.7322 264.52 63.679 265.22 63.6171 265.583H56.7389C56.7301 265.742 56.7212 265.901 56.7212 266.061C56.7212 268.026 57.9605 268.778 59.1113 268.778C60.3683 268.778 61.1119 268.3 61.5103 267.566H63.1302C62.7407 269.035 61.2358 270.168 59.0139 270.168ZM56.9425 264.352H62.1211C62.1299 264.299 62.1388 264.104 62.1388 263.954C62.1388 262.697 61.3952 261.635 59.9611 261.635C58.4917 261.635 57.3851 262.724 56.9425 264.352ZM70.5749 260.289C72.4604 260.289 73.9387 261.405 74.2309 262.963C74.2574 263.095 74.2663 263.237 74.2751 263.379H72.7171C72.6198 262.387 71.6637 261.661 70.451 261.661C68.5566 261.661 67.1403 263.502 67.1403 265.919C67.1403 267.698 68.0609 268.778 69.5303 268.778C70.7077 268.778 71.6018 268.23 71.9647 267.274H73.5492C73.1597 269.009 71.4955 270.168 69.3976 270.168C67.0783 270.168 65.538 268.566 65.538 266.123C65.538 262.777 67.6625 260.289 70.5749 260.289ZM78.6747 270.071C77.3468 270.071 76.3908 269.433 76.3908 268.141C76.3908 267.893 76.4262 267.619 76.4882 267.318L77.6832 261.732H76.081L76.3465 260.457H77.9576L78.4622 257.988H80.0113L79.4891 260.457H81.6578L81.3746 261.732H79.2235L78.1347 266.849C78.0639 267.185 78.0284 267.468 78.0284 267.707C78.0284 268.433 78.4711 268.734 79.2323 268.734C79.5068 268.734 79.6927 268.725 79.8963 268.699L79.6218 269.991C79.3563 270.053 79.011 270.071 78.6747 270.071ZM85.3404 258.616C84.7561 258.616 84.2781 258.138 84.2781 257.554C84.2781 256.97 84.7561 256.492 85.3404 256.492C85.9246 256.492 86.4026 256.97 86.4026 257.554C86.4026 258.138 85.9246 258.616 85.3404 258.616ZM81.9677 270L83.9948 260.457H85.5174L83.4902 270H81.9677ZM86.4292 270L88.4563 260.457H89.9346L89.6337 261.883H89.7753C90.3684 261.033 91.2448 260.289 92.67 260.289C94.5024 260.289 95.6089 261.644 95.6089 263.157C95.6089 263.494 95.5646 263.865 95.485 264.255L94.2634 270H92.7142L93.8827 264.52C93.9535 264.175 93.9978 263.865 93.9978 263.591C93.9978 262.44 93.2985 261.661 92.0238 261.661C90.5543 261.661 89.5274 262.732 89.2176 264.175L87.9783 270H86.4292ZM100.602 273.656C98.3885 273.656 96.8482 272.39 96.7331 270.938H98.3531C98.4858 271.7 99.3268 272.337 100.725 272.337C102.434 272.337 103.346 271.443 103.638 270.195L104.054 268.424H103.912C103.222 269.389 102.23 269.858 101.026 269.858C99.0878 269.858 97.5564 268.318 97.5564 266.043C97.5564 262.644 99.6012 260.289 102.301 260.289C103.647 260.289 104.904 261.095 105.284 262.219H105.426L105.798 260.457H107.276L105.116 270.46C104.7 272.408 103.08 273.656 100.602 273.656ZM101.496 268.513C103.417 268.513 104.868 266.822 104.868 264.299C104.868 262.679 103.912 261.661 102.416 261.661C100.522 261.661 99.1498 263.281 99.1498 265.813C99.1498 267.513 100.053 268.513 101.496 268.513ZM116.597 270.071C115.27 270.071 114.314 269.433 114.314 268.141C114.314 267.893 114.349 267.619 114.411 267.318L115.606 261.732H114.004L114.269 260.457H115.88L116.385 257.988H117.934L117.412 260.457H119.581L119.297 261.732H117.146L116.057 266.849C115.987 267.185 115.951 267.468 115.951 267.707C115.951 268.433 116.394 268.734 117.155 268.734C117.43 268.734 117.615 268.725 117.819 268.699L117.545 269.991C117.279 270.053 116.934 270.071 116.597 270.071ZM119.873 270L122.723 256.669H124.272L123.148 261.883H123.29C123.883 261.033 124.688 260.289 126.149 260.289C128.017 260.289 129.123 261.644 129.123 263.157C129.123 263.494 129.079 263.865 128.999 264.255L127.778 270H126.229L127.397 264.52C127.468 264.175 127.512 263.865 127.512 263.591C127.512 262.44 126.813 261.661 125.503 261.661C123.998 261.661 122.971 262.732 122.661 264.175L121.422 270H119.873ZM134.93 270.168C132.797 270.168 131.053 268.752 131.053 266.176C131.053 262.653 133.107 260.289 136.019 260.289C137.984 260.289 139.64 261.67 139.649 264.149C139.649 264.52 139.595 265.22 139.533 265.583H132.655C132.646 265.742 132.638 265.901 132.638 266.061C132.638 268.026 133.877 268.778 135.028 268.778C136.285 268.778 137.028 268.3 137.427 267.566H139.047C138.657 269.035 137.152 270.168 134.93 270.168ZM132.859 264.352H138.037C138.046 264.299 138.055 264.104 138.055 263.954C138.055 262.697 137.312 261.635 135.877 261.635C134.408 261.635 133.302 262.724 132.859 264.352ZM156.512 270H154.874L156.114 264.184H149.138L147.899 270H146.279L148.996 257.226H150.625L149.448 262.75H156.423L157.601 257.226H159.23L156.512 270ZM162.523 270.168C160.858 270.168 159.601 269.017 159.601 267.53C159.601 265.654 161.071 264.52 163.718 264.405L166.426 264.281L166.568 263.635C166.603 263.441 166.621 263.325 166.621 263.184C166.621 262.219 165.86 261.652 164.576 261.652C163.505 261.652 162.762 262.077 162.461 262.847H160.85C161.274 261.272 162.762 260.289 164.7 260.289C166.798 260.289 168.17 261.343 168.17 262.963C168.17 263.219 168.144 263.476 168.091 263.742L166.763 270H165.284L165.55 268.752H165.408C164.744 269.628 163.682 270.168 162.523 270.168ZM163.001 268.849C164.435 268.849 165.647 267.902 165.931 266.61L166.17 265.512L163.629 265.636C162.071 265.716 161.168 266.362 161.168 267.362C161.168 268.23 161.921 268.849 163.001 268.849ZM169.445 270L171.472 260.457H172.942L172.685 261.67H172.827C173.455 260.723 174.269 260.289 175.385 260.289C175.801 260.289 176.314 260.351 176.5 260.422L176.173 261.883C175.898 261.821 175.287 261.767 174.969 261.767C173.437 261.767 172.561 262.582 172.18 264.361L170.985 270H169.445ZM180.2 270.168C178.297 270.168 176.73 268.663 176.73 266.3C176.73 262.847 178.899 260.289 181.652 260.289C183.033 260.289 184.175 261.077 184.511 262.219H184.653L185.83 256.669H187.38L184.547 270H183.077L183.352 268.699H183.21C182.52 269.602 181.413 270.168 180.2 270.168ZM180.687 268.796C182.661 268.796 184.166 266.822 184.166 264.299C184.166 262.679 183.246 261.661 181.767 261.661C179.82 261.661 178.324 263.502 178.324 266.07C178.324 267.681 179.28 268.796 180.687 268.796ZM188.592 263.14C188.592 261.44 190.124 260.289 192.169 260.289C194.196 260.289 195.497 261.334 195.754 262.901H194.24C194.045 262.077 193.257 261.582 192.142 261.582C190.974 261.582 190.124 262.175 190.124 262.998C190.124 263.582 190.593 264.007 191.46 264.29L192.753 264.706C194.355 265.22 195.028 265.999 195.028 267.282C195.028 268.955 193.399 270.168 191.186 270.168C189.088 270.168 187.592 269.062 187.45 267.442H189.017C189.256 268.283 190.062 268.885 191.257 268.885C192.549 268.885 193.461 268.265 193.461 267.397C193.461 266.84 193.151 266.388 192.266 266.105L190.805 265.636C189.327 265.158 188.592 264.405 188.592 263.14ZM202.313 260.289C204.199 260.289 205.677 261.405 205.969 262.963C205.996 263.095 206.005 263.237 206.013 263.379H204.455C204.358 262.387 203.402 261.661 202.189 261.661C200.295 261.661 198.879 263.502 198.879 265.919C198.879 267.698 199.799 268.778 201.269 268.778C202.446 268.778 203.34 268.23 203.703 267.274H205.288C204.898 269.009 203.234 270.168 201.136 270.168C198.817 270.168 197.276 268.566 197.276 266.123C197.276 262.777 199.401 260.289 202.313 260.289ZM209.811 270.168C208.147 270.168 206.89 269.017 206.89 267.53C206.89 265.654 208.359 264.52 211.006 264.405L213.715 264.281L213.856 263.635C213.892 263.441 213.91 263.325 213.91 263.184C213.91 262.219 213.148 261.652 211.865 261.652C210.794 261.652 210.05 262.077 209.749 262.847H208.138C208.563 261.272 210.05 260.289 211.989 260.289C214.087 260.289 215.459 261.343 215.459 262.963C215.459 263.219 215.432 263.476 215.379 263.742L214.051 270H212.573L212.838 268.752H212.697C212.033 269.628 210.971 270.168 209.811 270.168ZM210.289 268.849C211.723 268.849 212.936 267.902 213.219 266.61L213.458 265.512L210.918 265.636C209.36 265.716 208.457 266.362 208.457 267.362C208.457 268.23 209.209 268.849 210.289 268.849ZM217.698 273.187H216.167L218.876 260.457H220.345L220.071 261.759H220.212C220.903 260.856 222.045 260.289 223.257 260.289C225.178 260.289 226.657 261.847 226.657 263.981C226.657 267.468 224.523 270.168 221.77 270.168C220.389 270.168 219.247 269.38 218.911 268.238H218.769L217.698 273.187ZM221.655 268.796C223.603 268.796 225.063 266.831 225.063 264.211C225.063 262.6 224.213 261.661 222.771 261.661C220.797 261.661 219.256 263.635 219.256 266.158C219.256 267.778 220.177 268.796 221.655 268.796ZM232.287 270.168C230.153 270.168 228.409 268.752 228.409 266.176C228.409 262.653 230.463 260.289 233.376 260.289C235.341 260.289 236.996 261.67 237.005 264.149C237.005 264.52 236.952 265.22 236.89 265.583H230.012C230.003 265.742 229.994 265.901 229.994 266.061C229.994 268.026 231.233 268.778 232.384 268.778C233.641 268.778 234.385 268.3 234.783 267.566H236.403C236.013 269.035 234.509 270.168 232.287 270.168ZM230.215 264.352H235.394C235.403 264.299 235.412 264.104 235.412 263.954C235.412 262.697 234.668 261.635 233.234 261.635C231.764 261.635 230.658 262.724 230.215 264.352ZM246.91 258.616C246.326 258.616 245.848 258.138 245.848 257.554C245.848 256.97 246.326 256.492 246.91 256.492C247.495 256.492 247.973 256.97 247.973 257.554C247.973 258.138 247.495 258.616 246.91 258.616ZM243.538 270L245.565 260.457H247.088L245.06 270H243.538ZM247.999 270L250.026 260.457H251.505L251.204 261.883H251.345C251.939 261.033 252.815 260.289 254.24 260.289C256.073 260.289 257.179 261.644 257.179 263.157C257.179 263.494 257.135 263.865 257.055 264.255L255.834 270H254.284L255.453 264.52C255.524 264.175 255.568 263.865 255.568 263.591C255.568 262.44 254.869 261.661 253.594 261.661C252.124 261.661 251.098 262.732 250.788 264.175L249.548 270H247.999ZM262.543 270.168C260.64 270.168 259.073 268.663 259.073 266.3C259.073 262.847 261.242 260.289 263.995 260.289C265.376 260.289 266.518 261.077 266.854 262.219H266.996L268.173 256.669H269.723L266.89 270H265.42L265.695 268.699H265.553C264.863 269.602 263.756 270.168 262.543 270.168ZM263.03 268.796C265.004 268.796 266.509 266.822 266.509 264.299C266.509 262.679 265.589 261.661 264.11 261.661C262.163 261.661 260.667 263.502 260.667 266.07C260.667 267.681 261.623 268.796 263.03 268.796ZM279.602 260.457L277.574 270H276.105L276.397 268.708H276.255C275.724 269.531 274.733 270.168 273.299 270.168C271.564 270.168 270.448 268.973 270.448 267.397C270.448 267.114 270.502 266.548 270.581 266.158L271.776 260.457H273.325L272.166 265.937C272.095 266.282 272.042 266.787 272.042 267.008C272.042 268.23 272.644 268.796 273.892 268.796C275.423 268.796 276.521 267.707 276.84 266.194L278.061 260.457H279.602ZM281.523 263.14C281.523 261.44 283.054 260.289 285.099 260.289C287.126 260.289 288.427 261.334 288.684 262.901H287.17C286.975 262.077 286.188 261.582 285.072 261.582C283.904 261.582 283.054 262.175 283.054 262.998C283.054 263.582 283.523 264.007 284.391 264.29L285.683 264.706C287.285 265.22 287.958 265.999 287.958 267.282C287.958 268.955 286.329 270.168 284.116 270.168C282.018 270.168 280.522 269.062 280.381 267.442H281.947C282.186 268.283 282.992 268.885 284.187 268.885C285.479 268.885 286.391 268.265 286.391 267.397C286.391 266.84 286.081 266.388 285.196 266.105L283.736 265.636C282.257 265.158 281.523 264.405 281.523 263.14ZM293.022 270.071C291.694 270.071 290.738 269.433 290.738 268.141C290.738 267.893 290.773 267.619 290.835 267.318L292.03 261.732H290.428L290.693 260.457H292.305L292.809 257.988H294.358L293.836 260.457H296.005L295.721 261.732H293.57L292.482 266.849C292.411 267.185 292.375 267.468 292.375 267.707C292.375 268.433 292.818 268.734 293.579 268.734C293.854 268.734 294.04 268.725 294.243 268.699L293.969 269.991C293.703 270.053 293.358 270.071 293.022 270.071ZM296.138 270L298.165 260.457H299.634L299.377 261.67H299.519C300.148 260.723 300.962 260.289 302.077 260.289C302.493 260.289 303.007 260.351 303.193 260.422L302.865 261.883C302.591 261.821 301.98 261.767 301.661 261.767C300.13 261.767 299.253 262.582 298.873 264.361L297.678 270H296.138ZM303.733 273.47C303.281 273.47 302.803 273.373 302.635 273.328L302.901 272.063C303.078 272.116 303.423 272.178 303.821 272.178C304.459 272.178 304.981 271.797 305.636 270.575L305.981 269.929L304.432 260.457H305.946L307.079 268.044H307.22L311.399 260.457H313.072L306.999 271.045C305.884 272.992 305.034 273.47 303.733 273.47ZM316.011 262.263H314.869L316.781 257.226H318.472L316.011 262.263ZM319.401 262.263H318.259L320.348 257.226H322.039L319.401 262.263Z" fill="white"/>
<defs>
<linearGradient id="paint0_linear_4747_4418" x1="103.613" y1="64.3942" x2="163" y2="127.136" gradientUnits="userSpaceOnUse">
<stop stop-color="#FFB703"/>
<stop offset="1" stop-color="#FB6900"/>
</linearGradient>
</defs>
</svg>
