<svg width="49" height="23" viewBox="0 0 49 23" fill="none" xmlns="http://www.w3.org/2000/svg">
<path d="M0 0H49V20H0L8 10L0 0Z" fill="#C6C2C0"/>
<path d="M18.1175 14.1709C16.1204 14.1709 14.8607 12.7451 14.8607 10.4795V10.4697C14.8607 8.2334 16.1351 6.7832 18.1077 6.7832C19.7093 6.7832 20.847 7.69141 21.1009 9.05371L21.1107 9.10254H20.0169L20.0023 9.05371C19.7484 8.21875 19.0745 7.75 18.1077 7.75C16.804 7.75 15.9788 8.80469 15.9788 10.4648V10.4746C15.9788 12.1592 16.8089 13.2041 18.1321 13.2041C19.2845 13.2041 20.0706 12.4766 20.0804 11.3926V11.2363H18.2689V10.3525H21.1595V11.2266C21.1595 13.0137 19.9632 14.1709 18.1175 14.1709ZM24.6723 14.1025C23.1147 14.1025 22.1625 13.0625 22.1625 11.3535V11.3438C22.1625 9.63965 23.1196 8.59473 24.6723 8.59473C26.2202 8.59473 27.1772 9.63477 27.1772 11.3438V11.3535C27.1772 13.0625 26.225 14.1025 24.6723 14.1025ZM24.6723 13.2188C25.5805 13.2188 26.0981 12.5254 26.0981 11.3535V11.3438C26.0981 10.167 25.5805 9.47852 24.6723 9.47852C23.7592 9.47852 23.2465 10.167 23.2465 11.3438V11.3535C23.2465 12.5303 23.7592 13.2188 24.6723 13.2188ZM30.5679 14.1025C29.0103 14.1025 28.0582 13.0625 28.0582 11.3535V11.3438C28.0582 9.63965 29.0152 8.59473 30.5679 8.59473C32.1158 8.59473 33.0728 9.63477 33.0728 11.3438V11.3535C33.0728 13.0625 32.1207 14.1025 30.5679 14.1025ZM30.5679 13.2188C31.4761 13.2188 31.9937 12.5254 31.9937 11.3535V11.3438C31.9937 10.167 31.4761 9.47852 30.5679 9.47852C29.6548 9.47852 29.1421 10.167 29.1421 11.3438V11.3535C29.1421 12.5303 29.6548 13.2188 30.5679 13.2188ZM36.1511 14.0879C34.818 14.0879 33.9538 13.0186 33.9538 11.3535V11.3438C33.9538 9.66406 34.8034 8.60449 36.1511 8.60449C36.8786 8.60449 37.4987 8.96582 37.7819 9.53711H37.8649V6.61719H38.9196V14H37.8649V13.165H37.7819C37.4743 13.7461 36.8932 14.0879 36.1511 14.0879ZM36.4538 13.1846C37.3376 13.1846 37.8796 12.4863 37.8796 11.3535V11.3438C37.8796 10.2109 37.3327 9.5127 36.4538 9.5127C35.5651 9.5127 35.0329 10.2061 35.0329 11.3438V11.3535C35.0329 12.4912 35.5651 13.1846 36.4538 13.1846Z" fill="#1E1410"/>
<path d="M46 23L49 20H46V23Z" fill="#908F8F"/>
</svg>
