<svg width="16" height="16" viewBox="0 0 16 16" fill="none" xmlns="http://www.w3.org/2000/svg">
<path d="M5.92749 6.99008C5.92749 6.44041 6.14585 5.91325 6.53452 5.52457C6.9232 5.1359 7.45035 4.91754 8.00002 4.91754C8.5497 4.91754 9.07685 5.1359 9.46553 5.52457C9.8542 5.91325 10.0726 6.44041 10.0726 6.99008C10.0726 7.53975 9.8542 8.0669 9.46553 8.45558C9.07685 8.84425 8.5497 9.06261 8.00002 9.06261C7.45035 9.06261 6.9232 8.84425 6.53452 8.45558C6.14585 8.0669 5.92749 7.53975 5.92749 6.99008Z" fill="#766C68"/>
<path fill-rule="evenodd" clip-rule="evenodd" d="M2.75423 6.27392C2.86001 4.99186 3.44399 3.79646 4.39024 2.92499C5.33649 2.05352 6.57582 1.5697 7.86223 1.56958H8.13772C9.42413 1.5697 10.6635 2.05352 11.6097 2.92499C12.556 3.79646 13.1399 4.99186 13.2457 6.27392C13.3639 7.70523 12.922 9.12655 12.013 10.2385L8.95653 13.9767C8.84068 14.1185 8.69476 14.2328 8.52932 14.3113C8.36389 14.3897 8.18307 14.4304 7.99997 14.4304C7.81687 14.4304 7.63606 14.3897 7.47063 14.3113C7.30519 14.2328 7.15927 14.1185 7.04342 13.9767L3.98755 10.2385C3.07838 9.12665 2.63622 7.70532 2.75423 6.27392ZM7.99997 3.96097C7.19661 3.96097 6.42615 4.2801 5.85808 4.84817C5.29002 5.41623 4.97088 6.18669 4.97088 6.99006C4.97088 7.79342 5.29002 8.56388 5.85808 9.13195C6.42615 9.70001 7.19661 10.0191 7.99997 10.0191C8.80334 10.0191 9.5738 9.70001 10.1419 9.13195C10.7099 8.56388 11.0291 7.79342 11.0291 6.99006C11.0291 6.18669 10.7099 5.41623 10.1419 4.84817C9.5738 4.2801 8.80334 3.96097 7.99997 3.96097Z" fill="#766C68"/>
</svg>
