<svg width="225" height="70" viewBox="0 0 225 70" fill="none" xmlns="http://www.w3.org/2000/svg">
<ellipse cx="35" cy="34.9979" rx="35" ry="34.9979" fill="url(#paint0_linear_4747_4048)"/>
<path d="M43.4098 49.3654V27.5833H36.9196L32.7203 23.7279H51.7029L56.602 27.5833H47.9944V49.3654H43.4098Z" fill="#1E1410"/>
<path fill-rule="evenodd" clip-rule="evenodd" d="M13.385 37.1938C13.385 45.4377 18.0052 50.6433 25.522 50.6433C26.8938 50.6433 28.16 50.4674 29.3301 50.1345L26.7213 46.5919C26.3334 46.6515 25.9337 46.6813 25.522 46.6813C20.9018 46.6813 18.0586 42.9503 18.0586 37.1938V37.1583C18.0586 31.3663 20.9729 27.6886 25.522 27.6886C30.0712 27.6886 32.9677 31.3663 32.9677 37.1583V37.1938C32.9677 39.9641 32.2982 42.2603 31.0952 43.9094L33.8139 47.6011C36.2644 45.2638 37.6412 41.6696 37.6412 37.1938V37.1583C37.6412 28.8967 32.9855 23.7266 25.522 23.7266C18.0763 23.7266 13.385 28.8967 13.385 37.1583V37.1938ZM33.2698 48.0849L30.6043 44.5138L28.7206 41.9731H24.2426L27.5478 46.4148L30.1245 49.8794L32.2036 52.6688H36.6816L33.2698 48.0849Z" fill="#1E1410"/>
<path d="M85.3767 30.2324C82.697 30.2324 81.0222 28.25 81.0222 25.0781V25.0645C81.0222 21.8857 82.6902 19.9033 85.3699 19.9033C87.448 19.9033 89.0681 21.209 89.3621 23.1025L89.3552 23.1162H88.1179L88.1111 23.1025C87.783 21.8379 86.7302 21.0381 85.3699 21.0381C83.4763 21.0381 82.2869 22.5967 82.2869 25.0645V25.0781C82.2869 27.5459 83.4763 29.0977 85.3767 29.0977C86.7507 29.0977 87.7966 28.3936 88.1043 27.2588L88.1179 27.2451H89.3621V27.2588C89.0339 29.0635 87.4753 30.2324 85.3767 30.2324ZM97.1091 30.2324C94.279 30.2324 92.5837 28.2227 92.5837 25.0713V25.0576C92.5837 21.8926 94.32 19.9033 97.1091 19.9033C99.9118 19.9033 101.634 21.8994 101.634 25.0576V25.0713C101.634 28.2158 99.9255 30.2324 97.1091 30.2324ZM97.1091 29.0977C99.1325 29.0977 100.377 27.5117 100.377 25.0713V25.0576C100.377 22.5967 99.1257 21.0381 97.1091 21.0381C95.0993 21.0381 93.8415 22.5967 93.8415 25.0576V25.0713C93.8415 27.5117 95.0583 29.0977 97.1091 29.0977ZM105.307 30V20.1357H106.504L111.856 27.8125H111.966V20.1357H113.182V30H111.986L106.633 22.3506H106.524V30H105.307ZM117.238 30V20.1357H118.434L123.787 27.8125H123.896V20.1357H125.113V30H123.917L118.564 22.3506H118.455V30H117.238ZM129.169 30V20.1357H135.28V21.2432H130.399V24.4082H135.027V25.502H130.399V28.8926H135.28V30H129.169ZM143.02 30.2324C140.34 30.2324 138.666 28.25 138.666 25.0781V25.0645C138.666 21.8857 140.334 19.9033 143.013 19.9033C145.091 19.9033 146.711 21.209 147.005 23.1025L146.999 23.1162H145.761L145.754 23.1025C145.426 21.8379 144.374 21.0381 143.013 21.0381C141.12 21.0381 139.93 22.5967 139.93 25.0645V25.0781C139.93 27.5459 141.12 29.0977 143.02 29.0977C144.394 29.0977 145.44 28.3936 145.748 27.2588L145.761 27.2451H147.005V27.2588C146.677 29.0635 145.119 30.2324 143.02 30.2324ZM152.832 30V21.2432H149.653V20.1357H157.241V21.2432H154.062V30H152.832ZM160.681 30V20.1357H161.912V30H160.681ZM165.967 30V20.1357H167.164L172.516 27.8125H172.625V20.1357H173.842V30H172.646L167.293 22.3506H167.184V30H165.967ZM181.986 30.2324C179.258 30.2324 177.515 28.2227 177.515 25.0713V25.0576C177.515 21.9473 179.286 19.9033 181.986 19.9033C184.173 19.9033 185.711 21.1338 186.101 23.0068L186.115 23.0752H184.871L184.85 23.0068C184.447 21.7354 183.455 21.0381 181.986 21.0381C180.031 21.0381 178.773 22.6104 178.773 25.0576V25.0713C178.773 27.5527 180.01 29.0977 181.993 29.0977C183.756 29.0977 184.946 27.9697 184.946 26.3018V26.0625H182.177V24.9824H186.176V26.1855C186.176 28.6191 184.508 30.2324 181.986 30.2324ZM197.938 30V21.2432H194.759V20.1357H202.347V21.2432H199.168V30H197.938ZM205.787 30V20.1357H207.018V24.4014H212.432V20.1357H213.662V30H212.432V25.5088H207.018V30H205.787ZM217.718 30V20.1357H223.829V21.2432H218.948V24.4082H223.576V25.502H218.948V28.8926H223.829V30H217.718Z" fill="white"/>
<path d="M82.2979 48.459V40.0039H84.0674V43.4375H87.876V40.0039H89.6455V48.459H87.876V44.8965H84.0674V48.459H82.2979ZM91.0928 48.459L94.0283 40.0039H96.1084L99.0498 48.459H97.1865L96.5596 46.4082H93.5771L92.9502 48.459H91.0928ZM95.0186 41.6914L93.9814 45.084H96.1553L95.124 41.6914H95.0186ZM100.485 48.459V40.0039H104.007C105.929 40.0039 107.03 41.0293 107.03 42.6934V42.7051C107.03 43.7891 106.468 44.7207 105.501 45.1016L107.282 48.459H105.278L103.702 45.3652H102.255V48.459H100.485ZM102.255 44.0762H103.813C104.698 44.0762 105.22 43.5723 105.22 42.7402V42.7285C105.22 41.9141 104.675 41.3867 103.79 41.3867H102.255V44.0762ZM108.817 48.459V40.0039H112.146C114.659 40.0039 116.112 41.5215 116.112 44.1699V44.1816C116.112 46.9121 114.677 48.459 112.146 48.459H108.817ZM110.587 47H111.864C113.429 47 114.308 46.0156 114.308 44.2109V44.1992C114.308 42.459 113.399 41.4629 111.864 41.4629H110.587V47ZM120.817 48.6758C118.796 48.6758 117.519 47.709 117.419 46.209L117.413 46.1152H119.118L119.124 46.1738C119.188 46.8066 119.874 47.2344 120.864 47.2344C121.808 47.2344 122.458 46.7832 122.458 46.1328V46.127C122.458 45.5703 122.042 45.2598 120.993 45.043L120.103 44.8613C118.345 44.5039 117.589 43.6836 117.589 42.4004V42.3945C117.589 40.8242 118.937 39.7871 120.812 39.7871C122.786 39.7871 123.946 40.8301 124.058 42.2422L124.063 42.3184H122.399L122.388 42.248C122.288 41.6445 121.702 41.2227 120.812 41.2227C119.938 41.2285 119.358 41.627 119.358 42.2598V42.2656C119.358 42.8164 119.769 43.1445 120.765 43.3496L121.661 43.5312C123.448 43.9004 124.228 44.6152 124.228 45.9336V45.9395C124.228 47.6152 122.927 48.6758 120.817 48.6758ZM129.495 48.6758C127.046 48.6758 125.528 46.9766 125.528 44.2344V44.2227C125.528 41.4805 127.04 39.7871 129.495 39.7871C131.499 39.7871 132.999 41.0645 133.163 42.8516V42.9219H131.44V42.8809C131.259 41.9316 130.503 41.2871 129.495 41.2871C128.165 41.2871 127.339 42.4062 127.339 44.2227V44.2344C127.339 46.0508 128.165 47.1758 129.501 47.1758C130.515 47.1758 131.247 46.584 131.435 45.6816L131.446 45.6348H133.169L133.163 45.6992C132.981 47.4688 131.534 48.6758 129.495 48.6758ZM133.925 48.459L136.86 40.0039H138.94L141.882 48.459H140.019L139.392 46.4082H136.409L135.782 48.459H133.925ZM137.851 41.6914L136.813 45.084H138.987L137.956 41.6914H137.851ZM143.317 48.459V40.0039H146.804C148.585 40.0039 149.774 41.1523 149.774 42.8926V42.9043C149.774 44.6445 148.585 45.793 146.804 45.793H145.087V48.459H143.317ZM146.37 41.4043H145.087V44.4102H146.37C147.384 44.4102 147.981 43.8711 147.981 42.9102V42.8984C147.981 41.9375 147.384 41.4043 146.37 41.4043ZM151.403 48.459V40.0039H157.005V41.4629H153.173V43.502H156.788V44.8613H153.173V47H157.005V48.459H151.403ZM161.962 48.459V40.0039H163.731V48.459H161.962ZM165.782 48.459V40.0039H167.259L171.161 45.3887H171.255V40.0039H172.948V48.459H171.483L167.569 43.0508H167.476V48.459H165.782ZM175.005 48.459V40.0039H178.333C180.847 40.0039 182.3 41.5215 182.3 44.1699V44.1816C182.3 46.9121 180.864 48.459 178.333 48.459H175.005ZM176.774 47H178.052C179.616 47 180.495 46.0156 180.495 44.2109V44.1992C180.495 42.459 179.587 41.4629 178.052 41.4629H176.774V47ZM187.521 48.6758C185.353 48.6758 183.976 47.4219 183.976 45.541V40.0039H185.745V45.3828C185.745 46.4785 186.384 47.1758 187.521 47.1758C188.657 47.1758 189.29 46.4785 189.29 45.3828V40.0039H191.06V45.541C191.06 47.416 189.7 48.6758 187.521 48.6758ZM196.134 48.6758C194.112 48.6758 192.835 47.709 192.735 46.209L192.729 46.1152H194.435L194.44 46.1738C194.505 46.8066 195.19 47.2344 196.181 47.2344C197.124 47.2344 197.774 46.7832 197.774 46.1328V46.127C197.774 45.5703 197.358 45.2598 196.31 45.043L195.419 44.8613C193.661 44.5039 192.905 43.6836 192.905 42.4004V42.3945C192.905 40.8242 194.253 39.7871 196.128 39.7871C198.103 39.7871 199.263 40.8301 199.374 42.2422L199.38 42.3184H197.716L197.704 42.248C197.604 41.6445 197.019 41.2227 196.128 41.2227C195.255 41.2285 194.675 41.627 194.675 42.2598V42.2656C194.675 42.8164 195.085 43.1445 196.081 43.3496L196.978 43.5312C198.765 43.9004 199.544 44.6152 199.544 45.9336V45.9395C199.544 47.6152 198.243 48.6758 196.134 48.6758ZM203.271 48.459V41.4629H200.733V40.0039H207.577V41.4629H205.04V48.459H203.271ZM209.142 48.459V40.0039H212.663C214.585 40.0039 215.687 41.0293 215.687 42.6934V42.7051C215.687 43.7891 215.124 44.7207 214.157 45.1016L215.938 48.459H213.935L212.358 45.3652H210.911V48.459H209.142ZM210.911 44.0762H212.47C213.354 44.0762 213.876 43.5723 213.876 42.7402V42.7285C213.876 41.9141 213.331 41.3867 212.446 41.3867H210.911V44.0762ZM219.542 48.459V45.3008L216.601 40.0039H218.517L220.38 43.5605H220.485L222.343 40.0039H224.259L221.312 45.3008V48.459H219.542Z" fill="#FB6900"/>
<path d="M82 35H225" stroke="white" stroke-width="1.11183"/>
<path d="M82 53H225" stroke="white" stroke-width="1.11183"/>
<defs>
<linearGradient id="paint0_linear_4747_4048" x1="10.5466" y1="26.5137" x2="34.9985" y2="52.3483" gradientUnits="userSpaceOnUse">
<stop stop-color="#FFB703"/>
<stop offset="1" stop-color="#FB6900"/>
</linearGradient>
</defs>
</svg>
