<svg width="173" height="60" viewBox="0 0 173 60" fill="none" xmlns="http://www.w3.org/2000/svg">
<circle cx="30" cy="30" r="30" fill="url(#paint0_linear_2887_587)"/>
<path d="M37.2152 42.3285V23.6511H31.6512L28.0512 20.3453H44.325L48.525 23.6511H41.1457V42.3285H37.2152Z" fill="#1E1410"/>
<path fill-rule="evenodd" clip-rule="evenodd" d="M11.4749 31.8918C11.4749 38.9606 15.4359 43.4243 21.88 43.4243C23.0561 43.4243 24.1416 43.2734 25.1447 42.9879L22.9082 39.9503C22.5757 40.0014 22.233 40.027 21.88 40.027C17.9191 40.027 15.4816 36.8278 15.4816 31.8918V31.8614C15.4816 26.895 17.98 23.7414 21.88 23.7414C25.78 23.7414 28.2632 26.895 28.2632 31.8614V31.8918C28.2632 34.2672 27.6893 36.2361 26.6579 37.6501L28.9887 40.8157C31.0895 38.8115 32.2699 35.7296 32.2699 31.8918V31.8614C32.2699 24.7774 28.2785 20.3442 21.88 20.3442C15.4968 20.3442 11.4749 24.7774 11.4749 31.8614V31.8918ZM28.5222 41.2305L26.2371 38.1684L24.6222 35.9899H20.7831L23.6167 39.7985L25.8257 42.7692L27.6081 45.161H31.4472L28.5222 41.2305Z" fill="#1E1410"/>
<path d="M72.0639 26.7186C67.7382 26.7186 65 23.8316 65 19.1786V19.1587C65 14.5156 67.7581 11.6286 72.0639 11.6286C76.3597 11.6286 79.1178 14.5156 79.1178 19.1587V19.1786C79.1178 21.7481 78.2745 23.772 76.8062 25.0816L78.7606 27.6413H75.566L74.564 26.3416C73.81 26.5897 72.9667 26.7186 72.0639 26.7186ZM72.0639 23.7026C72.2226 23.7026 72.3813 23.6927 72.5302 23.6728L70.7245 21.3017H73.929L74.6434 22.2442C75.1295 21.4703 75.4073 20.4286 75.4073 19.1786V19.1587C75.4073 16.4106 74.0679 14.6446 72.0639 14.6446C70.0499 14.6446 68.7006 16.4106 68.7006 19.1587V19.1786C68.7006 21.9366 70.03 23.7026 72.0639 23.7026Z" fill="white"/>
<path d="M84.3074 26.5897C81.8568 26.5897 80.5968 25.0717 80.5968 22.4228V15.2895H84.1089V21.639C84.1089 22.9784 84.6248 23.7224 85.8154 23.7224C87.0059 23.7224 87.6607 22.8593 87.6607 21.5993V15.2895H91.1728V26.3317H87.6607V24.6054H87.4722C86.996 25.8158 85.865 26.5897 84.3074 26.5897Z" fill="white"/>
<path d="M98.1779 26.5897C94.646 26.5897 92.5526 24.4368 92.5526 20.8155V20.7957C92.5526 17.234 94.7055 15.0315 98.1779 15.0315C101.67 15.0315 103.803 17.2142 103.803 20.7957V20.8155C103.803 24.4467 101.72 26.5897 98.1779 26.5897ZM98.1779 23.9209C99.4677 23.9209 100.202 22.77 100.202 20.8155V20.7957C100.202 18.8809 99.4478 17.7003 98.1779 17.7003C96.908 17.7003 96.154 18.8809 96.154 20.7957V20.8155C96.154 22.7799 96.8882 23.9209 98.1779 23.9209Z" fill="white"/>
<path d="M110.104 26.3515C107.197 26.3515 106.046 25.4686 106.046 23.3058V17.869H104.36V15.2895H106.046V12.7596H109.568V15.2895H111.781V17.869H109.568V22.5121C109.568 23.3454 109.985 23.7423 110.898 23.7423C111.304 23.7423 111.523 23.7324 111.781 23.7026V26.2127C111.414 26.292 110.769 26.3515 110.104 26.3515Z" fill="white"/>
<path d="M118.27 26.5897C114.807 26.5897 112.694 24.3971 112.694 20.8155V20.8056C112.694 17.2439 114.807 15.0315 118.141 15.0315C121.464 15.0315 123.578 17.2142 123.578 20.5874V21.5993H116.147C116.176 23.1768 116.99 24.0895 118.339 24.0895C119.51 24.0895 120.115 23.4149 120.274 23.1272L120.294 23.0875L123.508 23.0776L123.478 23.1966C123.161 24.5161 121.812 26.5897 118.27 26.5897ZM118.22 17.5316C117.139 17.5316 116.355 18.2559 116.186 19.5556H120.254C120.085 18.236 119.312 17.5316 118.22 17.5316Z" fill="white"/>
<path d="M132.796 26.3317V14.9422H128.669V12.0155H140.564V14.9422H136.427V26.3317H132.796Z" fill="white"/>
<path d="M142.133 26.3317V11.1523H145.645V17.0157H145.833C146.309 15.8054 147.421 15.0315 148.978 15.0315C151.429 15.0315 152.709 16.5494 152.709 19.1984V26.3317H149.196V19.9822C149.196 18.6428 148.651 17.8888 147.46 17.8888C146.319 17.8888 145.645 18.7519 145.645 20.0219V26.3317H142.133Z" fill="white"/>
<path d="M157.531 26.5004C155.418 26.5004 153.969 25.1809 153.969 23.1669V23.147C153.969 21.1429 155.537 19.9822 158.384 19.8036L160.795 19.6647V18.8016C160.795 18.0575 160.239 17.611 159.267 17.611C158.345 17.611 157.779 17.9186 157.571 18.4742L157.551 18.5238H154.366L154.376 18.4047C154.574 16.3709 156.479 15.0315 159.466 15.0315C162.511 15.0315 164.248 16.4205 164.248 18.8016V26.3317H160.795V24.9626H160.607C160.12 25.9051 158.94 26.5004 157.531 26.5004ZM157.352 22.9188C157.352 23.6133 157.938 24.0498 158.821 24.0498C159.932 24.0498 160.795 23.3157 160.795 22.3632V21.639L158.94 21.7581C157.898 21.8275 157.352 22.2442 157.352 22.899V22.9188Z" fill="white"/>
<path d="M171.025 26.3515C168.118 26.3515 166.967 25.4686 166.967 23.3058V17.869H165.28V15.2895H166.967V12.7596H170.489V15.2895H172.701V17.869H170.489V22.5121C170.489 23.3454 170.906 23.7423 171.818 23.7423C172.225 23.7423 172.443 23.7324 172.701 23.7026V26.2127C172.334 26.292 171.689 26.3515 171.025 26.3515Z" fill="white"/>
<path d="M70.2175 37.8455H69.1778L69.4596 36.4208H68.5786L68.769 35.4208H69.658L69.8445 34.4723H68.9437L69.1341 33.4723H70.0429L70.3128 32.1151H71.3525L71.0827 33.4723H71.9478L72.2137 32.1151H73.2613L72.9915 33.4723H73.9122L73.7217 34.4723H72.7931L72.6065 35.4208H73.5431L73.3526 36.4208H72.4081L72.1264 37.8455H71.0787L71.3644 36.4208H70.5033L70.2175 37.8455ZM70.6104 35.5041H71.6184L71.8367 34.4009H70.8287L70.6104 35.5041Z" fill="white"/>
<path d="M75.6864 37.8455V33.4326H75.611L74.23 34.3652V33.1112L75.6864 32.119H77.1388V37.8455H75.6864Z" fill="white"/>
<path d="M80.3936 37.8455V32.119H81.2825V34.5398H84.2232V32.119H85.1081V37.8455H84.2232V35.3097H81.2825V37.8455H80.3936Z" fill="white"/>
<path d="M87.303 37.917C86.4815 37.917 85.8744 37.4169 85.8744 36.6351V36.6272C85.8744 35.8573 86.4538 35.4089 87.4816 35.3454L88.6483 35.2779V34.897C88.6483 34.4247 88.3507 34.1628 87.7673 34.1628C87.2911 34.1628 86.9776 34.3374 86.8744 34.643L86.8705 34.6589H86.041L86.045 34.6311C86.1482 33.9247 86.8268 33.4524 87.807 33.4524C88.8904 33.4524 89.5015 33.9922 89.5015 34.897V37.8455H88.6483V37.2344H88.5809C88.3269 37.6709 87.8745 37.917 87.303 37.917ZM86.7316 36.5994C86.7316 36.9963 87.0689 37.2304 87.5332 37.2304C88.1761 37.2304 88.6483 36.8098 88.6483 36.2542V35.8851L87.5967 35.9526C87.0014 35.9883 86.7316 36.2026 86.7316 36.5915V36.5994Z" fill="white"/>
<path d="M90.3908 37.8455V33.5358H91.252V34.1866H91.3154C91.4702 33.7302 91.871 33.4604 92.4465 33.4604C92.5854 33.4604 92.7362 33.4802 92.8235 33.5001V34.2938C92.6687 34.262 92.5219 34.2422 92.3592 34.2422C91.7004 34.2422 91.252 34.6469 91.252 35.27V37.8455H90.3908Z" fill="white"/>
<path d="M94.7802 37.917C93.6968 37.917 92.9944 37.0479 92.9944 35.6946V35.6867C92.9944 34.3215 93.6849 33.4604 94.7802 33.4604C95.3715 33.4604 95.8755 33.754 96.1057 34.2184H96.1732V31.8452H97.0303V37.8455H96.1732V37.1669H96.1057C95.8557 37.6392 95.3834 37.917 94.7802 37.917ZM95.0263 37.1828C95.7446 37.1828 96.1851 36.6153 96.1851 35.6946V35.6867C96.1851 34.766 95.7406 34.1985 95.0263 34.1985C94.304 34.1985 93.8715 34.762 93.8715 35.6867V35.6946C93.8715 36.6193 94.304 37.1828 95.0263 37.1828Z" fill="white"/>
<path d="M99.5546 37.9289C98.5149 37.9289 97.8561 37.4407 97.7728 36.7185V36.7145H98.6339L98.6379 36.7185C98.745 37.0439 99.0585 37.2622 99.5705 37.2622C100.102 37.2622 100.471 37.0201 100.471 36.6669V36.659C100.471 36.3891 100.269 36.2066 99.7689 36.0915L99.0824 35.9327C98.2688 35.7462 97.8918 35.3771 97.8918 34.7462V34.7422C97.8918 33.9922 98.5903 33.4524 99.5665 33.4524C100.551 33.4524 101.182 33.9445 101.257 34.6469V34.6509H100.436V34.643C100.352 34.3414 100.047 34.1152 99.5625 34.1152C99.0903 34.1152 98.749 34.3493 98.749 34.6946V34.7025C98.749 34.9724 98.9474 35.139 99.4316 35.2541L100.114 35.4089C100.944 35.6033 101.34 35.9565 101.34 36.5796V36.5875C101.34 37.3852 100.578 37.9289 99.5546 37.9289Z" fill="white"/>
<path d="M103.857 37.9289C102.599 37.9289 101.829 37.0717 101.829 35.6787V35.6708C101.829 34.3057 102.595 33.4524 103.853 33.4524C104.936 33.4524 105.583 34.0636 105.702 34.9009V34.9208L104.877 34.9247L104.873 34.9128C104.777 34.4882 104.428 34.1707 103.857 34.1707C103.138 34.1707 102.706 34.7422 102.706 35.6708V35.6787C102.706 36.6312 103.146 37.2106 103.857 37.2106C104.396 37.2106 104.73 36.9645 104.869 36.5002L104.877 36.4804H105.702L105.694 36.5161C105.539 37.3534 104.924 37.9289 103.857 37.9289Z" fill="white"/>
<path d="M107.536 37.917C106.714 37.917 106.107 37.4169 106.107 36.6351V36.6272C106.107 35.8573 106.687 35.4089 107.714 35.3454L108.881 35.2779V34.897C108.881 34.4247 108.583 34.1628 108 34.1628C107.524 34.1628 107.21 34.3374 107.107 34.643L107.103 34.6589H106.274L106.278 34.6311C106.381 33.9247 107.06 33.4524 108.04 33.4524C109.123 33.4524 109.734 33.9922 109.734 34.897V37.8455H108.881V37.2344H108.814C108.56 37.6709 108.107 37.917 107.536 37.917ZM106.964 36.5994C106.964 36.9963 107.302 37.2304 107.766 37.2304C108.409 37.2304 108.881 36.8098 108.881 36.2542V35.8851L107.829 35.9526C107.234 35.9883 106.964 36.2026 106.964 36.5915V36.5994Z" fill="white"/>
<path d="M110.624 39.2821V33.5358H111.485V34.2144H111.548C111.798 33.7421 112.271 33.4604 112.874 33.4604C113.961 33.4604 114.66 34.3295 114.66 35.6867V35.6946C114.66 37.0598 113.969 37.917 112.874 37.917C112.282 37.917 111.778 37.6273 111.548 37.163H111.485V39.2821H110.624ZM112.632 37.1828C113.35 37.1828 113.782 36.6193 113.782 35.6946V35.6867C113.782 34.7581 113.35 34.1985 112.632 34.1985C111.913 34.1985 111.469 34.766 111.469 35.6867V35.6946C111.469 36.6153 111.913 37.1828 112.632 37.1828Z" fill="white"/>
<path d="M117.18 37.9289C115.918 37.9289 115.156 37.0677 115.156 35.7026V35.6986C115.156 34.3533 115.934 33.4524 117.136 33.4524C118.339 33.4524 119.077 34.3215 119.077 35.6153V35.9169H116.021C116.037 36.7423 116.489 37.2225 117.2 37.2225C117.751 37.2225 118.081 36.9487 118.184 36.7264L118.2 36.6947L119.029 36.6907L119.021 36.7264C118.878 37.2939 118.283 37.9289 117.18 37.9289ZM117.14 34.1588C116.553 34.1588 116.108 34.5596 116.033 35.3017H118.224C118.156 34.5319 117.723 34.1588 117.14 34.1588Z" fill="white"/>
<path d="M123.459 37.9527C122.292 37.9527 121.498 37.2939 121.498 36.3335V36.3256C121.498 35.6391 121.859 35.1311 122.621 34.7462L122.847 34.6311C122.308 34.0318 122.125 33.6945 122.125 33.3056V33.2977C122.125 32.5476 122.776 32 123.649 32C124.526 32 125.161 32.5397 125.161 33.2937V33.3016C125.161 33.8652 124.828 34.3057 123.943 34.7858L125.236 36.1589C125.419 35.7661 125.506 35.2978 125.506 34.7858V34.6549H126.28V34.8176C126.28 35.5637 126.125 36.2264 125.8 36.7542L126.824 37.8416V37.8455H125.784L125.312 37.3296C124.855 37.7225 124.24 37.9527 123.459 37.9527ZM122.923 33.3413C122.923 33.6231 123.07 33.8493 123.514 34.3255C124.169 33.9802 124.383 33.7064 124.383 33.3413V33.3334C124.383 32.9286 124.086 32.6389 123.653 32.6389C123.228 32.6389 122.923 32.9286 122.923 33.3334V33.3413ZM122.347 36.2661C122.347 36.8613 122.828 37.2622 123.542 37.2622C124.078 37.2622 124.498 37.0836 124.808 36.778L123.296 35.1232L123.113 35.2144C122.613 35.4605 122.347 35.8216 122.347 36.2581V36.2661Z" fill="white"/>
<path d="M129.225 37.8455V32.119H130.114V37.0796H132.797V37.8455H129.225Z" fill="white"/>
<path d="M134.682 37.917C133.861 37.917 133.254 37.4169 133.254 36.6351V36.6272C133.254 35.8573 133.833 35.4089 134.861 35.3454L136.028 35.2779V34.897C136.028 34.4247 135.73 34.1628 135.147 34.1628C134.67 34.1628 134.357 34.3374 134.254 34.643L134.25 34.6589H133.42L133.424 34.6311C133.527 33.9247 134.206 33.4524 135.186 33.4524C136.27 33.4524 136.881 33.9922 136.881 34.897V37.8455H136.028V37.2344H135.96C135.706 37.6709 135.254 37.917 134.682 37.917ZM134.111 36.5994C134.111 36.9963 134.448 37.2304 134.912 37.2304C135.555 37.2304 136.028 36.8098 136.028 36.2542V35.8851L134.976 35.9526C134.381 35.9883 134.111 36.2026 134.111 36.5915V36.5994Z" fill="white"/>
<path d="M137.77 37.8455V33.5358H138.631V34.1906H138.695C138.905 33.7302 139.318 33.4524 139.945 33.4524C140.909 33.4524 141.441 34.0279 141.441 35.0557V37.8455H140.584V35.2581C140.584 34.5438 140.286 34.1906 139.655 34.1906C139.024 34.1906 138.631 34.6231 138.631 35.3176V37.8455H137.77Z" fill="white"/>
<path d="M143.89 37.917C142.806 37.917 142.104 37.0479 142.104 35.6946V35.6867C142.104 34.3215 142.794 33.4604 143.89 33.4604C144.481 33.4604 144.985 33.754 145.215 34.2184H145.283V31.8452H146.14V37.8455H145.283V37.1669H145.215C144.965 37.6392 144.493 37.917 143.89 37.917ZM144.136 37.1828C144.854 37.1828 145.295 36.6153 145.295 35.6946V35.6867C145.295 34.766 144.85 34.1985 144.136 34.1985C143.414 34.1985 142.981 34.762 142.981 35.6867V35.6946C142.981 36.6193 143.414 37.1828 144.136 37.1828Z" fill="white"/>
<path d="M148.664 37.9289C147.624 37.9289 146.966 37.4407 146.882 36.7185V36.7145H147.743L147.747 36.7185C147.855 37.0439 148.168 37.2622 148.68 37.2622C149.212 37.2622 149.581 37.0201 149.581 36.6669V36.659C149.581 36.3891 149.378 36.2066 148.878 36.0915L148.192 35.9327C147.378 35.7462 147.001 35.3771 147.001 34.7462V34.7422C147.001 33.9922 147.7 33.4524 148.676 33.4524C149.66 33.4524 150.291 33.9445 150.367 34.6469V34.6509H149.545V34.643C149.462 34.3414 149.156 34.1152 148.672 34.1152C148.2 34.1152 147.859 34.3493 147.859 34.6946V34.7025C147.859 34.9724 148.057 35.139 148.541 35.2541L149.224 35.4089C150.053 35.6033 150.45 35.9565 150.45 36.5796V36.5875C150.45 37.3852 149.688 37.9289 148.664 37.9289Z" fill="white"/>
<path d="M152.966 37.9289C151.708 37.9289 150.938 37.0717 150.938 35.6787V35.6708C150.938 34.3057 151.704 33.4524 152.962 33.4524C154.046 33.4524 154.693 34.0636 154.812 34.9009V34.9208L153.986 34.9247L153.982 34.9128C153.887 34.4882 153.538 34.1707 152.966 34.1707C152.248 34.1707 151.815 34.7422 151.815 35.6708V35.6787C151.815 36.6312 152.256 37.2106 152.966 37.2106C153.506 37.2106 153.839 36.9645 153.978 36.5002L153.986 36.4804H154.812L154.804 36.5161C154.649 37.3534 154.034 37.9289 152.966 37.9289Z" fill="white"/>
<path d="M156.645 37.917C155.824 37.917 155.217 37.4169 155.217 36.6351V36.6272C155.217 35.8573 155.796 35.4089 156.824 35.3454L157.991 35.2779V34.897C157.991 34.4247 157.693 34.1628 157.11 34.1628C156.633 34.1628 156.32 34.3374 156.217 34.643L156.213 34.6589H155.383L155.387 34.6311C155.491 33.9247 156.169 33.4524 157.149 33.4524C158.233 33.4524 158.844 33.9922 158.844 34.897V37.8455H157.991V37.2344H157.923C157.669 37.6709 157.217 37.917 156.645 37.917ZM156.074 36.5994C156.074 36.9963 156.411 37.2304 156.876 37.2304C157.518 37.2304 157.991 36.8098 157.991 36.2542V35.8851L156.939 35.9526C156.344 35.9883 156.074 36.2026 156.074 36.5915V36.5994Z" fill="white"/>
<path d="M159.733 39.2821V33.5358H160.594V34.2144H160.658C160.908 33.7421 161.38 33.4604 161.983 33.4604C163.071 33.4604 163.769 34.3295 163.769 35.6867V35.6946C163.769 37.0598 163.079 37.917 161.983 37.917C161.392 37.917 160.888 37.6273 160.658 37.163H160.594V39.2821H159.733ZM161.741 37.1828C162.459 37.1828 162.892 36.6193 162.892 35.6946V35.6867C162.892 34.7581 162.459 34.1985 161.741 34.1985C161.023 34.1985 160.578 34.766 160.578 35.6867V35.6946C160.578 36.6153 161.023 37.1828 161.741 37.1828Z" fill="white"/>
<path d="M166.289 37.9289C165.027 37.9289 164.265 37.0677 164.265 35.7026V35.6986C164.265 34.3533 165.043 33.4524 166.246 33.4524C167.448 33.4524 168.186 34.3215 168.186 35.6153V35.9169H165.131C165.146 36.7423 165.599 37.2225 166.309 37.2225C166.861 37.2225 167.19 36.9487 167.293 36.7264L167.309 36.6947L168.139 36.6907L168.131 36.7264C167.988 37.2939 167.393 37.9289 166.289 37.9289ZM166.25 34.1588C165.662 34.1588 165.218 34.5596 165.142 35.3017H167.333C167.266 34.5319 166.833 34.1588 166.25 34.1588Z" fill="white"/>
<path d="M82.6793 47.3275V41.601H86.3144V42.3669H83.5682V44.0416H86.1676V44.7797H83.5682V46.5616H86.3144V47.3275H82.6793Z" fill="white"/>
<path d="M88.7434 47.4108C87.7037 47.4108 87.0449 46.9227 86.9616 46.2005V46.1965H87.8227L87.8267 46.2005C87.9338 46.5259 88.2474 46.7441 88.7593 46.7441C89.2911 46.7441 89.6601 46.5021 89.6601 46.1489V46.1409C89.6601 45.8711 89.4577 45.6885 88.9577 45.5734L88.2712 45.4147C87.4576 45.2282 87.0806 44.8591 87.0806 44.2281V44.2242C87.0806 43.4741 87.7791 42.9344 88.7553 42.9344C89.7395 42.9344 90.3705 43.4265 90.4459 44.1289V44.1329H89.6244V44.125C89.5411 43.8234 89.2355 43.5971 88.7513 43.5971C88.2791 43.5971 87.9378 43.8313 87.9378 44.1765V44.1845C87.9378 44.4543 88.1362 44.621 88.6204 44.7361L89.303 44.8909C90.1324 45.0853 90.5292 45.4385 90.5292 46.0616V46.0695C90.5292 46.8672 89.7673 47.4108 88.7434 47.4108Z" fill="white"/>
<path d="M92.8273 47.3553C91.8788 47.3553 91.4899 47.0219 91.4899 46.1925V43.6964H90.8153V43.0178H91.4899V41.9304H92.3669V43.0178H93.2916V43.6964H92.3669V45.9862C92.3669 46.4505 92.5415 46.641 92.9662 46.641C93.0971 46.641 93.1725 46.637 93.2916 46.6251V47.3116C93.1527 47.3354 92.994 47.3553 92.8273 47.3553Z" fill="white"/>
<path d="M94.4189 42.2479C94.1213 42.2479 93.8792 42.0058 93.8792 41.7121C93.8792 41.4145 94.1213 41.1724 94.4189 41.1724C94.7126 41.1724 94.9587 41.4145 94.9587 41.7121C94.9587 42.0058 94.7126 42.2479 94.4189 42.2479ZM93.9864 47.3275V43.0178H94.8436V47.3275H93.9864Z" fill="white"/>
<path d="M95.7725 47.3275V43.0178H96.6337V43.6805H96.6972C96.8876 43.2082 97.3083 42.9344 97.8718 42.9344C98.4592 42.9344 98.8758 43.24 99.0663 43.7043H99.1338C99.3521 43.24 99.8481 42.9344 100.447 42.9344C101.316 42.9344 101.824 43.4583 101.824 44.3551V47.3275H100.967V44.5615C100.967 43.9662 100.697 43.6725 100.134 43.6725C99.5862 43.6725 99.2251 44.0813 99.2251 44.6012V47.3275H98.3679V44.4742C98.3679 43.9821 98.0464 43.6725 97.5385 43.6725C97.0186 43.6725 96.6337 44.117 96.6337 44.6805V47.3275H95.7725Z" fill="white"/>
<path d="M103.884 47.3989C103.063 47.3989 102.456 46.8989 102.456 46.1171V46.1092C102.456 45.3393 103.035 44.8909 104.063 44.8274L105.23 44.7599V44.3789C105.23 43.9067 104.932 43.6448 104.349 43.6448C103.872 43.6448 103.559 43.8194 103.456 44.125L103.452 44.1408H102.622L102.626 44.113C102.73 43.4067 103.408 42.9344 104.388 42.9344C105.472 42.9344 106.083 43.4741 106.083 44.3789V47.3275H105.23V46.7164H105.162C104.908 47.1529 104.456 47.3989 103.884 47.3989ZM103.313 46.0814C103.313 46.4783 103.65 46.7124 104.115 46.7124C104.757 46.7124 105.23 46.2917 105.23 45.7361V45.3671L104.178 45.4345C103.583 45.4703 103.313 45.6846 103.313 46.0735V46.0814Z" fill="white"/>
<path d="M108.599 47.3553C107.651 47.3553 107.262 47.0219 107.262 46.1925V43.6964H106.587V43.0178H107.262V41.9304H108.139V43.0178H109.064V43.6964H108.139V45.9862C108.139 46.4505 108.313 46.641 108.738 46.641C108.869 46.641 108.944 46.637 109.064 46.6251V47.3116C108.925 47.3354 108.766 47.3553 108.599 47.3553Z" fill="white"/>
<path d="M110.191 42.2479C109.893 42.2479 109.651 42.0058 109.651 41.7121C109.651 41.4145 109.893 41.1724 110.191 41.1724C110.485 41.1724 110.731 41.4145 110.731 41.7121C110.731 42.0058 110.485 42.2479 110.191 42.2479ZM109.758 47.3275V43.0178H110.616V47.3275H109.758Z" fill="white"/>
<path d="M111.544 47.3275V43.0178H112.406V43.6725H112.469C112.679 43.2122 113.092 42.9344 113.719 42.9344C114.683 42.9344 115.215 43.5098 115.215 44.5377V47.3275H114.358V44.7401C114.358 44.0257 114.06 43.6725 113.429 43.6725C112.798 43.6725 112.406 44.1051 112.406 44.7996V47.3275H111.544Z" fill="white"/>
<path d="M117.914 48.8474C116.819 48.8474 116.144 48.3672 116.041 47.6489L116.049 47.641H116.918L116.922 47.6489C116.993 47.9466 117.343 48.1569 117.926 48.1569C118.636 48.1569 119.057 47.8236 119.057 47.2362V46.387H118.994C118.732 46.8553 118.255 47.1172 117.664 47.1172C116.557 47.1172 115.874 46.264 115.874 45.0496V45.0417C115.874 43.8114 116.561 42.9424 117.68 42.9424C118.283 42.9424 118.751 43.24 119.001 43.7241H119.053V43.0178H119.91V47.2402C119.91 48.2204 119.136 48.8474 117.914 48.8474ZM117.902 46.4068C118.632 46.4068 119.073 45.8512 119.073 45.0456V45.0377C119.073 44.2361 118.628 43.6725 117.902 43.6725C117.168 43.6725 116.755 44.2361 116.755 45.0377V45.0456C116.755 45.8473 117.168 46.4068 117.902 46.4068Z" fill="white"/>
<path d="M124.756 47.4664C123.463 47.4664 122.633 46.8116 122.554 45.8473L122.55 45.7957H123.423L123.427 45.8393C123.475 46.3592 124.026 46.6925 124.792 46.6925C125.522 46.6925 126.042 46.3274 126.042 45.7957V45.7917C126.042 45.3512 125.733 45.0655 124.975 44.9028L124.348 44.7678C123.185 44.5218 122.685 43.9821 122.685 43.1368V43.1328C122.689 42.1447 123.546 41.4621 124.76 41.4621C125.975 41.4621 126.768 42.1487 126.832 43.0376L126.836 43.0932H125.975L125.967 43.0416C125.891 42.5733 125.443 42.232 124.748 42.236C124.078 42.236 123.582 42.5495 123.582 43.0892V43.0932C123.582 43.5178 123.883 43.7956 124.625 43.9543L125.248 44.0932C126.451 44.3512 126.943 44.8353 126.943 45.6846V45.6885C126.943 46.7838 126.09 47.4664 124.756 47.4664Z" fill="white"/>
<path d="M129.515 47.4108C128.249 47.4108 127.475 46.5656 127.475 45.1766V45.1687C127.475 43.7837 128.253 42.9344 129.515 42.9344C130.773 42.9344 131.551 43.7797 131.551 45.1687V45.1766C131.551 46.5656 130.777 47.4108 129.515 47.4108ZM129.515 46.6925C130.253 46.6925 130.674 46.129 130.674 45.1766V45.1687C130.674 44.2123 130.253 43.6527 129.515 43.6527C128.773 43.6527 128.356 44.2123 128.356 45.1687V45.1766C128.356 46.133 128.773 46.6925 129.515 46.6925Z" fill="white"/>
<path d="M132.559 47.3275V43.6964H131.849V43.0178H132.559V42.5653C132.559 41.7082 132.996 41.2875 133.892 41.2875C134.087 41.2875 134.254 41.3034 134.4 41.3272V41.9582C134.321 41.9463 134.206 41.9383 134.071 41.9383C133.595 41.9383 133.408 42.1685 133.408 42.605V43.0178H134.365V43.6964H133.416V47.3275H132.559Z" fill="white"/>
<path d="M136.651 47.3553C135.702 47.3553 135.313 47.0219 135.313 46.1925V43.6964H134.639V43.0178H135.313V41.9304H136.19V43.0178H137.115V43.6964H136.19V45.9862C136.19 46.4505 136.365 46.641 136.79 46.641C136.921 46.641 136.996 46.637 137.115 46.6251V47.3116C136.976 47.3354 136.817 47.3553 136.651 47.3553Z" fill="white"/>
<path d="M138.623 47.3275L137.433 43.0178H138.298L139.072 46.3433H139.135L140.024 43.0178H140.842L141.731 46.3433H141.798L142.568 43.0178H143.421L142.235 47.3275H141.35L140.457 44.113H140.389L139.5 47.3275H138.623Z" fill="white"/>
<path d="M145.041 47.3989C144.219 47.3989 143.612 46.8989 143.612 46.1171V46.1092C143.612 45.3393 144.192 44.8909 145.219 44.8274L146.386 44.7599V44.3789C146.386 43.9067 146.088 43.6448 145.505 43.6448C145.029 43.6448 144.715 43.8194 144.612 44.125L144.608 44.1408H143.779L143.783 44.113C143.886 43.4067 144.565 42.9344 145.545 42.9344C146.628 42.9344 147.239 43.4741 147.239 44.3789V47.3275H146.386V46.7164H146.319C146.065 47.1529 145.612 47.3989 145.041 47.3989ZM144.469 46.0814C144.469 46.4783 144.807 46.7124 145.271 46.7124C145.914 46.7124 146.386 46.2917 146.386 45.7361V45.3671L145.334 45.4345C144.739 45.4703 144.469 45.6846 144.469 46.0735V46.0814Z" fill="white"/>
<path d="M148.129 47.3275V43.0178H148.99V43.6686H149.053C149.208 43.2122 149.609 42.9424 150.184 42.9424C150.323 42.9424 150.474 42.9622 150.561 42.982V43.7757C150.406 43.744 150.26 43.7241 150.097 43.7241C149.438 43.7241 148.99 44.1289 148.99 44.752V47.3275H148.129Z" fill="white"/>
<path d="M152.756 47.4108C151.494 47.4108 150.732 46.5497 150.732 45.1845V45.1806C150.732 43.8353 151.51 42.9344 152.712 42.9344C153.915 42.9344 154.653 43.8035 154.653 45.0972V45.3988H151.597C151.613 46.2243 152.066 46.7045 152.776 46.7045C153.328 46.7045 153.657 46.4306 153.76 46.2084L153.776 46.1766L154.605 46.1727L154.597 46.2084C154.455 46.7759 153.859 47.4108 152.756 47.4108ZM152.716 43.6408C152.129 43.6408 151.685 44.0416 151.609 44.7837H153.8C153.732 44.0138 153.3 43.6408 152.716 43.6408Z" fill="white"/>
<defs>
<linearGradient id="paint0_linear_2887_587" x1="9.03993" y1="22.7274" x2="30" y2="44.8714" gradientUnits="userSpaceOnUse">
<stop stop-color="#FFB703"/>
<stop offset="1" stop-color="#FB6900"/>
</linearGradient>
</defs>
</svg>
