<svg width="160" height="149" viewBox="0 0 160 149" fill="none" xmlns="http://www.w3.org/2000/svg">
<g id="Logo">
<g id="Quote That">
<path d="M10.92 129.571C4.53333 129.571 0.490356 125.308 0.490356 118.438V118.409C0.490356 111.553 4.56262 107.291 10.92 107.291C17.2628 107.291 21.3351 111.553 21.3351 118.409V118.438C21.3351 122.232 20.09 125.22 17.922 127.154L20.8077 130.933H16.0909L14.6115 129.014C13.4982 129.381 12.2531 129.571 10.92 129.571ZM10.92 125.118C11.1544 125.118 11.3888 125.103 11.6085 125.074L8.9425 121.573H13.674L14.7286 122.965C15.4464 121.822 15.8566 120.284 15.8566 118.438V118.409C15.8566 114.351 13.879 111.744 10.92 111.744C7.94641 111.744 5.95422 114.351 5.95422 118.409V118.438C5.95422 122.51 7.91711 125.118 10.92 125.118Z" fill="#FB6900"/>
<path d="M28.9974 129.381C25.3792 129.381 23.5189 127.139 23.5189 123.228V112.696H28.7044V122.071C28.7044 124.048 29.4661 125.147 31.2239 125.147C32.9818 125.147 33.9486 123.873 33.9486 122.012V112.696H39.1341V129H33.9486V126.451H33.6702C32.9671 128.238 31.2972 129.381 28.9974 129.381Z" fill="#FB6900"/>
<path d="M49.4771 129.381C44.2622 129.381 41.1714 126.202 41.1714 120.855V120.826C41.1714 115.567 44.3501 112.315 49.4771 112.315C54.6333 112.315 57.7827 115.538 57.7827 120.826V120.855C57.7827 126.216 54.7066 129.381 49.4771 129.381ZM49.4771 125.44C51.3814 125.44 52.4654 123.741 52.4654 120.855V120.826C52.4654 117.999 51.3521 116.256 49.4771 116.256C47.6021 116.256 46.4888 117.999 46.4888 120.826V120.855C46.4888 123.756 47.5728 125.44 49.4771 125.44Z" fill="#FB6900"/>
<path d="M67.0857 129.029C62.7937 129.029 61.0945 127.725 61.0945 124.532V116.505H58.6042V112.696H61.0945V108.961H66.2947V112.696H69.5613V116.505H66.2947V123.36C66.2947 124.59 66.9099 125.176 68.2575 125.176C68.8581 125.176 69.1804 125.162 69.5613 125.118V128.824C69.0193 128.941 68.0671 129.029 67.0857 129.029Z" fill="#FB6900"/>
<path d="M79.1425 129.381C74.0302 129.381 70.9101 126.143 70.9101 120.855V120.84C70.9101 115.582 74.0302 112.315 78.9521 112.315C83.8593 112.315 86.9794 115.538 86.9794 120.518V122.012H76.0077C76.0517 124.341 77.2529 125.689 79.245 125.689C80.9736 125.689 81.8671 124.693 82.1015 124.268L82.1308 124.21L86.8769 124.195L86.8329 124.371C86.3642 126.319 84.372 129.381 79.1425 129.381ZM79.0693 116.007C77.4726 116.007 76.3154 117.076 76.0663 118.995H82.0722C81.8232 117.047 80.6806 116.007 79.0693 116.007Z" fill="#FB6900"/>
<path d="M100.59 129V112.183H94.4964V107.862H112.06V112.183H105.951V129H100.59Z" fill="#FB6900"/>
<path d="M114.376 129V106.588H119.561V115.245H119.839C120.543 113.458 122.183 112.315 124.483 112.315C128.101 112.315 129.991 114.556 129.991 118.467V129H124.805V119.625C124.805 117.647 124 116.534 122.242 116.534C120.557 116.534 119.561 117.808 119.561 119.683V129H114.376Z" fill="#FB6900"/>
<path d="M137.111 129.249C133.991 129.249 131.852 127.3 131.852 124.327V124.298C131.852 121.339 134.167 119.625 138.371 119.361L141.93 119.156V117.882C141.93 116.783 141.11 116.124 139.675 116.124C138.312 116.124 137.477 116.578 137.17 117.398L137.14 117.471H132.438L132.453 117.296C132.746 114.293 135.558 112.315 139.967 112.315C144.465 112.315 147.028 114.366 147.028 117.882V129H141.93V126.978H141.652C140.934 128.37 139.191 129.249 137.111 129.249ZM136.847 123.961C136.847 124.986 137.712 125.631 139.015 125.631C140.656 125.631 141.93 124.547 141.93 123.14V122.071L139.191 122.247C137.653 122.349 136.847 122.965 136.847 123.931V123.961Z" fill="#FB6900"/>
<path d="M157.034 129.029C152.742 129.029 151.043 127.725 151.043 124.532V116.505H148.553V112.696H151.043V108.961H156.243V112.696H159.51V116.505H156.243V123.36C156.243 124.59 156.858 125.176 158.206 125.176C158.807 125.176 159.129 125.162 159.51 125.118V128.824C158.968 128.941 158.016 129.029 157.034 129.029Z" fill="#FB6900"/>
</g>
<g id="Changes The Game">
<path d="M31.6939 146.205C29.3443 146.205 27.8794 144.506 27.8794 141.781V141.769C27.8794 139.039 29.3384 137.34 31.688 137.34C33.5513 137.34 34.981 138.517 35.2036 140.199L35.1978 140.228H33.897V140.211C33.6509 139.173 32.8013 138.5 31.688 138.5C30.1704 138.5 29.2212 139.759 29.2212 141.769V141.781C29.2212 143.785 30.1704 145.045 31.6939 145.045C32.813 145.045 33.6509 144.447 33.8911 143.492L33.9029 143.468H35.2036V143.504C34.9576 145.127 33.5806 146.205 31.6939 146.205Z" fill="#1E1410"/>
<path d="M36.3643 146V137.14H37.6358V140.603H37.7295C38.0401 139.923 38.6494 139.513 39.5752 139.513C40.999 139.513 41.7842 140.363 41.7842 141.881V146H40.5186V142.179C40.5186 141.125 40.0791 140.603 39.1475 140.603C38.2158 140.603 37.6358 141.242 37.6358 142.267V146H36.3643Z" fill="#1E1410"/>
<path d="M44.8257 146.105C43.6128 146.105 42.7163 145.367 42.7163 144.213V144.201C42.7163 143.064 43.5718 142.402 45.0893 142.308L46.812 142.209V141.646C46.812 140.949 46.3726 140.562 45.5112 140.562C44.8081 140.562 44.3452 140.82 44.1929 141.271L44.187 141.295H42.9624L42.9683 141.254C43.1206 140.211 44.1226 139.513 45.5698 139.513C47.1694 139.513 48.0718 140.31 48.0718 141.646V146H46.812V145.097H46.7124C46.3374 145.742 45.6694 146.105 44.8257 146.105ZM43.9819 144.16C43.9819 144.746 44.48 145.091 45.1655 145.091C46.1147 145.091 46.812 144.47 46.812 143.65V143.105L45.2593 143.205C44.3804 143.257 43.9819 143.574 43.9819 144.148V144.16Z" fill="#1E1410"/>
<path d="M49.3847 146V139.636H50.6562V140.603H50.75C51.0605 139.923 51.6699 139.513 52.5957 139.513C54.0195 139.513 54.8047 140.363 54.8047 141.881V146H53.539V142.179C53.539 141.125 53.0996 140.603 52.1679 140.603C51.2363 140.603 50.6562 141.242 50.6562 142.267V146H49.3847Z" fill="#1E1410"/>
<path d="M58.7895 148.244C57.1723 148.244 56.1762 147.535 56.0239 146.474L56.0356 146.463H57.3188L57.3247 146.474C57.4301 146.914 57.9458 147.224 58.8071 147.224C59.8559 147.224 60.477 146.732 60.477 145.865V144.611H60.3833C59.9965 145.302 59.2934 145.689 58.4204 145.689C56.7856 145.689 55.7778 144.429 55.7778 142.636V142.625C55.7778 140.808 56.7915 139.525 58.4438 139.525C59.3344 139.525 60.0258 139.965 60.395 140.679H60.4711V139.636H61.7368V145.871C61.7368 147.318 60.5942 148.244 58.7895 148.244ZM58.7719 144.64C59.85 144.64 60.5004 143.82 60.5004 142.631V142.619C60.5004 141.435 59.8442 140.603 58.7719 140.603C57.6879 140.603 57.0786 141.435 57.0786 142.619V142.631C57.0786 143.814 57.6879 144.64 58.7719 144.64Z" fill="#1E1410"/>
<path d="M65.7568 146.123C63.8935 146.123 62.7685 144.851 62.7685 142.836V142.83C62.7685 140.843 63.9169 139.513 65.6923 139.513C67.4677 139.513 68.5575 140.797 68.5575 142.707V143.152H64.0458C64.0693 144.371 64.7372 145.08 65.7861 145.08C66.6005 145.08 67.0868 144.675 67.2392 144.347L67.2626 144.3L68.4872 144.295L68.4755 144.347C68.2646 145.185 67.3857 146.123 65.7568 146.123ZM65.6982 140.556C64.831 140.556 64.1747 141.148 64.0634 142.244H67.2978C67.1982 141.107 66.5595 140.556 65.6982 140.556Z" fill="#1E1410"/>
<path d="M71.9037 146.123C70.3686 146.123 69.3959 145.402 69.2729 144.336V144.33H70.5443L70.5502 144.336C70.7084 144.816 71.1713 145.138 71.9272 145.138C72.7123 145.138 73.2572 144.781 73.2572 144.259V144.248C73.2572 143.849 72.9584 143.58 72.2201 143.41L71.2065 143.175C70.0053 142.9 69.4486 142.355 69.4486 141.423V141.418C69.4486 140.31 70.4799 139.513 71.9213 139.513C73.3744 139.513 74.3061 140.24 74.4174 141.277V141.283H73.2045V141.271C73.0815 140.826 72.6303 140.492 71.9154 140.492C71.2182 140.492 70.7143 140.838 70.7143 141.347V141.359C70.7143 141.757 71.0072 142.004 71.7221 142.173L72.7299 142.402C73.9545 142.689 74.5404 143.211 74.5404 144.131V144.142C74.5404 145.32 73.4154 146.123 71.9037 146.123Z" fill="#1E1410"/>
<path d="M80.6703 146V138.675H78.0101V137.545H84.6371V138.675H81.9828V146H80.6703Z" fill="#1E1410"/>
<path d="M85.6805 146V137.14H86.952V140.603H87.0458C87.3563 139.923 87.9657 139.513 88.8915 139.513C90.3153 139.513 91.1004 140.363 91.1004 141.881V146H89.8348V142.179C89.8348 141.125 89.3954 140.603 88.4637 140.603C87.5321 140.603 86.952 141.242 86.952 142.267V146H85.6805Z" fill="#1E1410"/>
<path d="M95.0677 146.123C93.2044 146.123 92.0794 144.851 92.0794 142.836V142.83C92.0794 140.843 93.2279 139.513 95.0033 139.513C96.7786 139.513 97.8685 140.797 97.8685 142.707V143.152H93.3568C93.3802 144.371 94.0482 145.08 95.097 145.08C95.9115 145.08 96.3978 144.675 96.5501 144.347L96.5736 144.3L97.7982 144.295L97.7865 144.347C97.5755 145.185 96.6966 146.123 95.0677 146.123ZM95.0091 140.556C94.1419 140.556 93.4857 141.148 93.3743 142.244H96.6087C96.5091 141.107 95.8704 140.556 95.0091 140.556Z" fill="#1E1410"/>
<path d="M105.41 146.205C103.014 146.205 101.502 144.494 101.502 141.775V141.763C101.502 139.08 103.032 137.34 105.399 137.34C107.321 137.34 108.686 138.429 108.991 140.064L109.002 140.123H107.69L107.672 140.064C107.367 139.062 106.559 138.5 105.399 138.5C103.834 138.5 102.844 139.765 102.844 141.757V141.769C102.844 143.791 103.84 145.045 105.428 145.045C106.811 145.045 107.754 144.172 107.766 142.871V142.683H105.592V141.623H109.061V142.672C109.061 144.816 107.625 146.205 105.41 146.205Z" fill="#1E1410"/>
<path d="M111.968 146.105C110.755 146.105 109.858 145.367 109.858 144.213V144.201C109.858 143.064 110.714 142.402 112.231 142.308L113.954 142.209V141.646C113.954 140.949 113.514 140.562 112.653 140.562C111.95 140.562 111.487 140.82 111.335 141.271L111.329 141.295H110.104L110.11 141.254C110.262 140.211 111.264 139.513 112.712 139.513C114.311 139.513 115.214 140.31 115.214 141.646V146H113.954V145.097H113.854C113.479 145.742 112.811 146.105 111.968 146.105ZM111.124 144.16C111.124 144.746 111.622 145.091 112.307 145.091C113.257 145.091 113.954 144.47 113.954 143.65V143.105L112.401 143.205C111.522 143.257 111.124 143.574 111.124 144.148V144.16Z" fill="#1E1410"/>
<path d="M116.527 146V139.636H117.798V140.615H117.892C118.173 139.918 118.794 139.513 119.626 139.513C120.493 139.513 121.109 139.965 121.39 140.65H121.49C121.812 139.965 122.544 139.513 123.429 139.513C124.712 139.513 125.462 140.287 125.462 141.611V146H124.197V141.916C124.197 141.037 123.798 140.603 122.966 140.603C122.157 140.603 121.624 141.207 121.624 141.974V146H120.359V141.787C120.359 141.06 119.884 140.603 119.134 140.603C118.366 140.603 117.798 141.259 117.798 142.091V146H116.527Z" fill="#1E1410"/>
<path d="M129.429 146.123C127.566 146.123 126.441 144.851 126.441 142.836V142.83C126.441 140.843 127.59 139.513 129.365 139.513C131.14 139.513 132.23 140.797 132.23 142.707V143.152H127.718C127.742 144.371 128.41 145.08 129.459 145.08C130.273 145.08 130.76 144.675 130.912 144.347L130.935 144.3L132.16 144.295L132.148 144.347C131.937 145.185 131.058 146.123 129.429 146.123ZM129.371 140.556C128.504 140.556 127.847 141.148 127.736 142.244H130.97C130.871 141.107 130.232 140.556 129.371 140.556Z" fill="#1E1410"/>
</g>
<g id="icon">
<circle id="Ellipse 1" cx="79.9962" cy="50" r="50" fill="url(#paint0_linear_847_849)"/>
<g id="Vector">
<path d="M92.0217 70.5473V39.4184H82.7482L76.7482 33.9086H103.871L110.871 39.4184H98.5724V70.5473H92.0217Z" fill="#1E1410"/>
<path fill-rule="evenodd" clip-rule="evenodd" d="M49.1212 53.1529C49.1212 64.9341 55.7227 72.3736 66.463 72.3736C68.423 72.3736 70.2322 72.1221 71.9042 71.6464L68.1765 66.5837C67.6224 66.6689 67.0512 66.7115 66.463 66.7115C59.8614 66.7115 55.7989 61.3795 55.7989 53.1529V53.1021C55.7989 44.8248 59.963 39.5689 66.463 39.5689C72.963 39.5689 77.1016 44.8248 77.1016 53.1021V53.1529C77.1016 57.1119 76.1451 60.3934 74.4261 62.7501L78.3108 68.026C81.8121 64.6857 83.7794 59.5492 83.7794 53.1529V53.1021C83.7794 41.2955 77.127 33.9068 66.463 33.9068C55.8243 33.9068 49.1212 41.2955 49.1212 53.1021V53.1529ZM77.5333 68.7173L73.7247 63.6138L71.0333 59.983H64.6348L69.3575 66.3306L73.0391 71.2818L76.0098 75.2681H82.4083L77.5333 68.7173Z" fill="#1E1410"/>
</g>
</g>
<path id="&#226;&#128;&#156;" d="M21.2265 137.688L19.9483 146.312H16.5398L18.9934 137.688H21.2265ZM25.5744 137.688L24.2962 146.312H20.8877L23.3412 137.688H25.5744Z" fill="#1E1410"/>
<path id="&#226;&#128;&#156;_2" d="M138.415 137.688L139.693 146.312H143.102L140.648 137.688H138.415ZM134.067 137.688L135.346 146.312H138.754L136.301 137.688H134.067Z" fill="#1E1410"/>
</g>
<defs>
<linearGradient id="paint0_linear_847_849" x1="45.0628" y1="37.8789" x2="79.9962" y2="74.7857" gradientUnits="userSpaceOnUse">
<stop stop-color="#FFB703"/>
<stop offset="1" stop-color="#FB6900"/>
</linearGradient>
</defs>
</svg>
