<svg width="86" height="98" viewBox="0 0 86 98" fill="none" xmlns="http://www.w3.org/2000/svg">
<path fill-rule="evenodd" clip-rule="evenodd" d="M43 7.79723C42.3264 7.79723 41.6563 7.81344 40.9903 7.84552C38.5712 8.20675 36.7065 8.8659 35.3959 9.82296C34.0627 10.7966 33.179 12.1597 32.745 13.9122H41.1164V27.7376H27.8616V12.0623C27.8616 11.5729 27.8836 11.0988 27.9275 10.6399C11.6136 17.0318 0 33.4996 0 52.8066C0 77.6646 19.2518 97.8159 43 97.8159C66.7482 97.8159 86 77.6646 86 52.8066C86 31.7471 72.1823 14.0657 53.519 9.15372C53.1165 9.35772 52.7494 9.5808 52.4178 9.82296C51.0846 10.7966 50.2009 12.1597 49.7669 13.9122H58.1383V27.7376H44.8835V12.0623C44.8835 10.5141 45.1033 9.11822 45.5427 7.87463C44.7014 7.82328 43.8536 7.79723 43 7.79723Z" fill="url(#paint0_linear_297_175)"/>
<path fill-rule="evenodd" clip-rule="evenodd" d="M26.8842 15.6699C27.0139 15.6081 27.1669 15.6681 27.2259 15.8039C27.2849 15.9396 27.2276 16.0997 27.0979 16.1615C26.5736 16.4112 26.0555 16.6729 25.5441 16.9462C25.4172 17.014 25.2618 16.9613 25.197 16.8284C25.1322 16.6956 25.1826 16.5329 25.3095 16.4651C25.8278 16.1881 26.3528 15.9229 26.8842 15.6699ZM58.9022 16.1615C58.7725 16.0997 58.7152 15.9396 58.7742 15.8039C58.8332 15.6681 58.9862 15.6081 59.1159 15.6699C59.6473 15.9229 60.1723 16.1881 60.6906 16.4651C60.8175 16.533 60.8679 16.6956 60.8031 16.8285C60.7383 16.9613 60.5829 17.014 60.456 16.9462C59.9446 16.6729 59.4265 16.4112 58.9022 16.1615ZM23.0157 17.7949C23.138 17.7183 23.2964 17.7599 23.3696 17.8879C23.4428 18.0158 23.403 18.1817 23.2808 18.2583C22.7868 18.5679 22.3 18.8888 21.8207 19.2206C21.7019 19.3028 21.5418 19.2687 21.4632 19.1443C21.3846 19.0199 21.4172 18.8524 21.5361 18.7701C22.0218 18.4338 22.5151 18.1086 23.0157 17.7949ZM62.7193 18.2583C62.5971 18.1817 62.5573 18.0158 62.6305 17.8879C62.7037 17.7599 62.8622 17.7183 62.9844 17.7949C63.485 18.1086 63.9784 18.4338 64.4641 18.7701C64.5829 18.8524 64.6155 19.0199 64.5369 19.1443C64.4583 19.2687 64.2983 19.3029 64.1794 19.2206C63.7001 18.8888 63.2133 18.5679 62.7193 18.2583ZM19.3987 20.3603C19.512 20.2699 19.6739 20.2927 19.7603 20.4113C19.8467 20.5299 19.8248 20.6994 19.7115 20.7898C19.254 21.155 18.8044 21.5308 18.3633 21.9167C18.254 22.0123 18.0913 21.9971 17.9999 21.8826C17.9085 21.7682 17.9231 21.5979 18.0324 21.5022C18.4794 21.1112 18.9349 20.7304 19.3987 20.3603ZM66.2886 20.7898C66.1753 20.6994 66.1535 20.5299 66.2399 20.4113C66.3263 20.2927 66.4882 20.2699 66.6015 20.3603C67.0652 20.7304 67.5207 21.1112 67.9677 21.5023C68.0771 21.5979 68.0916 21.7682 68.0002 21.8827C67.9089 21.9971 67.7462 22.0123 67.6368 21.9167C67.1957 21.5308 66.7462 21.155 66.2886 20.7898ZM16.0776 23.332C16.1806 23.2289 16.3439 23.2327 16.4424 23.3405C16.5409 23.4483 16.5372 23.6193 16.4343 23.7223C16.0186 24.1385 15.6118 24.5642 15.2143 24.9994C15.1158 25.1071 14.9525 25.111 14.8495 25.0079C14.7465 24.9048 14.7429 24.7338 14.8413 24.626C15.2442 24.1851 15.6564 23.7537 16.0776 23.332ZM69.5659 23.7224C69.4629 23.6193 69.4592 23.4483 69.5577 23.3405C69.6562 23.2327 69.8195 23.2289 69.9225 23.332C70.3437 23.7537 70.7559 24.1851 71.1588 24.6261C71.2573 24.7338 71.2536 24.9048 71.1506 25.0079C71.0477 25.111 70.8843 25.1071 70.7859 24.9994C70.3883 24.5643 69.9815 24.1385 69.5659 23.7224ZM13.0933 26.6722C13.1847 26.5577 13.3474 26.5425 13.4567 26.6381C13.566 26.7338 13.5806 26.9041 13.4892 27.0185C13.1205 27.4803 12.7616 27.9508 12.4126 28.4298C12.3262 28.5484 12.1643 28.5712 12.051 28.4808C11.9377 28.3903 11.9159 28.2209 12.0023 28.1023C12.3559 27.6169 12.7197 27.1401 13.0933 26.6722ZM72.5109 27.0185C72.4195 26.9041 72.4341 26.7338 72.5434 26.6381C72.6528 26.5425 72.8155 26.5577 72.9068 26.6722C73.2804 27.1401 73.6442 27.6169 73.9978 28.1023C74.0842 28.2209 74.0624 28.3903 73.9491 28.4808C73.8358 28.5712 73.6739 28.5484 73.5875 28.4298C73.2385 27.9508 72.8796 27.4803 72.5109 27.0185ZM10.4831 30.3395C10.5617 30.2151 10.7218 30.181 10.8406 30.2633C10.9594 30.3455 10.9921 30.5131 10.9135 30.6375C10.5965 31.1392 10.2899 31.6487 9.99413 32.1658C9.92093 32.2938 9.76249 32.3354 9.64024 32.2588C9.51799 32.1822 9.47822 32.0163 9.55141 31.8883C9.85116 31.3643 10.1618 30.8479 10.4831 30.3395ZM75.0867 30.6375C75.0081 30.5131 75.0407 30.3456 75.1595 30.2633C75.2784 30.181 75.4384 30.2151 75.517 30.3395C75.8383 30.848 76.149 31.3643 76.4487 31.8884C76.5219 32.0163 76.4821 32.1822 76.3599 32.2588C76.2376 32.3354 76.0792 32.2938 76.006 32.1658C75.7102 31.6487 75.4037 31.1392 75.0867 30.6375ZM8.28103 34.2893C8.34582 34.1565 8.50122 34.1038 8.62813 34.1716C8.75504 34.2394 8.80539 34.4021 8.7406 34.5349C8.47949 35.0702 8.22951 35.6125 7.99095 36.1613C7.93195 36.2971 7.77897 36.357 7.64927 36.2953C7.51958 36.2335 7.46227 36.0734 7.52128 35.9376C7.76305 35.3814 8.01641 34.8318 8.28103 34.2893ZM77.2595 34.5349C77.1947 34.4021 77.2451 34.2394 77.372 34.1716C77.4989 34.1038 77.6543 34.1565 77.7191 34.2893C77.9837 34.8318 78.2371 35.3814 78.4788 35.9376C78.5378 36.0734 78.4805 36.2335 78.3508 36.2953C78.2211 36.357 78.0682 36.2971 78.0092 36.1613C77.7706 35.6125 77.5206 35.0702 77.2595 34.5349ZM6.51657 38.4737C6.56666 38.3341 6.7154 38.2634 6.8488 38.3158C6.98219 38.3682 7.04972 38.5239 6.99964 38.6636C6.79795 39.2258 6.60795 39.7939 6.42993 40.3678C6.38592 40.5096 6.24038 40.5873 6.10486 40.5412C5.96934 40.4952 5.89515 40.3428 5.93916 40.201C6.11958 39.6194 6.31216 39.0435 6.51657 38.4737ZM79.0005 38.6636C78.9504 38.5239 79.0179 38.3682 79.1513 38.3158C79.2847 38.2634 79.4335 38.3341 79.4836 38.4737C79.688 39.0435 79.8805 39.6194 80.061 40.201C80.105 40.3428 80.0308 40.4952 79.8953 40.5412C79.7597 40.5873 79.6142 40.5096 79.5702 40.3678C79.3922 39.794 79.2022 39.2258 79.0005 38.6636ZM5.21418 42.8395C5.2489 42.6949 5.38906 42.6071 5.52726 42.6434C5.66546 42.6797 5.74934 42.8265 5.71463 42.9711C5.57489 43.5533 5.44728 44.1406 5.33208 44.7326C5.30364 44.8788 5.1674 44.9731 5.02778 44.9434C4.88816 44.9136 4.79802 44.771 4.82646 44.6248C4.94321 44.0248 5.07255 43.4296 5.21418 42.8395ZM80.2855 42.9711C80.2508 42.8265 80.3347 42.6797 80.4729 42.6434C80.6111 42.6071 80.7512 42.6949 80.7859 42.8395C80.9276 43.4296 81.0569 44.0249 81.1737 44.6249C81.2021 44.771 81.112 44.9136 80.9723 44.9434C80.8327 44.9731 80.6965 44.8788 80.668 44.7327C80.5528 44.1406 80.4252 43.5534 80.2855 42.9711ZM4.39042 47.3298C4.40939 47.1819 4.53924 47.0782 4.68046 47.098C4.82168 47.1179 4.9208 47.2538 4.90184 47.4016C4.82561 47.996 4.76179 48.5944 4.71063 49.1967C4.69801 49.3453 4.57273 49.455 4.4308 49.4418C4.28887 49.4286 4.18404 49.2975 4.19666 49.1489C4.2485 48.5386 4.31318 47.9321 4.39042 47.3298ZM81.0983 47.4016C81.0793 47.2538 81.1784 47.1179 81.3197 47.0981C81.4609 47.0782 81.5907 47.182 81.6097 47.3298C81.6869 47.9321 81.7516 48.5386 81.8035 49.1489C81.8161 49.2975 81.7113 49.4286 81.5693 49.4418C81.4274 49.455 81.3021 49.3453 81.2895 49.1967C81.2383 48.5944 81.1745 47.996 81.0983 47.4016ZM4.05173 51.8886C4.05488 51.7395 4.17291 51.6213 4.31537 51.6246C4.45782 51.6279 4.57075 51.7514 4.56761 51.9006C4.56125 52.2017 4.55806 52.5037 4.55806 52.8065C4.55806 53.1093 4.56125 53.4113 4.56761 53.7125C4.57075 53.8616 4.45782 53.9852 4.31537 53.9885C4.17291 53.9918 4.05488 53.8736 4.05173 53.7244C4.04529 53.4193 4.04205 53.1133 4.04205 52.8065C4.04205 52.4998 4.04529 52.1938 4.05173 51.8886ZM81.4325 51.9006C81.4294 51.7515 81.5423 51.6279 81.6848 51.6246C81.8272 51.6213 81.9452 51.7395 81.9484 51.8886C81.9548 52.1938 81.9581 52.4998 81.9581 52.8065C81.9581 53.1133 81.9548 53.4193 81.9484 53.7245C81.9452 53.8736 81.8272 53.9918 81.6848 53.9885C81.5423 53.9852 81.4294 53.8616 81.4325 53.7125C81.4389 53.4113 81.4421 53.1093 81.4421 52.8065C81.4421 52.5038 81.4389 52.2017 81.4325 51.9006ZM4.19666 56.4642C4.18404 56.3156 4.28887 56.1845 4.4308 56.1713C4.57273 56.1581 4.69801 56.2678 4.71063 56.4163C4.76179 57.0186 4.82561 57.6171 4.90184 58.2114C4.9208 58.3593 4.82168 58.4952 4.68046 58.515C4.53923 58.5349 4.40939 58.4311 4.39042 58.2833C4.31318 57.681 4.24849 57.0745 4.19666 56.4642ZM81.2895 56.4164C81.3021 56.2678 81.4274 56.1581 81.5693 56.1713C81.7113 56.1845 81.8161 56.3156 81.8035 56.4642C81.7516 57.0745 81.6869 57.681 81.6097 58.2833C81.5907 58.4311 81.4609 58.5349 81.3197 58.515C81.1784 58.4952 81.0793 58.3593 81.0983 58.2115C81.1745 57.6171 81.2383 57.0187 81.2895 56.4164ZM4.82645 60.9882C4.79802 60.8421 4.88815 60.6995 5.02777 60.6697C5.1674 60.6399 5.30364 60.7343 5.33208 60.8804C5.44728 61.4724 5.57489 62.0597 5.71462 62.642C5.74934 62.7866 5.66545 62.9333 5.52726 62.9697C5.38906 63.006 5.24889 62.9182 5.21417 62.7736C5.07255 62.1835 4.94321 61.5882 4.82645 60.9882ZM80.668 60.8804C80.6965 60.7343 80.8327 60.64 80.9723 60.6697C81.112 60.6995 81.2021 60.8421 81.1737 60.9882C81.0569 61.5882 80.9276 62.1835 80.7859 62.7736C80.7512 62.9182 80.6111 63.006 80.4729 62.9697C80.3347 62.9334 80.2508 62.7866 80.2855 62.642C80.4252 62.0597 80.5528 61.4725 80.668 60.8804ZM5.93916 65.4121C5.89515 65.2703 5.96934 65.1179 6.10486 65.0719C6.24038 65.0258 6.38592 65.1034 6.42993 65.2453C6.60795 65.8191 6.79795 66.3873 6.99963 66.9495C7.04972 67.0891 6.98219 67.2448 6.84879 67.2973C6.71539 67.3497 6.56665 67.279 6.51656 67.1394C6.31216 66.5696 6.11958 65.9937 5.93916 65.4121ZM79.5702 65.2453C79.6142 65.1035 79.7597 65.0258 79.8953 65.0719C80.0308 65.1179 80.105 65.2703 80.061 65.4121C79.8805 65.9937 79.688 66.5696 79.4836 67.1394C79.4335 67.279 79.2847 67.3497 79.1513 67.2973C79.0179 67.2449 78.9504 67.0892 79.0005 66.9495C79.2022 66.3873 79.3922 65.8191 79.5702 65.2453ZM7.52128 69.6755C7.46227 69.5397 7.51958 69.3796 7.64927 69.3178C7.77897 69.256 7.93195 69.316 7.99095 69.4518C8.2295 70.0006 8.47949 70.5429 8.74059 71.0782C8.80538 71.211 8.75503 71.3737 8.62813 71.4415C8.50122 71.5093 8.34582 71.4566 8.28103 71.3238C8.0164 70.7812 7.76305 70.2317 7.52128 69.6755ZM78.0092 69.4518C78.0682 69.316 78.2211 69.256 78.3508 69.3178C78.4805 69.3796 78.5378 69.5397 78.4788 69.6755C78.2371 70.2317 77.9837 70.7813 77.7191 71.3238C77.6543 71.4566 77.4989 71.5093 77.372 71.4415C77.2451 71.3737 77.1947 71.211 77.2595 71.0782C77.5206 70.5429 77.7706 70.0006 78.0092 69.4518ZM9.55141 73.7247C9.47822 73.5968 9.51798 73.4309 9.64024 73.3543C9.76249 73.2777 9.92093 73.3193 9.99412 73.4473C10.2899 73.9644 10.5964 74.4739 10.9135 74.9756C10.9921 75.1 10.9594 75.2675 10.8406 75.3498C10.7217 75.4321 10.5617 75.3979 10.4831 75.2735C10.1618 74.7651 9.85116 74.2488 9.55141 73.7247ZM76.006 73.4473C76.0792 73.3193 76.2376 73.2777 76.3599 73.3543C76.4821 73.4309 76.5219 73.5968 76.4487 73.7247C76.1489 74.2488 75.8383 74.7651 75.517 75.2736C75.4384 75.398 75.2784 75.4321 75.1595 75.3498C75.0407 75.2675 75.008 75.1 75.0867 74.9756C75.4037 74.4739 75.7102 73.9644 76.006 73.4473ZM12.0023 77.5108C11.9159 77.3922 11.9377 77.2228 12.051 77.1323C12.1643 77.0419 12.3262 77.0647 12.4126 77.1833C12.7616 77.6623 13.1205 78.1328 13.4892 78.5946C13.5806 78.709 13.566 78.8793 13.4567 78.975C13.3474 79.0706 13.1846 79.0554 13.0933 78.9409C12.7197 78.473 12.3559 77.9962 12.0023 77.5108ZM73.5875 77.1833C73.6739 77.0647 73.8358 77.0419 73.9491 77.1323C74.0624 77.2228 74.0842 77.3922 73.9978 77.5108C73.6442 77.9962 73.2804 78.473 72.9068 78.9409C72.8155 79.0554 72.6528 79.0706 72.5434 78.975C72.4341 78.8793 72.4195 78.709 72.5109 78.5946C72.8796 78.1328 73.2385 77.6623 73.5875 77.1833ZM14.8413 80.987C14.7429 80.8792 14.7465 80.7083 14.8495 80.6052C14.9525 80.5021 15.1158 80.5059 15.2143 80.6137C15.6118 81.0488 16.0186 81.4746 16.4343 81.8907C16.5372 81.9938 16.5409 82.1648 16.4424 82.2726C16.3439 82.3804 16.1806 82.3842 16.0776 82.2811C15.6564 81.8594 15.2442 81.4279 14.8413 80.987ZM70.7859 80.6137C70.8843 80.506 71.0477 80.5021 71.1506 80.6052C71.2536 80.7083 71.2572 80.8793 71.1588 80.987C70.7559 81.428 70.3437 81.8594 69.9225 82.2811C69.8195 82.3842 69.6562 82.3804 69.5577 82.2726C69.4592 82.1648 69.4629 81.9938 69.5658 81.8907C69.9815 81.4746 70.3883 81.0489 70.7859 80.6137ZM18.0324 84.1108C17.9231 84.0152 17.9085 83.8449 17.9999 83.7304C18.0912 83.616 18.254 83.6008 18.3633 83.6964C18.8044 84.0823 19.2539 84.458 19.7115 84.8233C19.8248 84.9137 19.8466 85.0832 19.7602 85.2018C19.6738 85.3204 19.5119 85.3432 19.3986 85.2528C18.9349 84.8827 18.4794 84.5019 18.0324 84.1108ZM67.6368 83.6964C67.7462 83.6008 67.9089 83.616 68.0002 83.7304C68.0916 83.8449 68.077 84.0152 67.9677 84.1108C67.5207 84.5019 67.0652 84.8827 66.6015 85.2528C66.4882 85.3432 66.3263 85.3204 66.2399 85.2018C66.1535 85.0832 66.1753 84.9137 66.2886 84.8233C66.7462 84.4581 67.1957 84.0823 67.6368 83.6964ZM21.536 86.843C21.4172 86.7607 21.3846 86.5932 21.4632 86.4688C21.5418 86.3444 21.7018 86.3102 21.8207 86.3925C22.3 86.7243 22.7868 87.0452 23.2808 87.3548C23.403 87.4314 23.4428 87.5973 23.3696 87.7252C23.2964 87.8532 23.138 87.8948 23.0157 87.8182C22.5151 87.5045 22.0217 87.1793 21.536 86.843ZM64.1794 86.3925C64.2983 86.3102 64.4583 86.3444 64.5369 86.4688C64.6155 86.5932 64.5829 86.7607 64.4641 86.843C63.9784 87.1793 63.485 87.5045 62.9844 87.8182C62.8621 87.8948 62.7037 87.8532 62.6305 87.7252C62.5573 87.5973 62.5971 87.4314 62.7193 87.3548C63.2133 87.0452 63.7001 86.7243 64.1794 86.3925ZM25.3095 89.148C25.1826 89.0801 25.1322 88.9175 25.197 88.7846C25.2618 88.6518 25.4172 88.5991 25.5441 88.6669C26.0555 88.9402 26.5736 89.2019 27.0979 89.4516C27.2276 89.5134 27.2849 89.6735 27.2259 89.8092C27.1669 89.945 27.0139 90.005 26.8842 89.9432C26.3528 89.6901 25.8278 89.4249 25.3095 89.148ZM60.456 88.6669C60.5829 88.5991 60.7383 88.6518 60.8031 88.7846C60.8679 88.9175 60.8175 89.0801 60.6906 89.148C60.1723 89.4249 59.6473 89.6901 59.1159 89.9432C58.9862 90.005 58.8332 89.945 58.7742 89.8092C58.7152 89.6735 58.7725 89.5134 58.9022 89.4516C59.4265 89.2019 59.9446 88.9402 60.456 88.6669ZM29.3071 90.9949C29.1737 90.9424 29.1061 90.7868 29.1562 90.6471C29.2063 90.5075 29.3551 90.4368 29.4885 90.4892C30.0256 90.7003 30.5684 90.8992 31.1166 91.0856C31.2521 91.1316 31.3263 91.284 31.2823 91.4258C31.2383 91.5677 31.0928 91.6453 30.9572 91.5993C30.4016 91.4104 29.8514 91.2088 29.3071 90.9949ZM56.5117 90.4892C56.645 90.4368 56.7938 90.5075 56.8439 90.6471C56.894 90.7868 56.8264 90.9425 56.693 90.9949C56.1487 91.2088 55.5985 91.4104 55.0429 91.5993C54.9074 91.6453 54.7618 91.5677 54.7178 91.4258C54.6738 91.284 54.748 91.1316 54.8835 91.0856C55.4317 90.8992 55.9745 90.7003 56.5117 90.4892ZM52.3964 91.8343C52.5346 91.798 52.6748 91.8858 52.7095 92.0304C52.7442 92.1751 52.6603 92.3218 52.5221 92.3581C51.9584 92.5064 51.3897 92.6418 50.8165 92.764C50.6769 92.7937 50.5406 92.6994 50.5122 92.5532C50.4837 92.4071 50.5739 92.2645 50.7135 92.2347C51.2791 92.1141 51.8402 91.9806 52.3964 91.8343ZM33.478 92.3581C33.3398 92.3218 33.2559 92.1751 33.2906 92.0304C33.3253 91.8858 33.4655 91.798 33.6037 91.8343C34.16 91.9806 34.721 92.1141 35.2866 92.2347C35.4262 92.2645 35.5164 92.4071 35.4879 92.5532C35.4595 92.6994 35.3232 92.7937 35.1836 92.764C34.6104 92.6418 34.0418 92.5064 33.478 92.3581ZM48.1637 92.6851C48.3049 92.6652 48.4347 92.769 48.4537 92.9168C48.4727 93.0646 48.3735 93.2005 48.2323 93.2204C47.6569 93.3012 47.0775 93.3689 46.4944 93.4232C46.3525 93.4364 46.2272 93.3267 46.2146 93.1781C46.202 93.0295 46.3068 92.8984 46.4487 92.8852C47.0241 92.8317 47.5959 92.7648 48.1637 92.6851ZM37.7678 93.2204C37.6266 93.2005 37.5274 93.0646 37.5464 92.9168C37.5654 92.769 37.6952 92.6652 37.8364 92.6851C38.4042 92.7648 38.976 92.8317 39.5514 92.8852C39.6933 92.8984 39.7982 93.0295 39.7855 93.1781C39.7729 93.3267 39.6476 93.4364 39.5057 93.4232C38.9226 93.3689 38.3432 93.3012 37.7678 93.2204ZM43.8656 93.0349C44.008 93.0316 44.1261 93.1498 44.1292 93.2989C44.1324 93.448 44.0194 93.5716 43.877 93.5749C43.5855 93.5816 43.2931 93.585 43.0001 93.585C42.707 93.585 42.4147 93.5816 42.1231 93.5749C41.9807 93.5716 41.8677 93.448 41.8709 93.2989C41.874 93.1498 41.9921 93.0316 42.1345 93.0349C42.4223 93.0416 42.7108 93.0449 43.0001 93.0449C43.2893 93.0449 43.5779 93.0416 43.8656 93.0349Z" fill="white"/>
<path d="M53.3419 71.3029V43.2811H45.3667L40.2067 38.3212H63.5325L69.5525 43.2811H58.9755V71.3029H53.3419Z" fill="#1E1410"/>
<path fill-rule="evenodd" clip-rule="evenodd" d="M16.4474 55.6447C16.4474 66.25 22.1248 72.9469 31.3614 72.9469C33.047 72.9469 34.6029 72.7205 36.0408 72.2922L32.835 67.7349C32.3585 67.8116 31.8672 67.8499 31.3614 67.8499C25.684 67.8499 22.1903 63.0501 22.1903 55.6447V55.5989C22.1903 48.1478 25.7714 43.4165 31.3614 43.4165C36.9514 43.4165 40.5106 48.1478 40.5106 55.5989V55.6447C40.5106 59.2085 39.688 62.1624 38.2097 64.2839L41.5505 69.0332C44.5617 66.0263 46.2535 61.4026 46.2535 55.6447V55.5989C46.2535 44.9708 40.5325 38.3196 31.3614 38.3196C22.2121 38.3196 16.4474 44.9708 16.4474 55.5989V55.6447ZM40.8818 69.6556L37.6064 65.0615L35.2918 61.793H29.7892L33.8507 67.5071L37.0169 71.9641L39.5717 75.5525H45.0743L40.8818 69.6556Z" fill="#1E1410"/>
<defs>
<linearGradient id="paint0_linear_297_175" x1="12.9572" y1="37.166" x2="47.0268" y2="68.8717" gradientUnits="userSpaceOnUse">
<stop stop-color="#FFB703"/>
<stop offset="1" stop-color="#FB6900"/>
</linearGradient>
</defs>
</svg>
