<svg width="257" height="352" viewBox="0 0 257 352" fill="none" xmlns="http://www.w3.org/2000/svg">
<g opacity="0.6">
<line y1="-0.865" x2="10.7456" y2="-0.865" transform="matrix(0.341905 -0.939734 0.939651 0.342135 176.088 11.2734)" stroke="#FB6900" stroke-width="1.73"/>
<line y1="-0.865" x2="10.7451" y2="-0.865" transform="matrix(0.499857 -0.866108 0.865943 0.500143 198.986 10.9375)" stroke="#FB6900" stroke-width="1.73"/>
<line y1="-0.865" x2="10.7444" y2="-0.865" transform="matrix(0.642644 -0.766165 0.765924 0.642931 222.005 10.6016)" stroke="#FB6900" stroke-width="1.73"/>
<line y1="-0.865" x2="10.7437" y2="-0.865" transform="matrix(0.765923 -0.642932 0.642643 0.766166 245.179 9.93066)" stroke="#FB6900" stroke-width="1.73"/>
<line y1="-0.865" x2="10.7437" y2="-0.865" transform="matrix(-0.765924 -0.642931 0.642644 -0.766165 15.8267 9.93066)" stroke="#FB6900" stroke-width="1.73"/>
<line y1="-0.865" x2="10.7444" y2="-0.865" transform="matrix(-0.642644 -0.766165 0.765924 -0.642931 39.0039 10.6016)" stroke="#FB6900" stroke-width="1.73"/>
<line y1="-0.865" x2="10.7451" y2="-0.865" transform="matrix(-0.499857 -0.866108 0.865943 -0.500143 62.0234 10.9375)" stroke="#FB6900" stroke-width="1.73"/>
<line y1="-0.865" x2="10.7456" y2="-0.865" transform="matrix(-0.341905 -0.939734 0.939651 -0.342135 84.9209 11.2734)" stroke="#FB6900" stroke-width="1.73"/>
<line y1="-0.865" x2="10.746" y2="-0.865" transform="matrix(-0.173584 -0.984819 0.984796 -0.173712 107.735 11.6104)" stroke="#FB6900" stroke-width="1.73"/>
<line x1="129.639" y1="11.6104" x2="129.639" y2="0.864262" stroke="#FB6900" stroke-width="1.73"/>
<line y1="-0.865" x2="10.746" y2="-0.865" transform="matrix(0.173584 -0.984819 0.984796 0.173712 153.274 11.6104)" stroke="#FB6900" stroke-width="1.73"/>
<line y1="-0.865" x2="10.7456" y2="-0.865" transform="matrix(0.341905 -0.939734 0.939651 0.342135 151.92 30.0791)" stroke="#FB6900" stroke-width="1.73"/>
<line y1="-0.865" x2="10.7451" y2="-0.865" transform="matrix(0.499857 -0.866108 0.865943 0.500143 174.814 29.7432)" stroke="#FB6900" stroke-width="1.73"/>
<line y1="-0.865" x2="10.7444" y2="-0.865" transform="matrix(0.642643 -0.766166 0.765923 0.642932 197.833 29.4082)" stroke="#FB6900" stroke-width="1.73"/>
<line y1="-0.865" x2="10.7437" y2="-0.865" transform="matrix(0.765924 -0.642932 0.642644 0.766165 221.011 28.7363)" stroke="#FB6900" stroke-width="1.73"/>
<line y1="-0.865" x2="10.743" y2="-0.865" transform="matrix(0.865943 -0.500143 0.499857 0.866108 244.374 27.7285)" stroke="#FB6900" stroke-width="1.73"/>
<line y1="-0.865" x2="10.7444" y2="-0.865" transform="matrix(-0.642644 -0.766165 0.765924 -0.642932 14.8364 29.4082)" stroke="#FB6900" stroke-width="1.73"/>
<line y1="-0.865" x2="10.7451" y2="-0.865" transform="matrix(-0.499857 -0.866108 0.865943 -0.500143 37.8555 29.7432)" stroke="#FB6900" stroke-width="1.73"/>
<line y1="-0.865" x2="10.7456" y2="-0.865" transform="matrix(-0.341905 -0.939734 0.939651 -0.342135 60.75 30.0791)" stroke="#FB6900" stroke-width="1.73"/>
<line y1="-0.865" x2="10.746" y2="-0.865" transform="matrix(-0.173584 -0.984819 0.984796 -0.173712 83.5635 30.4131)" stroke="#FB6900" stroke-width="1.73"/>
<line x1="105.468" y1="30.4131" x2="105.468" y2="19.667" stroke="#FB6900" stroke-width="1.73"/>
<line y1="-0.865" x2="10.746" y2="-0.865" transform="matrix(0.173584 -0.984819 0.984796 0.173712 129.106 30.4131)" stroke="#FB6900" stroke-width="1.73"/>
<line y1="-0.865" x2="10.7456" y2="-0.865" transform="matrix(0.341904 -0.939735 0.93965 0.342136 127.749 48.8848)" stroke="#FB6900" stroke-width="1.73"/>
<line y1="-0.865" x2="10.7451" y2="-0.865" transform="matrix(0.499857 -0.866108 0.865943 0.500143 150.646 48.5479)" stroke="#FB6900" stroke-width="1.73"/>
<line y1="-0.865" x2="10.7444" y2="-0.865" transform="matrix(0.642643 -0.766166 0.765923 0.642932 173.666 48.2119)" stroke="#FB6900" stroke-width="1.73"/>
<line y1="-0.865" x2="10.7437" y2="-0.865" transform="matrix(0.765924 -0.642931 0.642644 0.766165 196.843 47.541)" stroke="#FB6900" stroke-width="1.73"/>
<line y1="-0.865" x2="10.743" y2="-0.865" transform="matrix(0.865943 -0.500143 0.499857 0.866108 220.206 46.5342)" stroke="#FB6900" stroke-width="1.73"/>
<line y1="-0.865" x2="10.7425" y2="-0.865" transform="matrix(0.939651 -0.342135 0.341906 0.939734 243.781 45.8623)" stroke="#FB6900" stroke-width="1.73"/>
<line y1="-0.865" x2="10.7451" y2="-0.865" transform="matrix(-0.499857 -0.866108 0.865943 -0.500143 13.6841 48.5479)" stroke="#FB6900" stroke-width="1.73"/>
<line y1="-0.865" x2="10.7456" y2="-0.865" transform="matrix(-0.341905 -0.939735 0.939651 -0.342135 36.582 48.8848)" stroke="#FB6900" stroke-width="1.73"/>
<line y1="-0.865" x2="10.746" y2="-0.865" transform="matrix(-0.173584 -0.984819 0.984796 -0.173712 59.3955 49.2207)" stroke="#FB6900" stroke-width="1.73"/>
<line x1="81.3005" y1="49.2207" x2="81.3005" y2="38.4746" stroke="#FB6900" stroke-width="1.73"/>
<line y1="-0.865" x2="10.746" y2="-0.865" transform="matrix(0.173584 -0.984819 0.984796 0.173712 104.935 49.2207)" stroke="#FB6900" stroke-width="1.73"/>
<line y1="-0.865" x2="10.7456" y2="-0.865" transform="matrix(0.341905 -0.939735 0.939651 0.342135 103.581 67.6895)" stroke="#FB6900" stroke-width="1.73"/>
<line y1="-0.865" x2="10.7451" y2="-0.865" transform="matrix(0.499857 -0.866108 0.865943 0.500143 126.476 67.3555)" stroke="#FB6900" stroke-width="1.73"/>
<line y1="-0.865" x2="10.7444" y2="-0.865" transform="matrix(0.642644 -0.766165 0.765924 0.642931 149.495 67.0186)" stroke="#FB6900" stroke-width="1.73"/>
<line y1="-0.865" x2="10.7437" y2="-0.865" transform="matrix(0.765924 -0.642931 0.642644 0.766165 172.672 66.3467)" stroke="#FB6900" stroke-width="1.73"/>
<line y1="-0.865" x2="10.743" y2="-0.865" transform="matrix(0.865943 -0.500143 0.499857 0.866108 196.038 65.3398)" stroke="#FB6900" stroke-width="1.73"/>
<line y1="-0.865" x2="10.7425" y2="-0.865" transform="matrix(0.939651 -0.342135 0.341905 0.939734 219.613 64.667)" stroke="#FB6900" stroke-width="1.73"/>
<line y1="-0.865" x2="10.7421" y2="-0.865" transform="matrix(0.984796 -0.173713 0.173584 0.984819 243.42 63.6602)" stroke="#FB6900" stroke-width="1.73"/>
<line y1="-0.865" x2="10.7456" y2="-0.865" transform="matrix(-0.341905 -0.939735 0.939651 -0.342135 12.4106 67.6895)" stroke="#FB6900" stroke-width="1.73"/>
<line y1="-0.865" x2="10.746" y2="-0.865" transform="matrix(-0.173584 -0.984819 0.984796 -0.173712 35.2241 68.0254)" stroke="#FB6900" stroke-width="1.73"/>
<line x1="57.1291" y1="68.0254" x2="57.1291" y2="57.2793" stroke="#FB6900" stroke-width="1.73"/>
<line y1="-0.865" x2="10.746" y2="-0.865" transform="matrix(0.173584 -0.984819 0.984796 0.173712 80.7671 68.0254)" stroke="#FB6900" stroke-width="1.73"/>
<line y1="-0.865" x2="10.7456" y2="-0.865" transform="matrix(0.341904 -0.939735 0.939651 0.342136 79.4097 86.4971)" stroke="#FB6900" stroke-width="1.73"/>
<line y1="-0.865" x2="10.7451" y2="-0.865" transform="matrix(0.499857 -0.866108 0.865943 0.500143 102.308 86.1602)" stroke="#FB6900" stroke-width="1.73"/>
<line y1="-0.865" x2="10.7444" y2="-0.865" transform="matrix(0.642644 -0.766165 0.765924 0.642931 125.327 85.8242)" stroke="#FB6900" stroke-width="1.73"/>
<line y1="-0.865" x2="10.7437" y2="-0.865" transform="matrix(0.765924 -0.642931 0.642644 0.766165 148.504 85.1514)" stroke="#FB6900" stroke-width="1.73"/>
<line y1="-0.865" x2="10.743" y2="-0.865" transform="matrix(0.865943 -0.500143 0.499857 0.866108 171.867 84.1445)" stroke="#FB6900" stroke-width="1.73"/>
<line y1="-0.865" x2="10.7425" y2="-0.865" transform="matrix(0.939651 -0.342135 0.341905 0.939734 195.442 83.4727)" stroke="#FB6900" stroke-width="1.73"/>
<line y1="-0.865" x2="10.7421" y2="-0.865" transform="matrix(0.984796 -0.173712 0.173584 0.984819 219.249 82.4658)" stroke="#FB6900" stroke-width="1.73"/>
<line y1="-0.865" x2="10.746" y2="-0.865" transform="matrix(-0.173584 -0.984819 0.984796 -0.173712 11.0566 86.8311)" stroke="#FB6900" stroke-width="1.73"/>
<line x1="32.9612" y1="86.8311" x2="32.9612" y2="76.085" stroke="#FB6900" stroke-width="1.73"/>
<line y1="-0.865" x2="10.746" y2="-0.865" transform="matrix(0.173584 -0.984819 0.984796 0.173712 56.5962 86.8311)" stroke="#FB6900" stroke-width="1.73"/>
<line x1="256.724" y1="82.324" x2="245.982" y2="82.324" stroke="#FB6900" stroke-width="1.73"/>
<line y1="-0.865" x2="10.7456" y2="-0.865" transform="matrix(0.341905 -0.939735 0.939651 0.342135 55.2417 105.302)" stroke="#FB6900" stroke-width="1.73"/>
<line y1="-0.865" x2="10.7451" y2="-0.865" transform="matrix(0.499857 -0.866108 0.865943 0.500143 78.1362 104.966)" stroke="#FB6900" stroke-width="1.73"/>
<line y1="-0.865" x2="10.7444" y2="-0.865" transform="matrix(0.642644 -0.766165 0.765924 0.642931 101.155 104.63)" stroke="#FB6900" stroke-width="1.73"/>
<line y1="-0.865" x2="10.7437" y2="-0.865" transform="matrix(0.765923 -0.642932 0.642643 0.766165 124.333 103.959)" stroke="#FB6900" stroke-width="1.73"/>
<line y1="-0.865" x2="10.743" y2="-0.865" transform="matrix(0.865943 -0.500143 0.499857 0.866108 147.699 102.95)" stroke="#FB6900" stroke-width="1.73"/>
<line y1="-0.865" x2="10.7425" y2="-0.865" transform="matrix(0.939651 -0.342135 0.341905 0.939735 171.274 102.279)" stroke="#FB6900" stroke-width="1.73"/>
<line y1="-0.865" x2="10.7421" y2="-0.865" transform="matrix(0.984796 -0.173713 0.173584 0.984819 195.081 101.271)" stroke="#FB6900" stroke-width="1.73"/>
<line x1="8.78979" y1="105.638" x2="8.78979" y2="94.8916" stroke="#FB6900" stroke-width="1.73"/>
<line y1="-0.865" x2="10.746" y2="-0.865" transform="matrix(0.173584 -0.984819 0.984796 0.173712 32.4282 105.638)" stroke="#FB6900" stroke-width="1.73"/>
<line x1="232.553" y1="101.129" x2="221.811" y2="101.129" stroke="#FB6900" stroke-width="1.73"/>
<line y1="-0.865" x2="10.7421" y2="-0.865" transform="matrix(-0.984796 -0.173713 0.173584 -0.984819 256.603 101.271)" stroke="#FB6900" stroke-width="1.73"/>
<line y1="-0.865" x2="10.7456" y2="-0.865" transform="matrix(0.341905 -0.939734 0.939651 0.342135 31.0703 124.107)" stroke="#FB6900" stroke-width="1.73"/>
<line y1="-0.865" x2="10.7451" y2="-0.865" transform="matrix(0.499857 -0.866108 0.865943 0.500143 53.9683 123.771)" stroke="#FB6900" stroke-width="1.73"/>
<line y1="-0.865" x2="10.7444" y2="-0.865" transform="matrix(0.642644 -0.766165 0.765924 0.642931 76.9873 123.437)" stroke="#FB6900" stroke-width="1.73"/>
<line y1="-0.865" x2="10.7437" y2="-0.865" transform="matrix(0.765923 -0.642932 0.642643 0.766165 100.165 122.764)" stroke="#FB6900" stroke-width="1.73"/>
<line y1="-0.865" x2="10.743" y2="-0.865" transform="matrix(0.865943 -0.500143 0.499857 0.866108 123.528 121.757)" stroke="#FB6900" stroke-width="1.73"/>
<line y1="-0.865" x2="10.7425" y2="-0.865" transform="matrix(0.939651 -0.342135 0.341905 0.939734 147.103 121.085)" stroke="#FB6900" stroke-width="1.73"/>
<line y1="-0.865" x2="10.7421" y2="-0.865" transform="matrix(0.984796 -0.173713 0.173584 0.984819 170.91 120.078)" stroke="#FB6900" stroke-width="1.73"/>
<line y1="-0.865" x2="10.746" y2="-0.865" transform="matrix(0.173584 -0.984819 0.984796 0.173712 8.25684 124.443)" stroke="#FB6900" stroke-width="1.73"/>
<line x1="208.385" y1="119.934" x2="197.643" y2="119.934" stroke="#FB6900" stroke-width="1.73"/>
<line y1="-0.865" x2="10.7421" y2="-0.865" transform="matrix(-0.984796 -0.173713 0.173584 -0.984819 232.431 120.078)" stroke="#FB6900" stroke-width="1.73"/>
<line y1="-0.865" x2="10.7425" y2="-0.865" transform="matrix(-0.939651 -0.342135 0.341905 -0.939735 256.239 121.085)" stroke="#FB6900" stroke-width="1.73"/>
<line y1="-0.865" x2="10.7456" y2="-0.865" transform="matrix(0.341905 -0.939735 0.939651 0.342135 6.90283 142.912)" stroke="#FB6900" stroke-width="1.73"/>
<line y1="-0.865" x2="10.7451" y2="-0.865" transform="matrix(0.499857 -0.866108 0.865943 0.500143 29.7974 142.576)" stroke="#FB6900" stroke-width="1.73"/>
<line y1="-0.865" x2="10.7444" y2="-0.865" transform="matrix(0.642644 -0.766165 0.765924 0.642931 52.8164 142.24)" stroke="#FB6900" stroke-width="1.73"/>
<line y1="-0.865" x2="10.7437" y2="-0.865" transform="matrix(0.765924 -0.642931 0.642644 0.766165 75.9937 141.569)" stroke="#FB6900" stroke-width="1.73"/>
<line y1="-0.865" x2="10.743" y2="-0.865" transform="matrix(0.865942 -0.500144 0.499856 0.866108 99.3599 140.562)" stroke="#FB6900" stroke-width="1.73"/>
<line y1="-0.865" x2="10.7425" y2="-0.865" transform="matrix(0.939651 -0.342135 0.341905 0.939734 122.935 139.89)" stroke="#FB6900" stroke-width="1.73"/>
<line y1="-0.865" x2="10.7421" y2="-0.865" transform="matrix(0.984796 -0.173713 0.173584 0.984819 146.742 138.883)" stroke="#FB6900" stroke-width="1.73"/>
<line y1="-0.865" x2="10.743" y2="-0.865" transform="matrix(-0.865942 -0.500144 0.499856 -0.866108 255.646 140.562)" stroke="#FB6900" stroke-width="1.73"/>
<line x1="184.217" y1="138.741" x2="173.475" y2="138.741" stroke="#FB6900" stroke-width="1.73"/>
<line y1="-0.865" x2="10.7421" y2="-0.865" transform="matrix(-0.984796 -0.173713 0.173584 -0.984819 208.263 138.883)" stroke="#FB6900" stroke-width="1.73"/>
<line y1="-0.865" x2="10.7425" y2="-0.865" transform="matrix(-0.939651 -0.342135 0.341905 -0.939735 232.067 139.89)" stroke="#FB6900" stroke-width="1.73"/>
<line y1="-0.865" x2="10.7451" y2="-0.865" transform="matrix(0.499857 -0.866108 0.865943 0.500143 5.62939 161.384)" stroke="#FB6900" stroke-width="1.73"/>
<line y1="-0.865" x2="10.7444" y2="-0.865" transform="matrix(0.642644 -0.766165 0.765924 0.642931 28.6484 161.047)" stroke="#FB6900" stroke-width="1.73"/>
<line y1="-0.865" x2="10.7437" y2="-0.865" transform="matrix(0.765924 -0.642931 0.642644 0.766165 51.8257 160.375)" stroke="#FB6900" stroke-width="1.73"/>
<line y1="-0.865" x2="10.743" y2="-0.865" transform="matrix(0.865942 -0.500144 0.499856 0.866108 75.1885 159.368)" stroke="#FB6900" stroke-width="1.73"/>
<line y1="-0.865" x2="10.7425" y2="-0.865" transform="matrix(0.939651 -0.342135 0.341905 0.939735 98.7637 158.695)" stroke="#FB6900" stroke-width="1.73"/>
<line y1="-0.865" x2="10.7421" y2="-0.865" transform="matrix(0.984796 -0.173713 0.173584 0.984819 122.571 157.688)" stroke="#FB6900" stroke-width="1.73"/>
<line y1="-0.865" x2="10.743" y2="-0.865" transform="matrix(-0.865942 -0.500144 0.499856 -0.866108 231.475 159.368)" stroke="#FB6900" stroke-width="1.73"/>
<line y1="-0.865" x2="10.7437" y2="-0.865" transform="matrix(-0.765924 -0.642931 0.642644 -0.766165 254.841 160.375)" stroke="#FB6900" stroke-width="1.73"/>
<line x1="160.045" y1="157.547" x2="149.303" y2="157.547" stroke="#FB6900" stroke-width="1.73"/>
<line y1="-0.865" x2="10.7421" y2="-0.865" transform="matrix(-0.984796 -0.173713 0.173584 -0.984819 184.092 157.688)" stroke="#FB6900" stroke-width="1.73"/>
<line y1="-0.865" x2="10.7425" y2="-0.865" transform="matrix(-0.939651 -0.342135 0.341905 -0.939734 207.899 158.695)" stroke="#FB6900" stroke-width="1.73"/>
<line y1="-0.865" x2="10.7444" y2="-0.865" transform="matrix(0.642644 -0.766165 0.765924 0.642931 4.47705 179.853)" stroke="#FB6900" stroke-width="1.73"/>
<line y1="-0.865" x2="10.7437" y2="-0.865" transform="matrix(0.765924 -0.642931 0.642644 0.766165 27.6548 179.18)" stroke="#FB6900" stroke-width="1.73"/>
<line y1="-0.865" x2="10.743" y2="-0.865" transform="matrix(0.865942 -0.500144 0.499856 0.866108 51.0205 178.173)" stroke="#FB6900" stroke-width="1.73"/>
<line y1="-0.865" x2="10.7425" y2="-0.865" transform="matrix(0.939651 -0.342135 0.341905 0.939735 74.5957 177.502)" stroke="#FB6900" stroke-width="1.73"/>
<line y1="-0.865" x2="10.7421" y2="-0.865" transform="matrix(0.984796 -0.173713 0.173584 0.984819 98.4028 176.494)" stroke="#FB6900" stroke-width="1.73"/>
<line y1="-0.865" x2="10.743" y2="-0.865" transform="matrix(-0.865942 -0.500144 0.499856 -0.866108 207.307 178.173)" stroke="#FB6900" stroke-width="1.73"/>
<line y1="-0.865" x2="10.7437" y2="-0.865" transform="matrix(-0.765923 -0.642932 0.642643 -0.766166 230.669 179.18)" stroke="#FB6900" stroke-width="1.73"/>
<line y1="-0.865" x2="10.7444" y2="-0.865" transform="matrix(-0.642644 -0.766165 0.765924 -0.642931 253.847 179.853)" stroke="#FB6900" stroke-width="1.73"/>
<line x1="135.878" y1="176.352" x2="125.136" y2="176.352" stroke="#FB6900" stroke-width="1.73"/>
<line y1="-0.865" x2="10.7421" y2="-0.865" transform="matrix(-0.984796 -0.173713 0.173584 -0.984819 159.924 176.494)" stroke="#FB6900" stroke-width="1.73"/>
<line y1="-0.865" x2="10.7425" y2="-0.865" transform="matrix(-0.939651 -0.342135 0.341905 -0.939734 183.732 177.502)" stroke="#FB6900" stroke-width="1.73"/>
<line y1="-0.865" x2="10.7437" y2="-0.865" transform="matrix(0.765924 -0.642931 0.642644 0.766165 3.48682 197.987)" stroke="#FB6900" stroke-width="1.73"/>
<line y1="-0.865" x2="10.743" y2="-0.865" transform="matrix(0.865942 -0.500144 0.499856 0.866108 26.8496 196.979)" stroke="#FB6900" stroke-width="1.73"/>
<line y1="-0.865" x2="10.7425" y2="-0.865" transform="matrix(0.939651 -0.342135 0.341905 0.939734 50.4243 196.308)" stroke="#FB6900" stroke-width="1.73"/>
<line y1="-0.865" x2="10.7421" y2="-0.865" transform="matrix(0.984796 -0.173713 0.173584 0.984819 74.2319 195.299)" stroke="#FB6900" stroke-width="1.73"/>
<line y1="-0.865" x2="10.743" y2="-0.865" transform="matrix(-0.865942 -0.500144 0.499856 -0.866108 183.135 196.979)" stroke="#FB6900" stroke-width="1.73"/>
<line y1="-0.865" x2="10.7437" y2="-0.865" transform="matrix(-0.765924 -0.642931 0.642644 -0.766165 206.501 197.987)" stroke="#FB6900" stroke-width="1.73"/>
<line y1="-0.865" x2="10.7444" y2="-0.865" transform="matrix(-0.642644 -0.766165 0.765924 -0.642931 229.676 198.658)" stroke="#FB6900" stroke-width="1.73"/>
<line y1="-0.865" x2="10.7451" y2="-0.865" transform="matrix(-0.499856 -0.866109 0.865942 -0.500144 252.698 198.994)" stroke="#FB6900" stroke-width="1.73"/>
<line x1="111.707" y1="195.157" x2="100.965" y2="195.157" stroke="#FB6900" stroke-width="1.73"/>
<line y1="-0.865" x2="10.7421" y2="-0.865" transform="matrix(-0.984796 -0.173713 0.173584 -0.984819 135.753 195.299)" stroke="#FB6900" stroke-width="1.73"/>
<line y1="-0.865" x2="10.7425" y2="-0.865" transform="matrix(-0.939651 -0.342135 0.341905 -0.939735 159.561 196.308)" stroke="#FB6900" stroke-width="1.73"/>
<line y1="-0.865" x2="10.743" y2="-0.865" transform="matrix(0.865942 -0.500144 0.499856 0.866108 2.68164 215.785)" stroke="#FB6900" stroke-width="1.73"/>
<line y1="-0.865" x2="10.7425" y2="-0.865" transform="matrix(0.939651 -0.342135 0.341905 0.939735 26.2563 215.113)" stroke="#FB6900" stroke-width="1.73"/>
<line y1="-0.865" x2="10.7421" y2="-0.865" transform="matrix(0.984796 -0.173713 0.173584 0.984819 50.064 214.106)" stroke="#FB6900" stroke-width="1.73"/>
<line y1="-0.865" x2="10.743" y2="-0.865" transform="matrix(-0.865942 -0.500144 0.499856 -0.866108 158.968 215.785)" stroke="#FB6900" stroke-width="1.73"/>
<line y1="-0.865" x2="10.7437" y2="-0.865" transform="matrix(-0.765924 -0.642931 0.642644 -0.766165 182.33 216.792)" stroke="#FB6900" stroke-width="1.73"/>
<line y1="-0.865" x2="10.7444" y2="-0.865" transform="matrix(-0.642644 -0.766165 0.765924 -0.642931 205.508 217.465)" stroke="#FB6900" stroke-width="1.73"/>
<line y1="-0.865" x2="10.7451" y2="-0.865" transform="matrix(-0.499858 -0.866108 0.865943 -0.500142 228.527 217.799)" stroke="#FB6900" stroke-width="1.73"/>
<line y1="-0.865" x2="10.7456" y2="-0.865" transform="matrix(-0.341905 -0.939734 0.939651 -0.342135 251.425 218.136)" stroke="#FB6900" stroke-width="1.73"/>
<line x1="87.5386" y1="213.963" x2="76.7966" y2="213.963" stroke="#FB6900" stroke-width="1.73"/>
<line y1="-0.865" x2="10.7421" y2="-0.865" transform="matrix(-0.984796 -0.173713 0.173584 -0.984819 111.585 214.106)" stroke="#FB6900" stroke-width="1.73"/>
<line y1="-0.865" x2="10.7425" y2="-0.865" transform="matrix(-0.939651 -0.342135 0.341905 -0.939735 135.393 215.113)" stroke="#FB6900" stroke-width="1.73"/>
<line y1="-0.865" x2="10.7425" y2="-0.865" transform="matrix(0.939651 -0.342135 0.341905 0.939735 2.08545 233.918)" stroke="#FB6900" stroke-width="1.73"/>
<line y1="-0.865" x2="10.7421" y2="-0.865" transform="matrix(0.984797 -0.173711 0.173585 0.984819 25.8926 232.911)" stroke="#FB6900" stroke-width="1.73"/>
<line y1="-0.865" x2="10.743" y2="-0.865" transform="matrix(-0.865943 -0.500143 0.499857 -0.866108 134.796 234.591)" stroke="#FB6900" stroke-width="1.73"/>
<line y1="-0.865" x2="10.7437" y2="-0.865" transform="matrix(-0.765924 -0.642932 0.642644 -0.766165 158.163 235.598)" stroke="#FB6900" stroke-width="1.73"/>
<line y1="-0.865" x2="10.7444" y2="-0.865" transform="matrix(-0.642643 -0.766165 0.765923 -0.642932 181.34 236.269)" stroke="#FB6900" stroke-width="1.73"/>
<line y1="-0.865" x2="10.7451" y2="-0.865" transform="matrix(-0.499857 -0.866108 0.865943 -0.500143 204.359 236.604)" stroke="#FB6900" stroke-width="1.73"/>
<line y1="-0.865" x2="10.7456" y2="-0.865" transform="matrix(-0.341905 -0.939734 0.939651 -0.342135 227.253 236.94)" stroke="#FB6900" stroke-width="1.73"/>
<line y1="-0.865" x2="10.746" y2="-0.865" transform="matrix(-0.173585 -0.984819 0.984797 -0.173711 250.067 237.277)" stroke="#FB6900" stroke-width="1.73"/>
<line x1="63.3672" y1="232.769" x2="52.6252" y2="232.769" stroke="#FB6900" stroke-width="1.73"/>
<line y1="-0.865" x2="10.7421" y2="-0.865" transform="matrix(-0.984797 -0.173711 0.173585 -0.984819 87.4141 232.911)" stroke="#FB6900" stroke-width="1.73"/>
<line y1="-0.865" x2="10.7425" y2="-0.865" transform="matrix(-0.939651 -0.342135 0.341905 -0.939735 111.221 233.918)" stroke="#FB6900" stroke-width="1.73"/>
<line y1="-0.865" x2="10.7421" y2="-0.865" transform="matrix(0.984797 -0.173711 0.173585 0.984819 1.72461 251.717)" stroke="#FB6900" stroke-width="1.73"/>
<line y1="-0.865" x2="10.743" y2="-0.865" transform="matrix(-0.865943 -0.500143 0.499857 -0.866108 110.628 253.396)" stroke="#FB6900" stroke-width="1.73"/>
<line y1="-0.865" x2="10.7437" y2="-0.865" transform="matrix(-0.765924 -0.642932 0.642644 -0.766165 133.991 254.403)" stroke="#FB6900" stroke-width="1.73"/>
<line y1="-0.865" x2="10.7444" y2="-0.865" transform="matrix(-0.642643 -0.766165 0.765923 -0.642932 157.168 255.075)" stroke="#FB6900" stroke-width="1.73"/>
<line y1="-0.865" x2="10.7451" y2="-0.865" transform="matrix(-0.499857 -0.866108 0.865943 -0.500143 180.188 255.411)" stroke="#FB6900" stroke-width="1.73"/>
<line y1="-0.865" x2="10.7456" y2="-0.865" transform="matrix(-0.341904 -0.939735 0.93965 -0.342136 203.085 255.746)" stroke="#FB6900" stroke-width="1.73"/>
<line y1="-0.865" x2="10.746" y2="-0.865" transform="matrix(-0.173585 -0.984819 0.984797 -0.173711 225.899 256.082)" stroke="#FB6900" stroke-width="1.73"/>
<line x1="247.804" y1="256.082" x2="247.804" y2="245.336" stroke="#FB6900" stroke-width="1.73"/>
<line x1="39.1997" y1="251.575" x2="28.4577" y2="251.575" stroke="#FB6900" stroke-width="1.73"/>
<line y1="-0.865" x2="10.7421" y2="-0.865" transform="matrix(-0.984797 -0.173711 0.173585 -0.984819 63.2461 251.717)" stroke="#FB6900" stroke-width="1.73"/>
<line y1="-0.865" x2="10.7425" y2="-0.865" transform="matrix(-0.939651 -0.342135 0.341905 -0.939735 87.0537 252.726)" stroke="#FB6900" stroke-width="1.73"/>
<line y1="-0.865" x2="10.743" y2="-0.865" transform="matrix(-0.865943 -0.500143 0.499857 -0.866108 86.457 272.201)" stroke="#FB6900" stroke-width="1.73"/>
<line y1="-0.865" x2="10.7437" y2="-0.865" transform="matrix(-0.765925 -0.64293 0.642645 -0.766164 109.823 273.208)" stroke="#FB6900" stroke-width="1.73"/>
<line y1="-0.865" x2="10.7444" y2="-0.865" transform="matrix(-0.642643 -0.766165 0.765923 -0.642932 133 273.881)" stroke="#FB6900" stroke-width="1.73"/>
<line y1="-0.865" x2="10.7451" y2="-0.865" transform="matrix(-0.499857 -0.866108 0.865943 -0.500143 156.02 274.217)" stroke="#FB6900" stroke-width="1.73"/>
<line y1="-0.865" x2="10.7456" y2="-0.865" transform="matrix(-0.341905 -0.939734 0.939651 -0.342135 178.914 274.553)" stroke="#FB6900" stroke-width="1.73"/>
<line y1="-0.865" x2="10.746" y2="-0.865" transform="matrix(-0.173584 -0.984819 0.984796 -0.173713 201.728 274.888)" stroke="#FB6900" stroke-width="1.73"/>
<line x1="223.633" y1="274.888" x2="223.633" y2="264.142" stroke="#FB6900" stroke-width="1.73"/>
<line y1="-0.865" x2="10.746" y2="-0.865" transform="matrix(0.173585 -0.984819 0.984797 0.173711 247.271 274.888)" stroke="#FB6900" stroke-width="1.73"/>
<line x1="15.0283" y1="270.38" x2="4.28633" y2="270.38" stroke="#FB6900" stroke-width="1.73"/>
<line y1="-0.865" x2="10.7421" y2="-0.865" transform="matrix(-0.984797 -0.173711 0.173585 -0.984819 39.0747 270.522)" stroke="#FB6900" stroke-width="1.73"/>
<line y1="-0.865" x2="10.7425" y2="-0.865" transform="matrix(-0.939651 -0.342135 0.341905 -0.939735 62.8823 271.53)" stroke="#FB6900" stroke-width="1.73"/>
<line y1="-0.865" x2="10.7456" y2="-0.865" transform="matrix(0.341905 -0.939734 0.939651 0.342135 245.913 293.358)" stroke="#FB6900" stroke-width="1.73"/>
<line y1="-0.865" x2="10.743" y2="-0.865" transform="matrix(-0.865943 -0.500143 0.499857 -0.866108 62.2896 291.007)" stroke="#FB6900" stroke-width="1.73"/>
<line y1="-0.865" x2="10.7437" y2="-0.865" transform="matrix(-0.765925 -0.64293 0.642645 -0.766164 85.6523 292.016)" stroke="#FB6900" stroke-width="1.73"/>
<line y1="-0.865" x2="10.7444" y2="-0.865" transform="matrix(-0.642643 -0.766165 0.765923 -0.642932 108.83 292.686)" stroke="#FB6900" stroke-width="1.73"/>
<line y1="-0.865" x2="10.7451" y2="-0.865" transform="matrix(-0.499857 -0.866108 0.865943 -0.500143 131.849 293.022)" stroke="#FB6900" stroke-width="1.73"/>
<line y1="-0.865" x2="10.7456" y2="-0.865" transform="matrix(-0.341905 -0.939734 0.939651 -0.342135 154.747 293.358)" stroke="#FB6900" stroke-width="1.73"/>
<line y1="-0.865" x2="10.746" y2="-0.865" transform="matrix(-0.173584 -0.984819 0.984796 -0.173713 177.56 293.694)" stroke="#FB6900" stroke-width="1.73"/>
<line x1="199.465" y1="293.694" x2="199.465" y2="282.948" stroke="#FB6900" stroke-width="1.73"/>
<line y1="-0.865" x2="10.746" y2="-0.865" transform="matrix(0.173583 -0.984819 0.984796 0.173714 223.1 293.694)" stroke="#FB6900" stroke-width="1.73"/>
<line y1="-0.865" x2="10.7421" y2="-0.865" transform="matrix(-0.984797 -0.173711 0.173585 -0.984819 14.9072 289.327)" stroke="#FB6900" stroke-width="1.73"/>
<line y1="-0.865" x2="10.7425" y2="-0.865" transform="matrix(-0.939651 -0.342135 0.341905 -0.939735 38.7144 290.336)" stroke="#FB6900" stroke-width="1.73"/>
<line y1="-0.865" x2="10.7456" y2="-0.865" transform="matrix(0.341905 -0.939734 0.939651 0.342135 221.746 312.164)" stroke="#FB6900" stroke-width="1.73"/>
<line y1="-0.865" x2="10.7451" y2="-0.865" transform="matrix(0.499855 -0.866109 0.865942 0.500145 244.64 311.827)" stroke="#FB6900" stroke-width="1.73"/>
<line y1="-0.865" x2="10.743" y2="-0.865" transform="matrix(-0.865943 -0.500143 0.499857 -0.866108 38.1182 309.813)" stroke="#FB6900" stroke-width="1.73"/>
<line y1="-0.865" x2="10.7437" y2="-0.865" transform="matrix(-0.765925 -0.64293 0.642645 -0.766164 61.4844 310.82)" stroke="#FB6900" stroke-width="1.73"/>
<line y1="-0.865" x2="10.7444" y2="-0.865" transform="matrix(-0.642643 -0.766166 0.765923 -0.642932 84.6616 311.493)" stroke="#FB6900" stroke-width="1.73"/>
<line y1="-0.865" x2="10.7451" y2="-0.865" transform="matrix(-0.499856 -0.866108 0.865942 -0.500144 107.681 311.827)" stroke="#FB6900" stroke-width="1.73"/>
<line y1="-0.865" x2="10.7456" y2="-0.865" transform="matrix(-0.341905 -0.939734 0.939651 -0.342135 130.575 312.164)" stroke="#FB6900" stroke-width="1.73"/>
<line y1="-0.865" x2="10.746" y2="-0.865" transform="matrix(-0.173584 -0.984819 0.984796 -0.173713 153.389 312.5)" stroke="#FB6900" stroke-width="1.73"/>
<line x1="175.294" y1="312.5" x2="175.294" y2="301.754" stroke="#FB6900" stroke-width="1.73"/>
<line y1="-0.865" x2="10.746" y2="-0.865" transform="matrix(0.173584 -0.984819 0.984796 0.173713 198.932 312.5)" stroke="#FB6900" stroke-width="1.73"/>
<line y1="-0.865" x2="10.7425" y2="-0.865" transform="matrix(-0.939651 -0.342135 0.341905 -0.939735 14.543 309.142)" stroke="#FB6900" stroke-width="1.73"/>
<line y1="-0.865" x2="10.7456" y2="-0.865" transform="matrix(0.341905 -0.939734 0.939651 0.342135 197.574 330.969)" stroke="#FB6900" stroke-width="1.73"/>
<line y1="-0.865" x2="10.7451" y2="-0.865" transform="matrix(0.499855 -0.866109 0.865942 0.500145 220.472 330.633)" stroke="#FB6900" stroke-width="1.73"/>
<line y1="-0.865" x2="10.7444" y2="-0.865" transform="matrix(0.642643 -0.766165 0.765923 0.642932 243.491 330.298)" stroke="#FB6900" stroke-width="1.73"/>
<line y1="-0.865" x2="10.743" y2="-0.865" transform="matrix(-0.865943 -0.500143 0.499857 -0.866108 13.9502 328.619)" stroke="#FB6900" stroke-width="1.73"/>
<line y1="-0.865" x2="10.7437" y2="-0.865" transform="matrix(-0.765925 -0.64293 0.642645 -0.766164 37.313 329.626)" stroke="#FB6900" stroke-width="1.73"/>
<line y1="-0.865" x2="10.7444" y2="-0.865" transform="matrix(-0.642643 -0.766165 0.765923 -0.642932 60.4902 330.298)" stroke="#FB6900" stroke-width="1.73"/>
<line y1="-0.865" x2="10.7451" y2="-0.865" transform="matrix(-0.499856 -0.866108 0.865942 -0.500144 83.5093 330.633)" stroke="#FB6900" stroke-width="1.73"/>
<line y1="-0.865" x2="10.7456" y2="-0.865" transform="matrix(-0.341905 -0.939734 0.939651 -0.342135 106.407 330.969)" stroke="#FB6900" stroke-width="1.73"/>
<line y1="-0.865" x2="10.746" y2="-0.865" transform="matrix(-0.173584 -0.984819 0.984796 -0.173713 129.221 331.305)" stroke="#FB6900" stroke-width="1.73"/>
<line x1="151.126" y1="331.305" x2="151.126" y2="320.559" stroke="#FB6900" stroke-width="1.73"/>
<line y1="-0.865" x2="10.746" y2="-0.865" transform="matrix(0.173584 -0.984819 0.984796 0.173713 174.761 331.305)" stroke="#FB6900" stroke-width="1.73"/>
<line y1="-0.865" x2="10.7456" y2="-0.865" transform="matrix(0.341905 -0.939734 0.939651 0.342135 173.406 349.774)" stroke="#FB6900" stroke-width="1.73"/>
<line y1="-0.865" x2="10.7451" y2="-0.865" transform="matrix(0.499857 -0.866108 0.865943 0.500143 196.301 349.439)" stroke="#FB6900" stroke-width="1.73"/>
<line y1="-0.865" x2="10.7444" y2="-0.865" transform="matrix(0.642644 -0.766165 0.765924 0.642931 219.32 349.104)" stroke="#FB6900" stroke-width="1.73"/>
<line y1="-0.865" x2="10.7437" y2="-0.865" transform="matrix(0.765925 -0.64293 0.642645 0.766164 242.497 348.431)" stroke="#FB6900" stroke-width="1.73"/>
<line y1="-0.865" x2="10.7437" y2="-0.865" transform="matrix(-0.765925 -0.64293 0.642645 -0.766164 13.145 348.431)" stroke="#FB6900" stroke-width="1.73"/>
<line y1="-0.865" x2="10.7444" y2="-0.865" transform="matrix(-0.642643 -0.766165 0.765923 -0.642932 36.3223 349.104)" stroke="#FB6900" stroke-width="1.73"/>
<line y1="-0.865" x2="10.7451" y2="-0.865" transform="matrix(-0.499856 -0.866108 0.865942 -0.500144 59.3418 349.439)" stroke="#FB6900" stroke-width="1.73"/>
<line y1="-0.865" x2="10.7456" y2="-0.865" transform="matrix(-0.341905 -0.939735 0.939651 -0.342136 82.2363 349.774)" stroke="#FB6900" stroke-width="1.73"/>
<line y1="-0.865" x2="10.746" y2="-0.865" transform="matrix(-0.173584 -0.984819 0.984796 -0.173713 105.05 350.11)" stroke="#FB6900" stroke-width="1.73"/>
<line x1="126.954" y1="350.11" x2="126.954" y2="339.364" stroke="#FB6900" stroke-width="1.73"/>
<line y1="-0.865" x2="10.746" y2="-0.865" transform="matrix(0.173584 -0.984819 0.984796 0.173713 150.593 350.11)" stroke="#FB6900" stroke-width="1.73"/>
</g>
</svg>
