<svg width="278" height="82" viewBox="0 0 278 82" fill="none" xmlns="http://www.w3.org/2000/svg">
<rect width="277.45" height="81.0418" rx="8.44185" fill="black"/>
<path d="M42.8318 39.3091L20.4667 63.0459C20.4688 63.0501 20.4688 63.0564 20.4709 63.0606C21.1578 65.6381 23.5105 67.5349 26.3043 67.5349C27.4218 67.5349 28.47 67.2324 29.3691 66.7031L29.4405 66.6611L54.6141 52.1354L42.8318 39.3091Z" fill="#EA4335"/>
<path d="M65.4572 35.2671L65.4362 35.2524L54.5677 28.9527L42.3233 39.8485L54.6118 52.1328L65.4215 45.8961C67.3162 44.871 68.6039 42.8734 68.6039 40.5711C68.6039 38.2814 67.3351 36.2943 65.4572 35.2671Z" fill="#FBBC04"/>
<path d="M20.4663 17.9941C20.3319 18.4898 20.2604 19.0107 20.2604 19.5485V61.4933C20.2604 62.0311 20.3319 62.552 20.4684 63.0457L43.6002 39.9159L20.4663 17.9941Z" fill="#4285F4"/>
<path d="M42.997 40.5208L54.5713 28.9485L29.4271 14.3704C28.5133 13.8221 27.4462 13.507 26.3056 13.507C23.5118 13.507 21.1549 15.4081 20.468 17.9876C20.468 17.9897 20.4659 17.9918 20.4659 17.9939L42.997 40.5208Z" fill="#34A853"/>
<path d="M101.525 20.2139C101.525 21.8778 101.033 23.2022 100.046 24.191C98.9239 25.3664 97.4646 25.9541 95.6697 25.9541C93.9482 25.9541 92.4868 25.3584 91.2856 24.1651C90.0804 22.9738 89.4808 21.4946 89.4808 19.7315C89.4808 17.9663 90.0804 16.4891 91.2856 15.2958C92.4868 14.1045 93.9482 13.5068 95.6697 13.5068C96.5214 13.5068 97.3395 13.6736 98.1138 14.0072C98.8902 14.3407 99.5116 14.7835 99.9782 15.3375L98.9299 16.3858C98.1416 15.4447 97.0555 14.9721 95.6697 14.9721C94.4148 14.9721 93.3307 15.4129 92.4154 16.2945C91.5 17.1781 91.0434 18.3217 91.0434 19.7315C91.0434 21.1392 91.5 22.2848 92.4154 23.1664C93.3307 24.05 94.4148 24.4888 95.6697 24.4888C97 24.4888 98.1079 24.046 98.9974 23.1585C99.5732 22.5807 99.9048 21.7785 99.9941 20.7461H95.6697V19.3145H101.442C101.497 19.6262 101.525 19.926 101.525 20.2139Z" fill="white"/>
<path d="M101.525 20.2139C101.525 21.8778 101.033 23.2022 100.046 24.191C98.9239 25.3664 97.4646 25.9541 95.6697 25.9541C93.9482 25.9541 92.4868 25.3584 91.2856 24.1651C90.0804 22.9738 89.4808 21.4946 89.4808 19.7315C89.4808 17.9663 90.0804 16.4891 91.2856 15.2958C92.4868 14.1045 93.9482 13.5068 95.6697 13.5068C96.5214 13.5068 97.3395 13.6736 98.1138 14.0072C98.8902 14.3407 99.5116 14.7835 99.9782 15.3375L98.9299 16.3858C98.1416 15.4447 97.0555 14.9721 95.6697 14.9721C94.4148 14.9721 93.3307 15.4129 92.4154 16.2945C91.5 17.1781 91.0434 18.3217 91.0434 19.7315C91.0434 21.1392 91.5 22.2848 92.4154 23.1664C93.3307 24.05 94.4148 24.4888 95.6697 24.4888C97 24.4888 98.1079 24.046 98.9974 23.1585C99.5732 22.5807 99.9048 21.7785 99.9941 20.7461H95.6697V19.3145H101.442C101.497 19.6262 101.525 19.926 101.525 20.2139Z" fill="white"/>
<path d="M110.677 15.2384H105.252V19.0149H110.145V20.4464H105.252V24.2229H110.677V25.6882H103.722V13.7751H110.677V15.2384Z" fill="white"/>
<path d="M110.677 15.2384H105.252V19.0149H110.145V20.4464H105.252V24.2229H110.677V25.6882H103.722V13.7751H110.677V15.2384Z" fill="white"/>
<path d="M117.132 25.688H115.601V15.2382H112.273V13.7748H120.46V15.2382H117.132V25.688Z" fill="white"/>
<path d="M117.132 25.688H115.601V15.2382H112.273V13.7748H120.46V15.2382H117.132V25.688Z" fill="white"/>
<path d="M126.383 13.7748H127.914V25.688H126.383V13.7748Z" fill="white"/>
<path d="M134.703 25.688H133.172V15.2382H129.844V13.7748H138.031V15.2382H134.703V25.688Z" fill="white"/>
<path d="M134.703 25.688H133.172V15.2382H129.844V13.7748H138.031V15.2382H134.703V25.688Z" fill="white"/>
<path d="M145.923 23.1505C146.805 24.044 147.883 24.4888 149.159 24.4888C150.436 24.4888 151.514 24.044 152.396 23.1505C153.277 22.257 153.72 21.1174 153.72 19.7315C153.72 18.3456 153.277 17.2039 152.396 16.3124C151.514 15.4189 150.436 14.9721 149.159 14.9721C147.883 14.9721 146.805 15.4189 145.923 16.3124C145.043 17.2039 144.601 18.3456 144.601 19.7315C144.601 21.1174 145.043 22.257 145.923 23.1505ZM153.528 24.1473C152.356 25.3525 150.901 25.9541 149.159 25.9541C147.418 25.9541 145.963 25.3525 144.793 24.1473C143.622 22.944 143.038 21.4728 143.038 19.7315C143.038 17.9901 143.622 16.5169 144.793 15.3137C145.963 14.1104 147.418 13.5068 149.159 13.5068C150.891 13.5068 152.342 14.1124 153.52 15.3216C154.695 16.5308 155.283 18.0001 155.283 19.7315C155.283 21.4728 154.697 22.944 153.528 24.1473Z" fill="white"/>
<path d="M145.923 23.1505C146.805 24.044 147.883 24.4888 149.159 24.4888C150.436 24.4888 151.514 24.044 152.396 23.1505C153.277 22.257 153.72 21.1174 153.72 19.7315C153.72 18.3456 153.277 17.2039 152.396 16.3124C151.514 15.4189 150.436 14.9721 149.159 14.9721C147.883 14.9721 146.805 15.4189 145.923 16.3124C145.043 17.2039 144.601 18.3456 144.601 19.7315C144.601 21.1174 145.043 22.257 145.923 23.1505ZM153.528 24.1473C152.356 25.3525 150.901 25.9541 149.159 25.9541C147.418 25.9541 145.963 25.3525 144.793 24.1473C143.622 22.944 143.038 21.4728 143.038 19.7315C143.038 17.9901 143.622 16.5169 144.793 15.3137C145.963 14.1104 147.418 13.5068 149.159 13.5068C150.891 13.5068 152.342 14.1124 153.52 15.3216C154.695 16.5308 155.283 18.0001 155.283 19.7315C155.283 21.4728 154.697 22.944 153.528 24.1473Z" fill="white"/>
<path d="M157.431 25.688V13.7748H159.293L165.083 23.0413H165.151L165.083 20.746V13.7748H166.616V25.688H165.018L158.96 15.9708H158.894L158.96 18.2681V25.688H157.431Z" fill="white"/>
<path d="M157.431 25.688V13.7748H159.293L165.083 23.0413H165.151L165.083 20.746V13.7748H166.616V25.688H165.018L158.96 15.9708H158.894L158.96 18.2681V25.688H157.431Z" fill="white"/>
<path d="M219.699 59.4419H223.404V34.6208H219.699V59.4419ZM253.07 43.5616L248.822 54.3232H248.695L244.288 43.5616H240.297L246.906 58.602L243.14 66.969H247.002L257.189 43.5616H253.07ZM232.059 56.6224C230.844 56.6224 229.152 56.0169 229.152 54.5138C229.152 52.5998 231.259 51.8651 233.079 51.8651C234.707 51.8651 235.476 52.2166 236.465 52.6951C236.177 54.9943 234.197 56.6224 232.059 56.6224ZM232.505 43.0196C229.823 43.0196 227.043 44.201 225.896 46.8199L229.184 48.1919C229.886 46.8199 231.195 46.3712 232.569 46.3712C234.485 46.3712 236.433 47.5208 236.465 49.5659V49.82C235.793 49.4368 234.358 48.863 232.601 48.863C229.057 48.863 225.447 50.8108 225.447 54.4503C225.447 57.7721 228.354 59.9125 231.61 59.9125C234.102 59.9125 235.476 58.7946 236.337 57.4842H236.465V59.4002H240.04V49.8836C240.04 45.4777 236.752 43.0196 232.505 43.0196ZM209.608 46.5836H204.339V38.0756H209.608C212.378 38.0756 213.951 40.3689 213.951 42.3286C213.951 44.2526 212.378 46.5836 209.608 46.5836ZM209.513 34.6208H200.636V59.4419H204.339V50.0384H209.513C213.619 50.0384 217.656 47.0641 217.656 42.3286C217.656 37.5931 213.619 34.6208 209.513 34.6208ZM161.104 56.6264C158.544 56.6264 156.402 54.484 156.402 51.5415C156.402 48.5672 158.544 46.391 161.104 46.391C163.631 46.391 165.613 48.5672 165.613 51.5415C165.613 54.484 163.631 56.6264 161.104 56.6264ZM165.359 44.9515H165.23C164.398 43.9607 162.799 43.0653 160.784 43.0653C156.561 43.0653 152.691 46.7742 152.691 51.5415C152.691 56.275 156.561 59.9542 160.784 59.9542C162.799 59.9542 164.398 59.0587 165.23 58.0342H165.359V59.2513C165.359 62.4817 163.631 64.2091 160.848 64.2091C158.576 64.2091 157.169 62.577 156.593 61.2011L153.362 62.5453C154.289 64.785 156.754 67.5349 160.848 67.5349C165.198 67.5349 168.877 64.9756 168.877 58.739V43.5755H165.359V44.9515ZM171.437 59.4419H175.147V34.6188H171.437V59.4419ZM180.616 51.2536C180.52 47.9914 183.143 46.3275 185.029 46.3275C186.503 46.3275 187.75 47.0621 188.165 48.1184L180.616 51.2536ZM192.132 48.4381C191.429 46.5518 189.284 43.0653 184.902 43.0653C180.552 43.0653 176.938 46.4863 176.938 51.5097C176.938 56.2432 180.52 59.9542 185.317 59.9542C189.189 59.9542 191.429 57.5874 192.356 56.2114L189.477 54.2914C188.518 55.6992 187.206 56.6264 185.317 56.6264C183.431 56.6264 182.087 55.7627 181.223 54.0691L192.515 49.3971L192.132 48.4381ZM102.171 45.6564V49.2383H110.743C110.487 51.2536 109.816 52.7249 108.793 53.7474C107.544 54.9963 105.592 56.3723 102.171 56.3723C96.8918 56.3723 92.7659 52.1173 92.7659 46.8398C92.7659 41.5602 96.8918 37.3072 102.171 37.3072C105.019 37.3072 107.097 38.4271 108.632 39.8666L111.16 37.339C109.015 35.2919 106.17 33.7234 102.171 33.7234C94.9421 33.7234 88.8643 39.6104 88.8643 46.8398C88.8643 54.0691 94.9421 59.9542 102.171 59.9542C106.073 59.9542 109.015 58.6735 111.319 56.275C113.687 53.9082 114.422 50.5825 114.422 47.8941C114.422 47.0621 114.359 46.2957 114.229 45.6564H102.171ZM124.169 56.6264C121.61 56.6264 119.402 54.5158 119.402 51.5097C119.402 48.4699 121.61 46.391 124.169 46.391C126.726 46.391 128.934 48.4699 128.934 51.5097C128.934 54.5158 126.726 56.6264 124.169 56.6264ZM124.169 43.0653C119.497 43.0653 115.691 46.6154 115.691 51.5097C115.691 56.3723 119.497 59.9542 124.169 59.9542C128.839 59.9542 132.645 56.3723 132.645 51.5097C132.645 46.6154 128.839 43.0653 124.169 43.0653ZM142.66 56.6264C140.101 56.6264 137.893 54.5158 137.893 51.5097C137.893 48.4699 140.101 46.391 142.66 46.391C145.22 46.391 147.426 48.4699 147.426 51.5097C147.426 54.5158 145.22 56.6264 142.66 56.6264ZM142.66 43.0653C137.99 43.0653 134.184 46.6154 134.184 51.5097C134.184 56.3723 137.99 59.9542 142.66 59.9542C147.33 59.9542 151.136 56.3723 151.136 51.5097C151.136 46.6154 147.33 43.0653 142.66 43.0653Z" fill="white"/>
</svg>
