<svg width="21" height="20" viewBox="0 0 21 20" fill="none" xmlns="http://www.w3.org/2000/svg">
<path d="M10.5 19C9.255 19 8.085 18.7636 6.99 18.2908C5.895 17.818 4.9425 17.1769 4.1325 16.3675C3.3225 15.5575 2.6814 14.605 2.2092 13.51C1.737 12.415 1.5006 11.245 1.5 10C1.5 8.755 1.7364 7.585 2.2092 6.49C2.682 5.395 3.3231 4.4425 4.1325 3.6325C4.9425 2.8225 5.895 2.1814 6.99 1.7092C8.085 1.237 9.255 1.0006 10.5 1C11.745 1 12.915 1.2364 14.01 1.7092C15.105 2.182 16.0575 2.8231 16.8675 3.6325C17.6775 4.4425 18.3189 5.395 18.7917 6.49C19.2645 7.585 19.5006 8.755 19.5 10C19.5 11.245 19.2636 12.415 18.7908 13.51C18.318 14.605 17.6769 15.5575 16.8675 16.3675C16.0575 17.1775 15.105 17.8189 14.01 18.2917C12.915 18.7645 11.745 19.0006 10.5 19Z" fill="url(#paint0_linear_4184_3022)"/>
<path d="M7.175 9.075L9.325 11.225L14.275 6.275C14.4583 6.09167 14.6917 6 14.975 6C15.2583 6 15.4917 6.09167 15.675 6.275C15.8583 6.45833 15.95 6.69167 15.95 6.975C15.95 7.25833 15.8583 7.49167 15.675 7.675L10.025 13.325C9.825 13.525 9.59167 13.625 9.325 13.625C9.05833 13.625 8.825 13.525 8.625 13.325L5.775 10.475C5.59167 10.2917 5.5 10.0583 5.5 9.775C5.5 9.49167 5.59167 9.25833 5.775 9.075C5.95833 8.89167 6.19167 8.8 6.475 8.8C6.75833 8.8 6.99167 8.89167 7.175 9.075Z" fill="white"/>
<defs>
<linearGradient id="paint0_linear_4184_3022" x1="4.21198" y1="7.81821" x2="10.5" y2="14.4614" gradientUnits="userSpaceOnUse">
<stop stop-color="#FFB703"/>
<stop offset="1" stop-color="#FB6900"/>
</linearGradient>
</defs>
</svg>
