<svg width="140" height="140" viewBox="0 0 140 140" fill="none" xmlns="http://www.w3.org/2000/svg">
<path fill-rule="evenodd" clip-rule="evenodd" d="M70 139C108.108 139 139 108.108 139 70C139 31.8924 108.108 1 70 1C31.8924 1 1 31.8924 1 70C1 108.108 31.8924 139 70 139ZM70 140C108.66 140 140 108.66 140 70C140 31.3401 108.66 0 70 0C31.3401 0 0 31.3401 0 70C0 108.66 31.3401 140 70 140Z" fill="url(#paint0_linear_138_245)"/>
<path d="M120 73C120 100.614 97.6142 123 70 123C42.3858 123 20 100.614 20 73C20 45.3858 42.3858 23 70 23C97.6142 23 120 45.3858 120 73Z" fill="#FB6901"/>
<path d="M120 70C120 97.6142 97.6142 120 70 120C42.3858 120 20 97.6142 20 70C20 42.3858 42.3858 20 70 20C97.6142 20 120 42.3858 120 70Z" fill="#FFF7F0"/>
<path fill-rule="evenodd" clip-rule="evenodd" d="M70 119.7C97.4486 119.7 119.7 97.4486 119.7 70C119.7 42.5514 97.4486 20.3 70 20.3C42.5514 20.3 20.3 42.5514 20.3 70C20.3 97.4486 42.5514 119.7 70 119.7ZM70 120C97.6142 120 120 97.6142 120 70C120 42.3858 97.6142 20 70 20C42.3858 20 20 42.3858 20 70C20 97.6142 42.3858 120 70 120Z" fill="#C6C2C0"/>
<path opacity="0.5" d="M105 70C105 89.3305 89.3305 105 70 105C50.6695 105 35 89.3305 35 70C35 50.6695 50.6695 35 70 35C89.3305 35 105 50.6695 105 70Z" fill="#FFB703"/>
<path d="M86.8248 94.5385C81.8751 97.942 76.0072 99.7596 70.0003 99.75C63.9933 99.7596 58.1255 97.942 53.1758 94.5385C51.0618 93.086 50.1588 90.321 51.3908 88.0705C53.9353 83.405 59.1853 80.5 70.0003 80.5C80.8153 80.5 86.0653 83.405 88.6133 88.0705C89.8383 90.321 88.9388 93.086 86.8248 94.5385ZM70.0003 70C72.7851 70 75.4558 68.8938 77.4249 66.9246C79.394 64.9555 80.5003 62.2848 80.5003 59.5C80.5003 56.7152 79.394 54.0445 77.4249 52.0754C75.4558 50.1062 72.7851 49 70.0003 49C67.2155 49 64.5448 50.1062 62.5757 52.0754C60.6065 54.0445 59.5003 56.7152 59.5003 59.5C59.5003 62.2848 60.6065 64.9555 62.5757 66.9246C64.5448 68.8938 67.2155 70 70.0003 70Z" fill="url(#paint1_linear_138_245)"/>
<path d="M67.3828 77.0215L66.875 53.1152H73.125L72.5977 77.0215H67.3828ZM70 86.8848C67.8125 86.8848 66.4453 85.6348 66.4453 83.623C66.4453 81.5918 67.8125 80.3418 70 80.3418C72.207 80.3418 73.5547 81.5918 73.5547 83.623C73.5547 85.6348 72.207 86.8848 70 86.8848Z" fill="#1E1410"/>
<defs>
<linearGradient id="paint0_linear_138_245" x1="21.0932" y1="53.0305" x2="70" y2="104.7" gradientUnits="userSpaceOnUse">
<stop stop-color="#FFB703"/>
<stop offset="1" stop-color="#FB6900"/>
</linearGradient>
<linearGradient id="paint1_linear_138_245" x1="56.6086" y1="68.2236" x2="73.9216" y2="82.0397" gradientUnits="userSpaceOnUse">
<stop stop-color="#FFB703"/>
<stop offset="1" stop-color="#FB6900"/>
</linearGradient>
</defs>
</svg>
