<svg width="85" height="23" viewBox="0 0 85 23" fill="none" xmlns="http://www.w3.org/2000/svg">
<path d="M0 0H85V20H0L8 10L0 0Z" fill="#C6C2C0"/>
<path d="M16.9937 14.1709C15.4019 14.1709 14.3814 13.3652 14.2838 12.1787L14.2789 12.1152H15.3531L15.358 12.1689C15.4166 12.8086 16.0953 13.2188 17.0377 13.2188C17.9361 13.2188 18.5757 12.7695 18.5757 12.1152V12.1104C18.5757 11.5684 18.1949 11.2168 17.2623 11.0166L16.4908 10.8506C15.0601 10.5479 14.4449 9.88379 14.4449 8.84375V8.83887C14.4498 7.62305 15.5045 6.7832 16.9986 6.7832C18.4927 6.7832 19.4693 7.62793 19.5474 8.72168L19.5523 8.79004H18.4927L18.483 8.72656C18.3902 8.15039 17.8384 7.73047 16.9839 7.73535C16.1588 7.73535 15.5484 8.12109 15.5484 8.78516V8.79004C15.5484 9.3125 15.9195 9.6543 16.8326 9.84961L17.5992 10.0205C19.0787 10.3379 19.6841 10.9336 19.6841 11.9785V11.9834C19.6841 13.3311 18.6343 14.1709 16.9937 14.1709ZM20.8825 15.7676V8.69727H21.9421V9.53223H22.0202C22.3278 8.95117 22.9089 8.60449 23.6511 8.60449C24.9889 8.60449 25.8483 9.67383 25.8483 11.3438V11.3535C25.8483 13.0332 24.9987 14.0879 23.6511 14.0879C22.9235 14.0879 22.3034 13.7314 22.0202 13.1602H21.9421V15.7676H20.8825ZM23.3532 13.1846C24.237 13.1846 24.7692 12.4912 24.7692 11.3535V11.3438C24.7692 10.2012 24.237 9.5127 23.3532 9.5127C22.4694 9.5127 21.9225 10.2109 21.9225 11.3438V11.3535C21.9225 12.4863 22.4694 13.1846 23.3532 13.1846ZM29.2293 14.1025C27.6766 14.1025 26.7391 13.043 26.7391 11.3633V11.3584C26.7391 9.70312 27.6961 8.59473 29.1756 8.59473C30.6551 8.59473 31.5633 9.66406 31.5633 11.2559V11.627H27.8035C27.823 12.6426 28.3797 13.2334 29.2537 13.2334C29.9324 13.2334 30.3377 12.8965 30.4647 12.623L30.4842 12.584L31.5047 12.5791L31.4949 12.623C31.3191 13.3213 30.5867 14.1025 29.2293 14.1025ZM29.1805 9.46387C28.4578 9.46387 27.9109 9.95703 27.8182 10.8701H30.5135C30.4305 9.92285 29.8982 9.46387 29.1805 9.46387ZM34.9345 14.1025C33.3866 14.1025 32.4394 13.0479 32.4394 11.334V11.3242C32.4394 9.64453 33.3818 8.59473 34.9296 8.59473C36.2626 8.59473 37.0585 9.34668 37.205 10.377V10.4014L36.1894 10.4062L36.1845 10.3916C36.0673 9.86914 35.6376 9.47852 34.9345 9.47852C34.0507 9.47852 33.5185 10.1816 33.5185 11.3242V11.334C33.5185 12.5059 34.0605 13.2188 34.9345 13.2188C35.5986 13.2188 36.0087 12.916 36.1796 12.3447L36.1894 12.3203H37.205L37.1952 12.3643C37.0048 13.3945 36.248 14.1025 34.9345 14.1025ZM38.8379 7.75C38.4717 7.75 38.1739 7.45215 38.1739 7.09082C38.1739 6.72461 38.4717 6.42676 38.8379 6.42676C39.1993 6.42676 39.502 6.72461 39.502 7.09082C39.502 7.45215 39.1993 7.75 38.8379 7.75ZM38.3057 14V8.69727H39.3604V14H38.3057ZM42.2384 14.0879C41.2277 14.0879 40.4806 13.4727 40.4806 12.5107V12.501C40.4806 11.5537 41.1935 11.002 42.4582 10.9238L43.8937 10.8408V10.3721C43.8937 9.79102 43.5275 9.46875 42.8097 9.46875C42.2238 9.46875 41.838 9.68359 41.7111 10.0596L41.7062 10.0791H40.6857L40.6906 10.0449C40.8175 9.17578 41.6525 8.59473 42.8586 8.59473C44.1916 8.59473 44.9435 9.25879 44.9435 10.3721V14H43.8937V13.248H43.8107C43.4982 13.7852 42.9416 14.0879 42.2384 14.0879ZM41.5353 12.4668C41.5353 12.9551 41.9504 13.2432 42.5216 13.2432C43.3127 13.2432 43.8937 12.7256 43.8937 12.042V11.5879L42.5998 11.6709C41.8673 11.7148 41.5353 11.9785 41.5353 12.457V12.4668ZM46.3665 14V6.61719H47.4261V14H46.3665ZM54.6226 14.1709C52.5718 14.1709 51.3316 12.7402 51.3316 10.4795V10.4697C51.3316 8.2041 52.6011 6.7832 54.6226 6.7832C56.6489 6.7832 57.9087 8.20898 57.9087 10.4697V10.4795C57.9087 12.7354 56.6587 14.1709 54.6226 14.1709ZM54.6226 13.2041C55.9605 13.2041 56.7906 12.1299 56.7906 10.4795V10.4697C56.7906 8.80469 55.9556 7.75 54.6226 7.75C53.2896 7.75 52.4497 8.80469 52.4497 10.4697V10.4795C52.4497 12.1299 53.2652 13.2041 54.6226 13.2041ZM59.151 14V8.69727H60.2106V9.49805H60.2887C60.4791 8.93652 60.9723 8.60449 61.6803 8.60449C61.8512 8.60449 62.0368 8.62891 62.1442 8.65332V9.62988C61.9538 9.59082 61.7731 9.56641 61.5729 9.56641C60.7623 9.56641 60.2106 10.0645 60.2106 10.8311V14H59.151ZM64.8318 14.0879C63.4988 14.0879 62.6345 13.0186 62.6345 11.3535V11.3438C62.6345 9.66406 63.4841 8.60449 64.8318 8.60449C65.5593 8.60449 66.1795 8.96582 66.4627 9.53711H66.5457V6.61719H67.6004V14H66.5457V13.165H66.4627C66.155 13.7461 65.574 14.0879 64.8318 14.0879ZM65.1345 13.1846C66.0183 13.1846 66.5603 12.4863 66.5603 11.3535V11.3438C66.5603 10.2109 66.0134 9.5127 65.1345 9.5127C64.2459 9.5127 63.7136 10.2061 63.7136 11.3438V11.3535C63.7136 12.4912 64.2459 13.1846 65.1345 13.1846ZM71.2841 14.1025C69.7313 14.1025 68.7938 13.043 68.7938 11.3633V11.3584C68.7938 9.70312 69.7509 8.59473 71.2304 8.59473C72.7098 8.59473 73.618 9.66406 73.618 11.2559V11.627H69.8583C69.8778 12.6426 70.4345 13.2334 71.3085 13.2334C71.9872 13.2334 72.3925 12.8965 72.5194 12.623L72.5389 12.584L73.5595 12.5791L73.5497 12.623C73.3739 13.3213 72.6415 14.1025 71.2841 14.1025ZM71.2352 9.46387C70.5126 9.46387 69.9657 9.95703 69.8729 10.8701H72.5682C72.4852 9.92285 71.953 9.46387 71.2352 9.46387ZM74.7578 14V8.69727H75.8174V9.49805H75.8955C76.0859 8.93652 76.5791 8.60449 77.2871 8.60449C77.458 8.60449 77.6436 8.62891 77.751 8.65332V9.62988C77.5606 9.59082 77.3799 9.56641 77.1797 9.56641C76.3691 9.56641 75.8174 10.0645 75.8174 10.8311V14H74.7578Z" fill="#1E1410"/>
<path d="M82 23L85 20H82V23Z" fill="#908F8F"/>
</svg>
