<svg width="16" height="16" viewBox="0 0 16 16" fill="none" xmlns="http://www.w3.org/2000/svg">
<path d="M13.2 7.99999C13.2 8.34477 13.337 8.67543 13.5808 8.91923C13.8246 9.16302 14.1552 9.29999 14.5 9.29999V11.9C14.5 12.2448 14.363 12.5754 14.1192 12.8192C13.8754 13.063 13.5448 13.2 13.2 13.2H2.8C2.45522 13.2 2.12456 13.063 1.88076 12.8192C1.63696 12.5754 1.5 12.2448 1.5 11.9V9.29999C1.84478 9.29999 2.17544 9.16302 2.41924 8.91923C2.66304 8.67543 2.8 8.34477 2.8 7.99999C2.8 7.65521 2.66304 7.32455 2.41924 7.08075C2.17544 6.83695 1.84478 6.69999 1.5 6.69999V4.09999C1.5 3.75521 1.63696 3.42455 1.88076 3.18075C2.12456 2.93695 2.45522 2.79999 2.8 2.79999H13.2C13.5448 2.79999 13.8754 2.93695 14.1192 3.18075C14.363 3.42455 14.5 3.75521 14.5 4.09999V6.69999C14.1552 6.69999 13.8246 6.83695 13.5808 7.08075C13.337 7.32455 13.2 7.65521 13.2 7.99999ZM10.925 10.7625C10.925 9.78749 8.975 9.29999 8 9.29999C7.025 9.29999 5.075 9.78749 5.075 10.7625V11.25H10.925V10.7625ZM8 8.16249C8.38788 8.16249 8.75987 8.0084 9.03414 7.73413C9.30842 7.45986 9.4625 7.08787 9.4625 6.69999C9.4625 6.31211 9.30842 5.94012 9.03414 5.66584C8.75987 5.39157 8.38788 5.23749 8 5.23749C7.61212 5.23749 7.24013 5.39157 6.96586 5.66584C6.69158 5.94012 6.5375 6.31211 6.5375 6.69999C6.5375 7.08787 6.69158 7.45986 6.96586 7.73413C7.24013 8.0084 7.61212 8.16249 8 8.16249Z" fill="#766C68"/>
</svg>
