<svg width="22" height="22" viewBox="0 0 22 22" fill="none" xmlns="http://www.w3.org/2000/svg">
<circle cx="11" cy="11" r="10.5" stroke="white"/>
<path d="M12.7005 11.3253C13.1498 10.9718 13.4778 10.487 13.6388 9.93839C13.7998 9.38977 13.7858 8.80462 13.5987 8.26434C13.4117 7.72406 13.0608 7.25551 12.5951 6.92389C12.1293 6.59227 11.5718 6.41406 11.0001 6.41406C10.4283 6.41406 9.87078 6.59227 9.40503 6.92389C8.93928 7.25551 8.58847 7.72406 8.40141 8.26434C8.21435 8.80462 8.20034 9.38977 8.36132 9.93839C8.52231 10.487 8.8503 10.9718 9.29964 11.3253C8.52968 11.6338 7.85786 12.1454 7.3558 12.8057C6.85375 13.466 6.54028 14.2501 6.44881 15.0745C6.44219 15.1347 6.44749 15.1956 6.4644 15.2537C6.48132 15.3119 6.50952 15.3661 6.5474 15.4134C6.6239 15.5088 6.73517 15.5699 6.85673 15.5832C6.97828 15.5966 7.10017 15.5612 7.19558 15.4847C7.29099 15.4082 7.3521 15.2969 7.36548 15.1753C7.46612 14.2794 7.89333 13.4519 8.56549 12.851C9.23765 12.2501 10.1076 11.918 11.0092 11.918C11.9108 11.918 12.7808 12.2501 13.453 12.851C14.1251 13.4519 14.5523 14.2794 14.653 15.1753C14.6654 15.288 14.7192 15.392 14.8038 15.4673C14.8885 15.5426 14.998 15.5839 15.1113 15.5832H15.1617C15.2819 15.5694 15.3917 15.5087 15.4672 15.4142C15.5428 15.3198 15.5779 15.1993 15.5651 15.0791C15.4732 14.2523 15.158 13.4662 14.6534 12.8049C14.1487 12.1436 13.4736 11.6322 12.7005 11.3253ZM11.0001 10.9999C10.6375 10.9999 10.283 10.8924 9.98151 10.6909C9.68002 10.4895 9.44504 10.2032 9.30628 9.86817C9.16752 9.53317 9.13121 9.16455 9.20195 8.80892C9.27269 8.45328 9.4473 8.12661 9.7037 7.87022C9.96009 7.61382 10.2868 7.43921 10.6424 7.36848C10.998 7.29774 11.3666 7.33404 11.7016 7.4728C12.0366 7.61156 12.323 7.84655 12.5244 8.14804C12.7259 8.44953 12.8334 8.80398 12.8334 9.16658C12.8334 9.65281 12.6402 10.1191 12.2964 10.4629C11.9526 10.8068 11.4863 10.9999 11.0001 10.9999Z" fill="white" stroke="white" stroke-width="0.2"/>
</svg>
